<svg width="121" height="120" fill="none" xmlns="http://www.w3.org/2000/svg"><path fill-rule="evenodd" clip-rule="evenodd" d="M-7 56.25C-7 25.232 21.598 0 56.75 0 91.903 0 121 25.232 121 56.25S91.903 112.5 56.75 112.5c-8.273 0-16.285-1.366-23.859-4.068A41.35 41.35 0 0 1 4.25 120c-3.34 0-5.004-4.049-2.651-6.401a22.805 22.805 0 0 0 6.024-21.486C-1.815 82.049-7 69.353-7 56.25zm58.934 4.902c-1.462 2.13-2.192 4.84-2.192 8.127h11.597c0-2.191.548-4.078 1.644-5.661 1.157-1.583 2.892-3.41 5.205-5.48 1.887-1.704 3.41-3.196 4.566-4.474 1.157-1.34 2.13-2.953 2.922-4.84.852-1.887 1.279-4.079 1.279-6.575 0-5.174-2.04-9.223-6.119-12.145-4.018-2.983-9.436-4.475-16.254-4.475-5.601 0-10.471.974-14.611 2.923-4.14 1.887-7.519 4.626-10.136 8.218l8.857 5.753c3.349-4.687 8.31-7.031 14.885-7.031 3.47 0 6.24.791 8.31 2.374 2.07 1.583 3.105 3.653 3.105 6.21 0 1.826-.548 3.47-1.644 4.93-1.035 1.401-2.648 3.075-4.84 5.023-2.86 2.557-5.053 4.931-6.575 7.123zM50.29 89.095c1.4 1.34 3.165 2.01 5.296 2.01 2.07 0 3.775-.67 5.114-2.01 1.4-1.4 2.1-3.105 2.1-5.114 0-2.008-.7-3.683-2.1-5.022-1.34-1.34-3.044-2.009-5.114-2.009-2.13 0-3.896.67-5.296 2.009-1.34 1.34-2.01 3.013-2.01 5.022 0 2.01.67 3.714 2.01 5.114z" fill="#fff"/></svg>