<svg fill="none" xmlns="http://www.w3.org/2000/svg"><circle cx="8" cy="8" r="8" fill="#8E79D0"/><g clip-path="url(#clip0)" fill="#fff"><path d="M11.62 7.182c.012-1.436-1.21-2.752-2.726-2.934a2.217 2.217 0 0 1-.098-.015 1.417 1.417 0 0 0-.23-.025c-.31 0-.394.218-.416.348a.402.402 0 0 0 .06.316c.103.14.284.165.43.185.042.006.082.011.116.019 1.361.304 1.82.782 2.043 2.132.006.033.008.073.011.116.01.162.03.497.391.497a.64.64 0 0 0 .096-.007c.336-.051.325-.358.32-.506-.001-.041-.002-.08.001-.107a.147.147 0 0 0 .002-.02z"/><path d="M8.477 3.721c.04.003.079.006.11.01 2.236.345 3.264 1.404 3.549 3.656.005.039.005.085.006.135.003.176.009.542.402.55h.012a.386.386 0 0 0 .292-.11c.122-.129.114-.32.107-.472a1.87 1.87 0 0 1-.003-.104c.028-2.304-1.966-4.393-4.268-4.47a.16.16 0 0 0-.028 0 .193.193 0 0 1-.027.002c-.023 0-.051-.002-.081-.004-.036-.002-.077-.005-.119-.005-.367 0-.436.26-.445.416-.02.359.327.384.493.396zm3.551 6.578a7.095 7.095 0 0 1-.143-.111c-.244-.197-.504-.378-.755-.553a50.892 50.892 0 0 1-.156-.109c-.322-.226-.61-.335-.884-.335-.368 0-.689.203-.953.604-.118.178-.26.264-.435.264a.863.863 0 0 1-.35-.088c-1.039-.47-1.78-1.193-2.204-2.146-.205-.46-.139-.761.222-1.006.205-.14.586-.398.56-.893-.032-.563-1.273-2.256-1.796-2.449a1.02 1.02 0 0 0-.693-.002c-.602.203-1.033.558-1.249 1.027-.208.454-.198.987.028 1.54.652 1.603 1.57 3 2.727 4.152 1.132 1.128 2.524 2.053 4.137 2.747.145.063.298.097.41.122l.094.022a.157.157 0 0 0 .04.006h.013c.758 0 1.669-.693 1.949-1.483.245-.692-.203-1.034-.562-1.31zM8.813 5.551c-.13.004-.4.01-.495.286-.044.128-.039.24.016.332.08.134.235.175.375.198.509.082.77.363.822.885.025.244.189.414.4.414l.047-.003c.253-.03.376-.216.364-.553.005-.352-.18-.75-.492-1.068-.314-.32-.693-.499-1.037-.49z"/></g><defs><clipPath id="clip0"><path fill="#fff" d="M2.91 2.909h10.182v10.182H2.91z"/></clipPath></defs></svg>