<svg width="17" height="16" fill="none" xmlns="http://www.w3.org/2000/svg"><circle cx="8.934" cy="8" r="8" fill="#8E79D0"/><g clip-path="url(#clip0)" fill="#fff"><path d="M12.553 7.182c.012-1.436-1.21-2.752-2.725-2.934a2.217 2.217 0 0 1-.098-.015 1.416 1.416 0 0 0-.23-.025c-.311 0-.394.218-.416.348a.402.402 0 0 0 .06.316c.103.14.284.165.43.185.042.006.082.011.116.019 1.36.304 1.819.782 2.043 2.132a1.2 1.2 0 0 1 .01.116c.01.162.03.497.392.497a.64.64 0 0 0 .096-.007c.336-.051.325-.358.32-.506-.001-.041-.003-.08 0-.106a.147.147 0 0 0 .002-.02z"/><path d="M9.411 3.721c.04.003.079.006.11.01 2.236.345 3.263 1.404 3.548 3.656.005.039.006.085.007.135.002.176.008.542.402.55h.012a.386.386 0 0 0 .291-.11c.123-.129.114-.32.107-.472a1.87 1.87 0 0 1-.002-.104c.028-2.304-1.966-4.393-4.268-4.47a.16.16 0 0 0-.028 0 .193.193 0 0 1-.027.002c-.023 0-.052-.002-.082-.004-.036-.002-.077-.005-.118-.005-.367 0-.437.26-.446.416-.02.359.327.384.494.396zm3.55 6.578a13.667 13.667 0 0 0-.897-.663 50.892 50.892 0 0 1-.156-.11c-.322-.226-.611-.335-.884-.335-.368 0-.689.203-.954.604-.117.177-.26.264-.435.264a.864.864 0 0 1-.35-.088C8.247 9.5 7.505 8.778 7.08 7.825c-.204-.46-.138-.761.223-1.006.204-.14.586-.398.559-.893-.03-.563-1.273-2.256-1.796-2.449a1.02 1.02 0 0 0-.693-.002c-.601.203-1.033.558-1.248 1.027-.208.454-.199.986.027 1.54.653 1.603 1.57 3 2.727 4.152 1.133 1.128 2.525 2.053 4.138 2.747.145.063.297.097.409.122.038.008.07.015.094.022a.157.157 0 0 0 .04.006h.013c.759 0 1.67-.693 1.95-1.484.244-.691-.203-1.034-.563-1.308zM9.747 5.551c-.13.004-.4.01-.495.286-.045.128-.04.24.015.332.081.134.235.175.376.198.508.082.77.363.822.885.024.244.188.414.399.414l.047-.003c.253-.03.376-.216.365-.553.004-.352-.18-.75-.493-1.068-.314-.32-.692-.499-1.036-.49z"/></g><defs><clipPath id="clip0"><path fill="#fff" d="M3.843 2.909h10.182v10.182H3.843z"/></clipPath></defs></svg>