<svg width="17" height="16" fill="none" xmlns="http://www.w3.org/2000/svg"><circle cx="8.57" cy="8" r="8" fill="#5FC766"/><path d="M13.15 10.255l-1.893-.584a.673.673 0 0 0-.699.198l-.463.507a.656.656 0 0 1-.75.17c-.896-.39-2.78-2.191-3.261-3.092a.788.788 0 0 1 .054-.822l.405-.563a.806.806 0 0 0 .087-.77L5.833 3.36c-.19-.464-.742-.6-1.103-.272-.528.481-1.155 1.211-1.232 2.02-.134 1.427.435 3.225 2.587 5.385 2.486 2.494 4.476 2.824 5.773 2.486.735-.191 1.322-.959 1.693-1.587.253-.429.053-.998-.4-1.138z" fill="#fff"/></svg>