<svg width="107" height="107" fill="none" xmlns="http://www.w3.org/2000/svg"><path d="M4.854 46.758h8.976a24.063 24.063 0 0 0 2.279 5.482l-6.353 6.35a1.618 1.618 0 0 0 0 2.29l6.863 6.866a1.62 1.62 0 0 0 2.288 0l6.354-6.355a24.046 24.046 0 0 0 5.48 2.279v8.975c0 .894.724 1.618 1.618 1.618h9.707c.894 0 1.618-.724 1.618-1.618V63.67a24.046 24.046 0 0 0 5.48-2.279l6.354 6.355a1.665 1.665 0 0 0 2.288 0l6.865-6.866a1.618 1.618 0 0 0 0-2.29l-6.354-6.35a24.063 24.063 0 0 0 2.279-5.482h8.976c.893 0 1.617-.724 1.617-1.618v-9.707c0-.893-.724-1.618-1.617-1.618h-8.976a24.07 24.07 0 0 0-2.28-5.482l6.354-6.35a1.619 1.619 0 0 0 0-2.29l-6.864-6.865a1.618 1.618 0 0 0-2.288 0l-6.353 6.355a24.111 24.111 0 0 0-5.48-2.279V7.928c0-.893-.725-1.618-1.619-1.618H32.36c-.894 0-1.618.725-1.618 1.618v8.976a24.113 24.113 0 0 0-5.48 2.279l-6.354-6.355a1.665 1.665 0 0 0-2.288 0l-6.865 6.866a1.618 1.618 0 0 0 0 2.289l6.355 6.35a24.07 24.07 0 0 0-2.28 5.482H4.855c-.894 0-1.618.725-1.618 1.618v9.707c0 .894.724 1.618 1.618 1.618zm1.618-9.707h8.623c.76 0 1.419-.53 1.581-1.272a20.817 20.817 0 0 1 2.835-6.818c.41-.64.319-1.48-.219-2.017l-6.106-6.106 4.577-4.578 6.105 6.106c.538.54 1.378.63 2.019.22a20.849 20.849 0 0 1 6.818-2.835 1.62 1.62 0 0 0 1.272-1.582V9.546h6.472v8.623c0 .76.53 1.419 1.271 1.582a20.849 20.849 0 0 1 6.818 2.834 1.62 1.62 0 0 0 2.02-.219l6.104-6.106 4.576 4.578-6.105 6.104a1.617 1.617 0 0 0-.218 2.019 20.81 20.81 0 0 1 2.832 6.82 1.62 1.62 0 0 0 1.58 1.272h8.627v6.471h-8.626c-.76 0-1.418.53-1.58 1.272a20.793 20.793 0 0 1-2.833 6.816c-.41.64-.32 1.48.218 2.018l6.106 6.105-4.577 4.579-6.105-6.107a1.619 1.619 0 0 0-2.019-.218 20.8 20.8 0 0 1-6.816 2.834 1.618 1.618 0 0 0-1.273 1.58v8.625h-6.472v-8.624c0-.76-.53-1.42-1.274-1.58a20.8 20.8 0 0 1-6.816-2.835 1.619 1.619 0 0 0-2.02.218l-6.104 6.107-4.576-4.578 6.105-6.104c.54-.538.63-1.379.219-2.02a20.824 20.824 0 0 1-2.835-6.82 1.617 1.617 0 0 0-1.58-1.27H6.471v-6.471z" fill="#fff"/><path d="M37.213 53.23c7.148 0 12.943-5.794 12.943-12.943 0-7.15-5.795-12.944-12.943-12.944-7.149 0-12.944 5.795-12.944 12.944.008 7.145 5.799 12.936 12.944 12.943zm0-22.651c5.36 0 9.707 4.347 9.707 9.708 0 5.36-4.347 9.707-9.707 9.707-5.361 0-9.708-4.346-9.708-9.707a9.717 9.717 0 0 1 9.708-9.708z" fill="#fff"/><path d="M37.213 58.084c9.829 0 17.797-7.968 17.797-17.797 0-9.83-7.968-17.798-17.797-17.798-9.83 0-17.798 7.969-17.798 17.798.012 9.824 7.973 17.786 17.798 17.797zm0-32.359c8.042 0 14.561 6.52 14.561 14.562s-6.519 14.561-14.561 14.561c-8.043 0-14.562-6.52-14.562-14.561.009-8.038 6.523-14.553 14.562-14.562zm58.246 55.01V67.792c0-.893-.725-1.618-1.618-1.618h-3.236V53.23c0-.893-.725-1.618-1.618-1.618H74.425c-.893 0-1.618.725-1.618 1.618v12.944h-8.09c-.893 0-1.617.725-1.617 1.618v12.943H11.326a8.1 8.1 0 0 0-8.09 8.09v3.236a8.098 8.098 0 0 0 8.09 8.089h84.133a8.098 8.098 0 0 0 8.089-8.09v-3.235a8.099 8.099 0 0 0-8.09-8.09zm-3.236 0H80.897V69.41h11.326v11.325zm-16.18-25.887H87.37v11.326H76.043V54.848zM66.336 69.41H77.66v11.325H66.336V69.41zm33.976 22.65a4.853 4.853 0 0 1-4.853 4.855H11.326a4.854 4.854 0 0 1-4.854-4.854v-3.236a4.854 4.854 0 0 1 4.854-4.854h84.133a4.854 4.854 0 0 1 4.853 4.854v3.236z" fill="#fff"/><path d="M53.392 85.589a4.854 4.854 0 1 0 .001 9.709 4.854 4.854 0 0 0 0-9.709zm0 6.472a1.618 1.618 0 1 1 0-3.236 1.618 1.618 0 0 1 0 3.236zm-16.179-6.472a4.854 4.854 0 1 0 0 9.709 4.854 4.854 0 0 0 0-9.709zm0 6.472a1.618 1.618 0 1 1 0-3.236 1.618 1.618 0 0 1 0 3.236zm32.359-6.472a4.854 4.854 0 1 0 0 9.709 4.854 4.854 0 0 0 0-9.709zm0 6.472a1.618 1.618 0 1 1 0-3.236 1.618 1.618 0 0 1 0 3.236zm-48.539-6.472a4.854 4.854 0 1 0 .001 9.709 4.854 4.854 0 0 0 0-9.709zm0 6.472a1.618 1.618 0 1 1 0-3.236 1.618 1.618 0 0 1 0 3.236zm64.718-6.472a4.854 4.854 0 1 0 .001 9.709 4.854 4.854 0 0 0-.001-9.709zm0 6.472a1.618 1.618 0 1 1 0-3.236 1.618 1.618 0 0 1 0 3.236z" fill="#fff"/></svg>