<svg width="107" height="107" viewBox="0 0 107 107" fill="none" xmlns="http://www.w3.org/2000/svg">
<g clip-path="url(#clip0)">
<path d="M106.969 41.25C106.964 39.1102 106.296 37.0244 105.057 35.2802C103.817 33.536 102.067 32.2193 100.047 31.5116C99.7786 28.3498 98.4266 25.3777 96.2198 23.0976C94.0129 20.8175 91.0866 19.3692 87.9353 18.9973C87.5445 16.5764 86.3053 14.3735 84.4393 12.7824C82.5733 11.1913 80.2022 10.3158 77.75 10.3125C77.1655 10.3134 76.5824 10.371 76.0089 10.4844C74.7707 8.26677 72.9422 6.43572 70.7263 5.19451C68.5104 3.9533 65.9939 3.35052 63.4561 3.45307C60.9183 3.55563 58.4586 4.35952 56.3501 5.77549C54.2416 7.19146 52.5667 9.16409 51.5116 11.4744C50.0634 10.7095 48.4502 10.3106 46.8125 10.3125C44.3603 10.3158 41.9892 11.1913 40.1232 12.7824C38.2572 14.3735 37.018 16.5764 36.6272 18.9973C33.2803 19.3919 30.1942 21.0001 27.9535 23.5173C25.7128 26.0346 24.4729 29.2862 24.4688 32.6562C24.4691 33.1103 24.4927 33.5641 24.5392 34.0158C22.6867 35.0641 21.2044 36.6607 20.2963 38.5858C19.3881 40.511 19.0987 42.6702 19.4678 44.7665C19.8369 46.8629 20.8465 48.7934 22.3575 50.2926C23.8686 51.7918 25.807 52.786 27.9063 53.1386V53.2812C27.9096 54.44 28.1484 55.586 28.6081 56.6496C29.0679 57.7132 29.7389 58.6724 30.5806 59.4687C29.1529 61.2353 28.2545 63.3699 27.9891 65.6256C27.7237 67.8814 28.1023 70.1662 29.0811 72.2159C30.0599 74.2655 31.5989 75.9962 33.5201 77.2078C35.4413 78.4194 37.6662 79.0624 39.9375 79.0625H57.125V104.844C57.125 105.3 57.3061 105.737 57.6284 106.059C57.9507 106.381 58.3879 106.562 58.8438 106.562H69.1563C69.6121 106.562 70.0493 106.381 70.3716 106.059C70.6939 105.737 70.875 105.3 70.875 104.844V79.5197L71.1363 79.0625H94.9375C97.4383 79.0617 99.8766 78.2818 101.914 76.831C103.95 75.3802 105.485 73.3308 106.303 70.9677C107.121 68.6046 107.183 66.0452 106.479 63.6455C105.775 61.2458 104.341 59.1251 102.376 57.5781C103.134 56.2728 103.532 54.7903 103.531 53.2812C103.531 52.0022 103.237 50.7403 102.672 49.5928C103.995 48.6388 105.073 47.3859 105.82 45.9362C106.566 44.4864 106.96 42.8807 106.969 41.25ZM67.7813 78.0106L62.7883 83.0036L65.2186 85.4339L67.4375 83.2116V103.125H60.5625V91.8053L62.7848 94.0277L65.2152 91.5973L60.5625 86.9447V71.1803L64.5036 75.1214L66.9339 72.6911L60.2188 65.9794L52.9502 53.2606L57.6252 57.9356L62.7814 63.0919L65.2117 60.6616L60.5625 56.0072V48.125C60.6719 42.0089 61.8347 35.9573 64 30.2362C66.0722 35.7444 67.2259 41.5555 67.4152 47.4375L62.7848 52.0678L65.2152 54.4981L67.4375 52.2741V68.75C67.4376 69.0899 67.5384 69.4221 67.7273 69.7047C67.9161 69.9873 68.1845 70.2075 68.4986 70.3376C68.8126 70.4676 69.1581 70.5017 69.4915 70.4354C69.8248 70.3691 70.131 70.2055 70.3714 69.9652L75.0464 65.2902L67.7813 78.0106ZM99.5523 47.4633C99.3169 47.5741 99.1097 47.7369 98.9464 47.9394C98.7831 48.142 98.6678 48.3789 98.6094 48.6325C98.551 48.886 98.5509 49.1495 98.6091 49.4031C98.6674 49.6567 98.7824 49.8938 98.9456 50.0964C99.6855 50.9931 100.091 52.1187 100.094 53.2812C100.09 54.1886 99.8441 55.0784 99.3822 55.8594C97.5578 55.1341 95.5836 54.8663 93.6319 55.0793C91.6802 55.2924 89.8103 55.9798 88.1853 57.0816C86.5604 58.1835 85.2298 59.6662 84.3096 61.4005C83.3894 63.1348 82.9076 65.068 82.9063 67.0312H86.3438C86.3424 65.5416 86.7284 64.0772 87.4637 62.7817C88.1989 61.4862 89.2584 60.4041 90.538 59.6415C91.8176 58.8789 93.2735 58.462 94.7628 58.4317C96.2521 58.4014 97.7237 58.7588 99.0333 59.4687C99.0333 59.4687 99.0711 59.4945 99.0934 59.5066C100.763 60.4275 102.079 61.8774 102.834 63.628C103.589 65.3787 103.74 67.3307 103.264 69.1769C102.788 71.023 101.712 72.6585 100.204 73.8258C98.6968 74.9931 96.844 75.6261 94.9375 75.625H73.1094L84.4067 55.8594C84.6087 55.4981 84.6735 55.0761 84.5892 54.6708C84.505 54.2656 84.2773 53.9044 83.9481 53.6536C83.6189 53.4027 83.2102 53.2791 82.7971 53.3054C82.3841 53.3318 81.9944 53.5063 81.6997 53.7969L70.875 64.6009V48.125C70.7327 40.1334 68.9177 32.2603 65.5469 25.013C65.3881 24.7466 65.1628 24.526 64.8932 24.3729C64.6235 24.2197 64.3187 24.1392 64.0086 24.1392C63.6985 24.1392 63.3937 24.2197 63.124 24.3729C62.8544 24.526 62.6291 24.7466 62.4703 25.013C59.0936 32.259 57.2727 40.1322 57.125 48.125V52.5697L46.3089 41.7536C46.0142 41.463 45.6245 41.2885 45.2115 41.2622C44.7984 41.2358 44.3897 41.3594 44.0605 41.6103C43.7313 41.8611 43.5036 42.2223 43.4194 42.6276C43.3351 43.0328 43.3999 43.4548 43.6019 43.8161L57.125 67.4884V75.625H39.9375C38.1889 75.6233 36.4823 75.0882 35.0458 74.0912C33.6092 73.0941 32.511 71.6826 31.8978 70.045C31.2846 68.4074 31.1855 66.6217 31.6138 64.9263C32.0421 63.2309 32.9774 61.7066 34.2948 60.5567C34.5023 60.3755 34.6631 60.1471 34.7638 59.8907C34.8645 59.6344 34.9021 59.3575 34.8735 59.0836C34.8449 58.8097 34.7508 58.5466 34.5993 58.3166C34.4477 58.0866 34.2431 57.8964 34.0027 57.762C33.2015 57.3185 32.5329 56.6697 32.0656 55.8822C31.5983 55.0947 31.3491 54.1969 31.3438 53.2812C31.3453 53.0867 31.3608 52.8926 31.3902 52.7003C31.3902 52.6659 31.4039 52.635 31.4073 52.6006C31.44 52.4098 31.5345 51.9131 31.5431 51.8684C31.8853 50.6738 32.6475 49.6429 33.6894 48.9655C34.7312 48.2881 35.9827 48.0098 37.2134 48.1817C38.4442 48.3537 39.5714 48.9643 40.3877 49.9013C41.2041 50.8383 41.6545 52.0385 41.6563 53.2812H45.0938C45.0971 51.3178 44.4266 49.4126 43.1943 47.884C41.962 46.3554 40.2425 45.2959 38.3231 44.8825C36.4036 44.469 34.4004 44.7267 32.6481 45.6125C30.8958 46.4983 29.5004 47.9585 28.6952 49.7492C27.1936 49.5506 25.8004 48.8593 24.7339 47.7838C23.6674 46.7082 22.988 45.3092 22.802 43.806C22.6161 42.3029 22.9341 40.7805 23.7064 39.4775C24.4786 38.1745 25.6613 37.1645 27.0692 36.6059C27.4422 36.4557 27.7507 36.1794 27.941 35.8251C28.1313 35.4709 28.1914 35.0611 28.1108 34.6672C27.9757 34.0054 27.9071 33.3317 27.9063 32.6562C27.9063 29.9212 28.9927 27.2982 30.9267 25.3642C32.8607 23.4302 35.4837 22.3437 38.2188 22.3437C40.9538 22.3437 43.5768 23.4302 45.5108 25.3642C47.4448 27.2982 48.5313 29.9212 48.5313 32.6562H51.9688C51.9633 29.3447 50.7635 26.1462 48.5898 23.6479C46.4161 21.1496 43.4142 19.5191 40.1352 19.0558C40.4884 17.5489 41.3399 16.2052 42.5517 15.2423C43.7635 14.2794 45.2647 13.7536 46.8125 13.75C48.1145 13.758 49.386 14.145 50.4717 14.8637C50.3316 15.6306 50.2575 16.408 50.25 17.1875H53.6875C53.6898 16.3362 53.796 15.4883 54.0038 14.6627C54.0187 14.6313 54.0319 14.5992 54.0433 14.5664C54.5926 12.4885 55.7775 10.6341 57.4323 9.26246C59.0871 7.89084 61.1291 7.07055 63.2729 6.91623C65.4166 6.76191 67.5551 7.28128 69.3893 8.40175C71.2234 9.52221 72.6617 11.1878 73.503 13.1656C74.0417 14.4378 74.3171 15.806 74.3125 17.1875H77.75C77.746 16.0409 77.5982 14.8993 77.31 13.7895C77.4561 13.7792 77.6073 13.75 77.75 13.75C79.2978 13.7536 80.799 14.2794 82.0108 15.2423C83.2226 16.2052 84.0741 17.5489 84.4273 19.0558C81.1483 19.5191 78.1464 21.1496 75.9727 23.6479C73.799 26.1462 72.5992 29.3447 72.5938 32.6562H76.0313C76.0485 30.0826 77.0275 27.6084 78.776 25.7197C80.5244 23.8311 82.9159 22.6645 85.4806 22.4491C88.0453 22.2337 90.5979 22.9852 92.6368 24.5558C94.6757 26.1265 96.0536 28.4027 96.4998 30.9375C93.792 30.9786 91.209 32.0832 89.3087 34.0127C87.4084 35.9422 86.3434 38.5418 86.3438 41.25H89.7812C89.7812 39.4266 90.5056 37.678 91.7949 36.3886C93.0842 35.0993 94.8329 34.375 96.6562 34.375C97.111 34.3756 97.5646 34.4205 98.0106 34.5091H98.0192C99.4378 34.7934 100.73 35.5191 101.712 36.5822C102.693 37.6454 103.313 38.9916 103.483 40.4284C103.653 41.8652 103.365 43.319 102.659 44.5819C101.953 45.8448 100.865 46.8521 99.5523 47.4598V47.4633Z" fill="#00672F"/>
<path d="M99.5523 47.4633C99.3169 47.5741 99.1097 47.7369 98.9464 47.9394C98.7831 48.142 98.6678 48.3789 98.6094 48.6325C98.551 48.886 98.5509 49.1495 98.6091 49.4031C98.6674 49.6567 98.7824 49.8938 98.9456 50.0964C99.6855 50.9931 100.091 52.1187 100.094 53.2812C100.09 54.1886 99.8441 55.0784 99.3822 55.8594C97.5578 55.1341 95.5836 54.8663 93.6319 55.0793C91.6802 55.2924 89.8103 55.9798 88.1853 57.0816C86.5604 58.1835 85.2298 59.6662 84.3096 61.4005C83.3894 63.1348 82.9076 65.068 82.9063 67.0312H86.3438C86.3424 65.5416 86.7284 64.0772 87.4637 62.7817C88.1989 61.4862 89.2584 60.4041 90.538 59.6415C91.8176 58.8789 93.2735 58.462 94.7628 58.4317C96.2521 58.4014 97.7237 58.7588 99.0333 59.4687C99.0333 59.4687 99.0711 59.4945 99.0934 59.5066C100.763 60.4275 102.079 61.8774 102.834 63.628C103.589 65.3787 103.74 67.3307 103.264 69.1769C102.788 71.023 101.712 72.6585 100.204 73.8258C98.6968 74.9931 96.844 75.6261 94.9375 75.625H73.1094L84.4067 55.8594C84.6087 55.4981 84.6735 55.0761 84.5892 54.6708C84.505 54.2656 84.2773 53.9044 83.9481 53.6536C83.6189 53.4027 83.2102 53.2791 82.7971 53.3054C82.3841 53.3318 81.9944 53.5063 81.6997 53.7969L70.875 64.6009V48.125C70.7327 40.1334 68.9177 32.2603 65.5469 25.013C65.3881 24.7466 65.1628 24.526 64.8932 24.3729C64.6235 24.2197 64.3187 24.1392 64.0086 24.1392C63.6985 24.1392 63.3937 24.2197 63.124 24.3729C62.8544 24.526 62.6291 24.7466 62.4703 25.013C59.0936 32.259 57.2727 40.1322 57.125 48.125V52.5697L46.3089 41.7536C46.0142 41.463 45.6245 41.2885 45.2115 41.2622C44.7984 41.2358 44.3897 41.3594 44.0605 41.6103C43.7313 41.8611 43.5036 42.2223 43.4194 42.6276C43.3351 43.0328 43.3999 43.4548 43.6019 43.8161L57.125 67.4884V75.625H39.9375C38.1889 75.6233 36.4823 75.0882 35.0458 74.0912C33.6092 73.0941 32.511 71.6826 31.8978 70.045C31.2846 68.4074 31.1855 66.6217 31.6138 64.9263C32.0421 63.2309 32.9774 61.7066 34.2948 60.5567C34.5023 60.3755 34.6631 60.1471 34.7638 59.8907C34.8645 59.6344 34.9021 59.3575 34.8735 59.0836C34.8449 58.8097 34.7508 58.5466 34.5993 58.3166C34.4477 58.0866 34.2431 57.8964 34.0027 57.762C33.2015 57.3185 32.5329 56.6697 32.0656 55.8822C31.5983 55.0947 31.3491 54.1969 31.3438 53.2812C31.3453 53.0867 31.3608 52.8926 31.3902 52.7003C31.3902 52.6659 31.4039 52.635 31.4073 52.6006C31.44 52.4098 31.5345 51.9131 31.5431 51.8684C31.8853 50.6738 32.6475 49.6429 33.6894 48.9655C34.7312 48.2881 35.9827 48.0098 37.2134 48.1817C38.4442 48.3537 39.5714 48.9643 40.3877 49.9013C41.2041 50.8383 41.6545 52.0385 41.6563 53.2812H45.0938C45.0971 51.3178 44.4266 49.4126 43.1943 47.884C41.962 46.3554 40.2425 45.2959 38.3231 44.8825C36.4036 44.469 34.4004 44.7267 32.6481 45.6125C30.8958 46.4983 29.5004 47.9585 28.6952 49.7492C27.1936 49.5506 25.8004 48.8593 24.7339 47.7838C23.6674 46.7082 22.988 45.3092 22.802 43.806C22.6161 42.3029 22.9341 40.7805 23.7064 39.4775C24.4786 38.1745 25.6613 37.1645 27.0692 36.6059C27.4422 36.4557 27.7507 36.1794 27.941 35.8251C28.1313 35.4709 28.1914 35.0611 28.1108 34.6672C27.9757 34.0054 27.9071 33.3317 27.9063 32.6562C27.9063 29.9212 28.9927 27.2982 30.9267 25.3642C32.8607 23.4302 35.4837 22.3437 38.2188 22.3437C40.9538 22.3437 43.5768 23.4302 45.5108 25.3642C47.4448 27.2982 48.5313 29.9212 48.5313 32.6562H51.9688C51.9633 29.3447 50.7635 26.1462 48.5898 23.6479C46.4161 21.1496 43.4142 19.5191 40.1352 19.0558C40.4884 17.5489 41.3399 16.2052 42.5517 15.2423C43.7635 14.2794 45.2647 13.7536 46.8125 13.75C48.1145 13.758 49.386 14.145 50.4717 14.8637C50.3316 15.6306 50.2575 16.408 50.25 17.1875H53.6875C53.6898 16.3362 53.796 15.4883 54.0038 14.6627C54.0187 14.6313 54.0319 14.5992 54.0433 14.5664C54.5926 12.4885 55.7775 10.6341 57.4323 9.26246C59.0871 7.89084 61.1291 7.07055 63.2729 6.91623C65.4166 6.76191 67.5551 7.28128 69.3893 8.40175C71.2234 9.52221 72.6617 11.1878 73.503 13.1656C74.0417 14.4378 74.3171 15.806 74.3125 17.1875H77.75C77.746 16.0409 77.5982 14.8993 77.31 13.7895C77.4561 13.7792 77.6073 13.75 77.75 13.75C79.2978 13.7536 80.799 14.2794 82.0108 15.2423C83.2226 16.2052 84.0741 17.5489 84.4273 19.0558C81.1483 19.5191 78.1464 21.1496 75.9727 23.6479C73.799 26.1462 72.5992 29.3447 72.5938 32.6562H76.0313C76.0485 30.0826 77.0275 27.6084 78.776 25.7197C80.5244 23.8311 82.9159 22.6645 85.4806 22.4491C88.0453 22.2337 90.5979 22.9852 92.6368 24.5558C94.6757 26.1265 96.0536 28.4027 96.4998 30.9375C93.792 30.9786 91.209 32.0832 89.3087 34.0127C87.4084 35.9422 86.3434 38.5418 86.3438 41.25H89.7812C89.7812 39.4266 90.5056 37.678 91.7949 36.3886C93.0842 35.0993 94.8329 34.375 96.6562 34.375C97.111 34.3756 97.5646 34.4205 98.0106 34.5091H98.0192C99.4378 34.7934 100.73 35.5191 101.712 36.5822C102.693 37.6454 103.313 38.9916 103.483 40.4284C103.653 41.8652 103.365 43.319 102.659 44.5819C101.953 45.8448 100.865 46.8521 99.5523 47.4598V47.4633Z" fill="#00672F"/>
<path d="M67.7813 78.0106L62.7883 83.0036L65.2186 85.4339L67.4375 83.2116V103.125H60.5625V91.8053L62.7848 94.0277L65.2152 91.5973L60.5625 86.9447V71.1803L64.5036 75.1214L66.9339 72.6911L60.2188 65.9794L52.9502 53.2606L57.6252 57.9356L62.7814 63.0919L65.2117 60.6616L60.5625 56.0072V48.125C60.6719 42.0089 61.8347 35.9573 64 30.2362C66.0722 35.7444 67.2259 41.5555 67.4152 47.4375L62.7848 52.0678L65.2152 54.4981L67.4375 52.2741V68.75C67.4376 69.0899 67.5384 69.4221 67.7273 69.7047C67.9161 69.9873 68.1845 70.2075 68.4986 70.3376C68.8126 70.4676 69.1581 70.5017 69.4915 70.4354C69.8248 70.3691 70.131 70.2055 70.3714 69.9652L75.0464 65.2902L67.7813 78.0106Z" fill="#00672F"/>
<path d="M106.969 41.25C106.964 39.1102 106.296 37.0244 105.057 35.2802C103.817 33.536 102.067 32.2193 100.047 31.5116C99.7786 28.3498 98.4266 25.3777 96.2198 23.0976C94.0129 20.8175 91.0866 19.3692 87.9353 18.9973C87.5445 16.5764 86.3053 14.3735 84.4393 12.7824C82.5733 11.1913 80.2022 10.3158 77.75 10.3125C77.1655 10.3134 76.5824 10.371 76.0089 10.4844C74.7707 8.26677 72.9422 6.43572 70.7263 5.19451C68.5104 3.9533 65.9939 3.35052 63.4561 3.45307C60.9183 3.55563 58.4586 4.35952 56.3501 5.77549C54.2416 7.19146 52.5667 9.16409 51.5116 11.4744C50.0634 10.7095 48.4502 10.3106 46.8125 10.3125C44.3603 10.3158 41.9892 11.1913 40.1232 12.7824C38.2572 14.3735 37.018 16.5764 36.6272 18.9973C33.2803 19.3919 30.1942 21.0001 27.9535 23.5173C25.7128 26.0346 24.4729 29.2862 24.4688 32.6562C24.4691 33.1103 24.4927 33.5641 24.5392 34.0158C22.6867 35.0641 21.2044 36.6607 20.2963 38.5858C19.3881 40.511 19.0987 42.6702 19.4678 44.7665C19.8369 46.8629 20.8465 48.7934 22.3575 50.2926C23.8686 51.7918 25.807 52.786 27.9063 53.1386V53.2812C27.9096 54.44 28.1484 55.586 28.6081 56.6496C29.0679 57.7132 29.7389 58.6724 30.5806 59.4687C29.1529 61.2353 28.2545 63.3699 27.9891 65.6256C27.7237 67.8814 28.1023 70.1662 29.0811 72.2159C30.0599 74.2655 31.5989 75.9962 33.5201 77.2078C35.4413 78.4194 37.6662 79.0624 39.9375 79.0625H57.125V104.844C57.125 105.3 57.3061 105.737 57.6284 106.059C57.9507 106.381 58.3879 106.562 58.8438 106.562H69.1563C69.6121 106.562 70.0493 106.381 70.3716 106.059C70.6939 105.737 70.875 105.3 70.875 104.844V79.5197L71.1363 79.0625H94.9375C97.4383 79.0617 99.8766 78.2818 101.914 76.831C103.95 75.3802 105.485 73.3308 106.303 70.9677C107.121 68.6046 107.183 66.0452 106.479 63.6455C105.775 61.2458 104.341 59.1251 102.376 57.5781C103.134 56.2728 103.532 54.7903 103.531 53.2812C103.531 52.0022 103.237 50.7403 102.672 49.5928C103.995 48.6388 105.073 47.3859 105.82 45.9362C106.566 44.4864 106.96 42.8807 106.969 41.25ZM67.7813 78.0106L62.7883 83.0036L65.2186 85.4339L67.4375 83.2116V103.125H60.5625V91.8053L62.7848 94.0277L65.2152 91.5973L60.5625 86.9447V71.1803L64.5036 75.1214L66.9339 72.6911L60.2188 65.9794L52.9502 53.2606L57.6252 57.9356L62.7814 63.0919L65.2117 60.6616L60.5625 56.0072V48.125C60.6719 42.0089 61.8347 35.9573 64 30.2362C66.0722 35.7444 67.2259 41.5555 67.4152 47.4375L62.7848 52.0678L65.2152 54.4981L67.4375 52.2741V68.75C67.4376 69.0899 67.5384 69.4221 67.7273 69.7047C67.9161 69.9873 68.1845 70.2075 68.4986 70.3376C68.8126 70.4676 69.1581 70.5017 69.4915 70.4354C69.8248 70.3691 70.131 70.2055 70.3714 69.9652L75.0464 65.2902L67.7813 78.0106ZM99.5523 47.4633C99.3169 47.5741 99.1097 47.7369 98.9464 47.9394C98.7831 48.142 98.6678 48.3789 98.6094 48.6325C98.551 48.886 98.5509 49.1495 98.6091 49.4031C98.6674 49.6567 98.7824 49.8938 98.9456 50.0964C99.6855 50.9931 100.091 52.1187 100.094 53.2812C100.09 54.1886 99.8441 55.0784 99.3822 55.8594C97.5578 55.1341 95.5836 54.8663 93.6319 55.0793C91.6802 55.2924 89.8103 55.9798 88.1853 57.0816C86.5604 58.1835 85.2298 59.6662 84.3096 61.4005C83.3894 63.1348 82.9076 65.068 82.9063 67.0312H86.3438C86.3424 65.5416 86.7284 64.0772 87.4637 62.7817C88.1989 61.4862 89.2584 60.4041 90.538 59.6415C91.8176 58.8789 93.2735 58.462 94.7628 58.4317C96.2521 58.4014 97.7237 58.7588 99.0333 59.4687C99.0333 59.4687 99.0711 59.4945 99.0934 59.5066C100.763 60.4275 102.079 61.8774 102.834 63.628C103.589 65.3787 103.74 67.3307 103.264 69.1769C102.788 71.023 101.712 72.6585 100.204 73.8258C98.6968 74.9931 96.844 75.6261 94.9375 75.625H73.1094L84.4067 55.8594C84.6087 55.4981 84.6735 55.0761 84.5892 54.6708C84.505 54.2656 84.2773 53.9044 83.9481 53.6536C83.6189 53.4027 83.2102 53.2791 82.7971 53.3054C82.3841 53.3318 81.9944 53.5063 81.6997 53.7969L70.875 64.6009V48.125C70.7327 40.1334 68.9177 32.2603 65.5469 25.013C65.3881 24.7466 65.1628 24.526 64.8932 24.3729C64.6235 24.2197 64.3187 24.1392 64.0086 24.1392C63.6985 24.1392 63.3937 24.2197 63.124 24.3729C62.8544 24.526 62.6291 24.7466 62.4703 25.013C59.0936 32.259 57.2727 40.1322 57.125 48.125V52.5697L46.3089 41.7536C46.0142 41.463 45.6245 41.2885 45.2115 41.2622C44.7984 41.2358 44.3897 41.3594 44.0605 41.6103C43.7313 41.8611 43.5036 42.2223 43.4194 42.6276C43.3351 43.0328 43.3999 43.4548 43.6019 43.8161L57.125 67.4884V75.625H39.9375C38.1889 75.6233 36.4823 75.0882 35.0458 74.0912C33.6092 73.0941 32.511 71.6826 31.8978 70.045C31.2846 68.4074 31.1855 66.6217 31.6138 64.9263C32.0421 63.2309 32.9774 61.7066 34.2948 60.5567C34.5023 60.3755 34.6631 60.1471 34.7638 59.8907C34.8645 59.6344 34.9021 59.3575 34.8735 59.0836C34.8449 58.8097 34.7508 58.5466 34.5993 58.3166C34.4477 58.0866 34.2431 57.8964 34.0027 57.762C33.2015 57.3185 32.5329 56.6697 32.0656 55.8822C31.5983 55.0947 31.3491 54.1969 31.3438 53.2812C31.3453 53.0867 31.3608 52.8926 31.3902 52.7003C31.3902 52.6659 31.4039 52.635 31.4073 52.6006C31.44 52.4098 31.5345 51.9131 31.5431 51.8684C31.8853 50.6738 32.6475 49.6429 33.6894 48.9655C34.7312 48.2881 35.9827 48.0098 37.2134 48.1817C38.4442 48.3537 39.5714 48.9643 40.3877 49.9013C41.2041 50.8383 41.6545 52.0385 41.6563 53.2812H45.0938C45.0971 51.3178 44.4266 49.4126 43.1943 47.884C41.962 46.3554 40.2425 45.2959 38.3231 44.8825C36.4036 44.469 34.4004 44.7267 32.6481 45.6125C30.8958 46.4983 29.5004 47.9585 28.6952 49.7492C27.1936 49.5506 25.8004 48.8593 24.7339 47.7838C23.6674 46.7082 22.988 45.3092 22.802 43.806C22.6161 42.3029 22.9341 40.7805 23.7064 39.4775C24.4786 38.1745 25.6613 37.1645 27.0692 36.6059C27.4422 36.4557 27.7507 36.1794 27.941 35.8251C28.1313 35.4709 28.1914 35.0611 28.1108 34.6672C27.9757 34.0054 27.9071 33.3317 27.9063 32.6562C27.9063 29.9212 28.9927 27.2982 30.9267 25.3642C32.8607 23.4302 35.4837 22.3437 38.2188 22.3437C40.9538 22.3437 43.5768 23.4302 45.5108 25.3642C47.4448 27.2982 48.5313 29.9212 48.5313 32.6562H51.9688C51.9633 29.3447 50.7635 26.1462 48.5898 23.6479C46.4161 21.1496 43.4142 19.5191 40.1352 19.0558C40.4884 17.5489 41.3399 16.2052 42.5517 15.2423C43.7635 14.2794 45.2647 13.7536 46.8125 13.75C48.1145 13.758 49.386 14.145 50.4717 14.8637C50.3316 15.6306 50.2575 16.408 50.25 17.1875H53.6875C53.6898 16.3362 53.796 15.4883 54.0038 14.6627C54.0187 14.6313 54.0319 14.5992 54.0433 14.5664C54.5926 12.4885 55.7775 10.6341 57.4323 9.26246C59.0871 7.89084 61.1291 7.07055 63.2729 6.91623C65.4166 6.76191 67.5551 7.28128 69.3893 8.40175C71.2234 9.52221 72.6617 11.1878 73.503 13.1656C74.0417 14.4378 74.3171 15.806 74.3125 17.1875H77.75C77.746 16.0409 77.5982 14.8993 77.31 13.7895C77.4561 13.7792 77.6073 13.75 77.75 13.75C79.2978 13.7536 80.799 14.2794 82.0108 15.2423C83.2226 16.2052 84.0741 17.5489 84.4273 19.0558C81.1483 19.5191 78.1464 21.1496 75.9727 23.6479C73.799 26.1462 72.5992 29.3447 72.5938 32.6562H76.0313C76.0485 30.0826 77.0275 27.6084 78.776 25.7197C80.5244 23.8311 82.9159 22.6645 85.4806 22.4491C88.0453 22.2337 90.5979 22.9852 92.6368 24.5558C94.6757 26.1265 96.0536 28.4027 96.4998 30.9375C93.792 30.9786 91.209 32.0832 89.3087 34.0127C87.4084 35.9422 86.3434 38.5418 86.3438 41.25H89.7812C89.7812 39.4266 90.5056 37.678 91.7949 36.3886C93.0842 35.0993 94.8329 34.375 96.6562 34.375C97.111 34.3756 97.5646 34.4205 98.0106 34.5091H98.0192C99.4378 34.7934 100.73 35.5191 101.712 36.5822C102.693 37.6454 103.313 38.9916 103.483 40.4284C103.653 41.8652 103.365 43.319 102.659 44.5819C101.953 45.8448 100.865 46.8521 99.5523 47.4598V47.4633Z" fill="white"/>
<path d="M34.7812 29.2188H38.2188V32.6562H34.7812V29.2188Z" fill="white"/>
<path d="M50.25 36.0938H53.6875V39.5312H50.25V36.0938Z" fill="white"/>
<path d="M39.9375 61.875H43.375V65.3125H39.9375V61.875Z" fill="white"/>
<path d="M77.75 42.9688H81.1875V46.4062H77.75V42.9688Z" fill="white"/>
<path d="M64 13.75H67.4375V17.1875H64V13.75Z" fill="white"/>
<path d="M55.4062 20.625H58.8438V24.0625H55.4062V20.625Z" fill="white"/>
<path d="M93.2188 65.3125H96.6562V68.75H93.2188V65.3125Z" fill="white"/>
</g>
<g clip-path="url(#clip1)">
<path d="M76.3397 85.6409L63.5989 69.7787H70.5484C71.6326 69.7853 72.517 68.9117 72.5234 67.8275C72.5266 67.2901 72.3094 66.775 71.9226 66.402L57.1205 46.1031H64.1289C65.2131 46.1031 66.0921 45.2241 66.0921 44.1399C66.0914 43.576 65.8482 43.0398 65.4246 42.6676L52.2322 26.3538H57.8469C58.931 26.3693 59.8225 25.503 59.838 24.4191C59.8466 23.8137 59.5756 23.2383 59.1033 22.8594L39.9822 0.675804C39.2713 -0.14283 38.0313 -0.229944 37.2127 0.480961C37.1432 0.541328 37.0782 0.606357 37.0178 0.675804L17.6023 23.095C16.8975 23.919 16.9942 25.1582 17.8182 25.8628C18.1738 26.1671 18.6266 26.3342 19.0945 26.3339H24.7484L11.399 42.9029C10.7158 43.7448 10.8446 44.9811 11.6868 45.6643C12.0385 45.9495 12.4777 46.1045 12.9302 46.1028H19.9191L4.86169 66.657C4.22195 67.5323 4.41311 68.7605 5.28843 69.4003C5.62609 69.6469 6.03369 69.7794 6.45184 69.7784H13.4014L0.660551 85.6407C-0.0226252 86.4826 0.106206 87.7189 0.948151 88.4021C1.2944 88.6831 1.72605 88.8377 2.17193 88.8406H32.3455V105.037C32.3455 106.121 33.2245 107 34.3087 107H42.6717C43.7559 107 44.6349 106.121 44.6349 105.037V88.8406H74.8085C75.8926 88.8443 76.7746 87.9685 76.7782 86.8841C76.78 86.4318 76.6249 85.9926 76.3397 85.6409ZM40.7086 103.152H36.2718V88.8408H40.7086V103.152ZM42.6717 84.9931H6.27491L19.0158 69.1308C19.6989 68.2889 19.5701 67.0526 18.7279 66.3694C18.3763 66.0843 17.937 65.9292 17.4845 65.9309H10.319L25.3175 45.3767C25.9572 44.5014 25.766 43.2732 24.8907 42.6335C24.5531 42.3868 24.1455 42.2543 23.7273 42.2553H16.8956L30.245 25.6863C30.9281 24.8444 30.7991 23.6081 29.9571 22.9249C29.6057 22.6398 29.1662 22.4847 28.7137 22.4864H23.3739L38.4902 4.95547L53.6065 22.4275H48.1882C47.104 22.4238 46.2221 23.2996 46.2184 24.384C46.2169 24.8368 46.3718 25.276 46.6569 25.6274L60.0848 42.1768H53.2727C52.1886 42.1741 51.3074 43.0506 51.3044 44.1348C51.3034 44.5529 51.4357 44.9605 51.6826 45.2982L66.681 65.8524H59.4959C58.4118 65.8487 57.5298 66.7245 57.5261 67.8089C57.5247 68.2616 57.6795 68.7009 57.9646 69.0523L70.7055 84.9145L42.6717 84.9931Z" fill="#00672F"/>
<path d="M42.6717 84.9931H6.27491L19.0158 69.1308C19.6989 68.2889 19.5701 67.0526 18.7279 66.3694C18.3763 66.0843 17.937 65.9292 17.4845 65.9309H10.319L25.3175 45.3767C25.9572 44.5014 25.766 43.2732 24.8907 42.6335C24.5531 42.3868 24.1455 42.2543 23.7273 42.2553H16.8956L30.245 25.6863C30.9281 24.8444 30.7991 23.6081 29.9571 22.9249C29.6057 22.6398 29.1662 22.4847 28.7137 22.4864H23.3739L38.4902 4.95547L53.6065 22.4275H48.1882C47.104 22.4238 46.2221 23.2996 46.2184 24.384C46.2169 24.8368 46.3718 25.276 46.6569 25.6274L60.0848 42.1768H53.2727C52.1886 42.1741 51.3074 43.0506 51.3044 44.1348C51.3034 44.5529 51.4357 44.9605 51.6826 45.2982L66.681 65.8524H59.4959C58.4118 65.8487 57.5298 66.7245 57.5261 67.8089C57.5247 68.2616 57.6795 68.7009 57.9646 69.0523L70.7055 84.9145L42.6717 84.9931Z" fill="#00672F"/>
<path d="M40.7086 103.152H36.2718V88.8408H40.7086V103.152Z" fill="#00672F"/>
<path d="M76.3397 85.6409L63.5989 69.7787H70.5484C71.6326 69.7853 72.517 68.9117 72.5234 67.8275C72.5266 67.2901 72.3094 66.775 71.9226 66.402L57.1205 46.1031H64.1289C65.2131 46.1031 66.0921 45.2241 66.0921 44.1399C66.0913 43.576 65.8482 43.0398 65.4246 42.6676L52.2322 26.3538H57.8469C58.931 26.3693 59.8225 25.503 59.838 24.4191C59.8466 23.8137 59.5757 23.2383 59.1033 22.8594L39.9822 0.675804C39.2713 -0.14283 38.0313 -0.229944 37.2127 0.480961C37.1432 0.541328 37.0782 0.606357 37.0178 0.675804L17.6023 23.095C16.8975 23.919 16.9942 25.1582 17.8182 25.8628C18.1738 26.1671 18.6266 26.3342 19.0945 26.3339H24.7484L11.399 42.9029C10.7158 43.7448 10.8446 44.9811 11.6868 45.6643C12.0385 45.9495 12.4777 46.1046 12.9302 46.1028H19.9191L4.86169 66.657C4.22195 67.5323 4.41311 68.7605 5.28843 69.4003C5.62609 69.6469 6.03369 69.7794 6.45184 69.7784H13.4014L0.660551 85.6407C-0.0226253 86.4826 0.106206 87.7189 0.948151 88.4021C1.2944 88.6831 1.72605 88.8377 2.17193 88.8406H32.3455V105.037C32.3455 106.121 33.2245 107 34.3087 107H42.6717C43.7559 107 44.6349 106.121 44.6349 105.037V88.8406H74.8085C75.8926 88.8443 76.7746 87.9685 76.7782 86.8841C76.78 86.4318 76.6249 85.9926 76.3397 85.6409ZM40.7086 103.152H36.2718V88.8408H40.7086V103.152ZM42.6717 84.9931H6.27491L19.0158 69.1308C19.6989 68.2889 19.5701 67.0526 18.7279 66.3694C18.3763 66.0843 17.937 65.9292 17.4845 65.9309H10.319L25.3175 45.3767C25.9572 44.5014 25.766 43.2732 24.8907 42.6335C24.5531 42.3868 24.1455 42.2543 23.7273 42.2553H16.8956L30.245 25.6863C30.9281 24.8444 30.7991 23.6081 29.9571 22.9249C29.6057 22.6398 29.1662 22.4847 28.7137 22.4864H23.3739L38.4902 4.95547L53.6065 22.4275H48.1882C47.104 22.4238 46.2221 23.2996 46.2184 24.384C46.2169 24.8368 46.3718 25.276 46.6569 25.6274L60.0848 42.1768H53.2727C52.1886 42.1741 51.3074 43.0506 51.3044 44.1348C51.3034 44.5529 51.4357 44.9605 51.6826 45.2982L66.681 65.8524H59.4959C58.4118 65.8487 57.5298 66.7245 57.5261 67.8089C57.5247 68.2616 57.6795 68.7009 57.9646 69.0523L70.7055 84.9145L42.6717 84.9931Z" fill="white"/>
</g>
<defs>
<clipPath id="clip0">
<rect x="19.1642" width="87.8358" height="107" fill="white"/>
</clipPath>
<clipPath id="clip1">
<rect width="85" height="107" fill="white"/>
</clipPath>
</defs>
</svg>
