<svg width="107" height="107" fill="none" xmlns="http://www.w3.org/2000/svg"><g clip-path="url(#clip0)"><path d="M106.969 41.25a10.343 10.343 0 0 0-6.922-9.738 13.774 13.774 0 0 0-12.112-12.515 10.331 10.331 0 0 0-10.185-8.684c-.585 0-1.168.058-1.741.171a13.741 13.741 0 0 0-24.497.99 10.036 10.036 0 0 0-4.7-1.162 10.331 10.331 0 0 0-10.185 8.685 13.771 13.771 0 0 0-12.158 13.66c0 .453.024.907.07 1.359a10.3 10.3 0 0 0 3.367 19.123v.142a8.552 8.552 0 0 0 2.675 6.188 12.032 12.032 0 0 0 9.357 19.593h17.187v25.782a1.717 1.717 0 0 0 1.719 1.718h10.312a1.72 1.72 0 0 0 1.719-1.718V79.52l.261-.457h23.802a12.034 12.034 0 0 0 11.365-8.095 12.031 12.031 0 0 0-3.927-13.39 8.544 8.544 0 0 0 1.155-4.297 8.35 8.35 0 0 0-.859-3.688 10.354 10.354 0 0 0 4.297-8.343zM67.781 78.01l-4.993 4.994 2.43 2.43 2.22-2.222v19.913h-6.876v-11.32l2.223 2.223 2.43-2.43-4.653-4.653V71.18l3.942 3.941 2.43-2.43-6.715-6.712-7.269-12.718 4.675 4.675 5.156 5.156 2.43-2.43-4.648-4.655v-7.882A53.227 53.227 0 0 1 64 30.236a53.764 53.764 0 0 1 3.415 17.201l-4.63 4.63 2.43 2.431 2.222-2.224V68.75a1.719 1.719 0 0 0 2.934 1.215l4.675-4.675-7.265 12.72zm31.771-30.547a1.719 1.719 0 0 0-.606 2.633 5.024 5.024 0 0 1 1.148 3.185 5.109 5.109 0 0 1-.712 2.578 12.032 12.032 0 0 0-16.476 11.172h3.438a8.593 8.593 0 0 1 12.69-7.562s.037.026.06.038a8.594 8.594 0 0 1-4.156 16.118h-21.83l11.298-19.766a1.718 1.718 0 0 0-2.707-2.062L70.875 64.6V48.125a57.219 57.219 0 0 0-5.328-23.112 1.79 1.79 0 0 0-3.077 0 57.22 57.22 0 0 0-5.345 23.112v4.445L46.309 41.754a1.719 1.719 0 0 0-2.707 2.062l13.523 23.672v8.137H39.937a8.594 8.594 0 0 1-5.642-15.068 1.718 1.718 0 0 0-.292-2.795 5.156 5.156 0 0 1-2.66-4.48 4.05 4.05 0 0 1 .047-.582c0-.034.014-.065.017-.1.033-.19.128-.687.136-.732a5.156 5.156 0 0 1 10.113 1.413h3.438a8.577 8.577 0 0 0-16.399-3.532 6.842 6.842 0 0 1-1.626-13.143 1.718 1.718 0 0 0 1.042-1.939 10.114 10.114 0 0 1-.205-2.01 10.312 10.312 0 1 1 20.625 0h3.438a13.759 13.759 0 0 0-11.834-13.601 6.875 6.875 0 0 1 6.678-5.306 6.704 6.704 0 0 1 3.659 1.114c-.14.767-.215 1.544-.222 2.323h3.438c.002-.85.108-1.699.316-2.524a.959.959 0 0 0 .04-.097 10.312 10.312 0 0 1 19.459-1.4 10.23 10.23 0 0 1 .81 4.021h3.437a13.71 13.71 0 0 0-.44-3.398c.146-.01.297-.039.44-.039a6.874 6.874 0 0 1 6.677 5.306 13.758 13.758 0 0 0-11.833 13.6h3.437A10.312 10.312 0 0 1 96.5 30.938 10.313 10.313 0 0 0 86.344 41.25h3.437a6.875 6.875 0 0 1 8.23-6.74h.008a6.863 6.863 0 0 1 5.464 5.918 6.86 6.86 0 0 1-3.93 7.032v.003z" fill="#00672F"/><path d="M99.552 47.463a1.719 1.719 0 0 0-.606 2.633 5.024 5.024 0 0 1 1.148 3.185 5.109 5.109 0 0 1-.712 2.578 12.032 12.032 0 0 0-16.476 11.172h3.438a8.593 8.593 0 0 1 12.69-7.562s.037.026.06.038a8.594 8.594 0 0 1-4.156 16.118h-21.83l11.298-19.766a1.718 1.718 0 0 0-2.707-2.062L70.875 64.6V48.125a57.219 57.219 0 0 0-5.328-23.112 1.79 1.79 0 0 0-3.077 0 57.22 57.22 0 0 0-5.345 23.112v4.445L46.309 41.754a1.719 1.719 0 0 0-2.707 2.062l13.523 23.672v8.137H39.937a8.594 8.594 0 0 1-5.642-15.068 1.718 1.718 0 0 0-.292-2.795 5.156 5.156 0 0 1-2.66-4.48 4.05 4.05 0 0 1 .047-.582c0-.034.014-.065.017-.1.033-.19.128-.687.136-.732a5.156 5.156 0 0 1 10.113 1.413h3.438a8.577 8.577 0 0 0-16.399-3.532 6.842 6.842 0 0 1-1.626-13.143 1.718 1.718 0 0 0 1.042-1.939 10.114 10.114 0 0 1-.205-2.01 10.312 10.312 0 1 1 20.625 0h3.438a13.759 13.759 0 0 0-11.834-13.601 6.875 6.875 0 0 1 6.678-5.306 6.704 6.704 0 0 1 3.659 1.114c-.14.767-.215 1.544-.222 2.323h3.438c.002-.85.108-1.699.316-2.524a.959.959 0 0 0 .04-.097 10.312 10.312 0 0 1 19.459-1.4 10.23 10.23 0 0 1 .81 4.021h3.437a13.71 13.71 0 0 0-.44-3.398c.146-.01.297-.039.44-.039a6.874 6.874 0 0 1 6.677 5.306 13.758 13.758 0 0 0-11.833 13.6h3.437A10.312 10.312 0 0 1 96.5 30.938 10.313 10.313 0 0 0 86.344 41.25h3.437a6.875 6.875 0 0 1 8.23-6.74h.008a6.863 6.863 0 0 1 5.464 5.918 6.86 6.86 0 0 1-3.93 7.032v.003z" fill="#00672F"/><path d="M67.781 78.01l-4.993 4.994 2.43 2.43 2.22-2.222v19.913h-6.876v-11.32l2.223 2.223 2.43-2.43-4.653-4.653V71.18l3.942 3.941 2.43-2.43-6.715-6.712-7.269-12.718 4.675 4.675 5.156 5.156 2.43-2.43-4.648-4.655v-7.882A53.227 53.227 0 0 1 64 30.236a53.764 53.764 0 0 1 3.415 17.201l-4.63 4.63 2.43 2.431 2.222-2.224V68.75a1.719 1.719 0 0 0 2.934 1.215l4.675-4.675-7.265 12.72z" fill="#00672F"/><path d="M106.969 41.25a10.343 10.343 0 0 0-6.922-9.738 13.774 13.774 0 0 0-12.112-12.515 10.331 10.331 0 0 0-10.185-8.684c-.585 0-1.168.058-1.741.171a13.741 13.741 0 0 0-24.497.99 10.036 10.036 0 0 0-4.7-1.162 10.331 10.331 0 0 0-10.185 8.685 13.771 13.771 0 0 0-12.158 13.66c0 .453.024.907.07 1.359a10.3 10.3 0 0 0 3.367 19.123v.142a8.552 8.552 0 0 0 2.675 6.188 12.032 12.032 0 0 0 9.357 19.593h17.187v25.782a1.717 1.717 0 0 0 1.719 1.718h10.312a1.72 1.72 0 0 0 1.719-1.718V79.52l.261-.457h23.802a12.034 12.034 0 0 0 11.365-8.095 12.031 12.031 0 0 0-3.927-13.39 8.544 8.544 0 0 0 1.155-4.297 8.35 8.35 0 0 0-.859-3.688 10.354 10.354 0 0 0 4.297-8.343zM67.781 78.01l-4.993 4.994 2.43 2.43 2.22-2.222v19.913h-6.876v-11.32l2.223 2.223 2.43-2.43-4.653-4.653V71.18l3.942 3.941 2.43-2.43-6.715-6.712-7.269-12.718 4.675 4.675 5.156 5.156 2.43-2.43-4.648-4.655v-7.882A53.227 53.227 0 0 1 64 30.236a53.764 53.764 0 0 1 3.415 17.201l-4.63 4.63 2.43 2.431 2.222-2.224V68.75a1.719 1.719 0 0 0 2.934 1.215l4.675-4.675-7.265 12.72zm31.771-30.547a1.719 1.719 0 0 0-.606 2.633 5.024 5.024 0 0 1 1.148 3.185 5.109 5.109 0 0 1-.712 2.578 12.032 12.032 0 0 0-16.476 11.172h3.438a8.593 8.593 0 0 1 12.69-7.562s.037.026.06.038a8.594 8.594 0 0 1-4.156 16.118h-21.83l11.298-19.766a1.718 1.718 0 0 0-2.707-2.062L70.875 64.6V48.125a57.219 57.219 0 0 0-5.328-23.112 1.79 1.79 0 0 0-3.077 0 57.22 57.22 0 0 0-5.345 23.112v4.445L46.309 41.754a1.719 1.719 0 0 0-2.707 2.062l13.523 23.672v8.137H39.937a8.594 8.594 0 0 1-5.642-15.068 1.718 1.718 0 0 0-.292-2.795 5.156 5.156 0 0 1-2.66-4.48 4.05 4.05 0 0 1 .047-.582c0-.034.014-.065.017-.1.033-.19.128-.687.136-.732a5.156 5.156 0 0 1 10.113 1.413h3.438a8.577 8.577 0 0 0-16.399-3.532 6.842 6.842 0 0 1-1.626-13.143 1.718 1.718 0 0 0 1.042-1.939 10.114 10.114 0 0 1-.205-2.01 10.312 10.312 0 1 1 20.625 0h3.438a13.759 13.759 0 0 0-11.834-13.601 6.875 6.875 0 0 1 6.678-5.306 6.704 6.704 0 0 1 3.659 1.114c-.14.767-.215 1.544-.222 2.323h3.438c.002-.85.108-1.699.316-2.524a.959.959 0 0 0 .04-.097 10.312 10.312 0 0 1 19.459-1.4 10.23 10.23 0 0 1 .81 4.021h3.437a13.71 13.71 0 0 0-.44-3.398c.146-.01.297-.039.44-.039a6.874 6.874 0 0 1 6.677 5.306 13.758 13.758 0 0 0-11.833 13.6h3.437A10.312 10.312 0 0 1 96.5 30.938 10.313 10.313 0 0 0 86.344 41.25h3.437a6.875 6.875 0 0 1 8.23-6.74h.008a6.863 6.863 0 0 1 5.464 5.918 6.86 6.86 0 0 1-3.93 7.032v.003z" fill="#fff"/><path d="M34.781 29.219h3.438v3.437H34.78V29.22zm15.469 6.875h3.438v3.437H50.25v-3.437zM39.938 61.875h3.437v3.438h-3.438v-3.438zM77.75 42.969h3.438v3.437H77.75V42.97zM64 13.75h3.438v3.438H64V13.75zm-8.594 6.875h3.438v3.438h-3.438v-3.438zm37.813 44.688h3.437v3.437H93.22v-3.438z" fill="#fff"/></g><g clip-path="url(#clip1)"><path d="M76.34 85.64L63.599 69.78h6.95a1.963 1.963 0 0 0 1.374-3.377l-14.803-20.3h7.009a1.963 1.963 0 0 0 1.296-3.435L52.232 26.354h5.615a1.963 1.963 0 0 0 1.256-3.495L39.983.676a1.963 1.963 0 0 0-2.965 0L17.602 23.095a1.963 1.963 0 0 0 1.492 3.239h5.654L11.4 42.903a1.963 1.963 0 0 0 1.531 3.2h6.99L4.861 66.657a1.963 1.963 0 0 0 1.59 3.121h6.95L.66 85.641a1.963 1.963 0 0 0 1.51 3.2h30.175v16.196c0 1.084.879 1.963 1.963 1.963h8.363a1.963 1.963 0 0 0 1.963-1.963V88.841h30.173a1.963 1.963 0 0 0 1.532-3.2zm-35.631 17.512h-4.437V88.841h4.437v14.311zm1.963-18.159H6.275l12.74-15.862a1.963 1.963 0 0 0-1.53-3.2h-7.166l14.998-20.554a1.963 1.963 0 0 0-1.59-3.122h-6.831l13.349-16.569a1.963 1.963 0 0 0-1.531-3.2h-5.34L38.49 4.956l15.116 17.471h-5.418a1.963 1.963 0 0 0-1.531 3.2l13.428 16.55h-6.812a1.963 1.963 0 0 0-1.59 3.121L66.68 65.852h-7.185a1.963 1.963 0 0 0-1.531 3.2l12.74 15.862-28.033.08z" fill="#00672F"/><path d="M42.672 84.993H6.275l12.74-15.862a1.963 1.963 0 0 0-1.53-3.2h-7.166l14.998-20.554a1.963 1.963 0 0 0-1.59-3.122h-6.831l13.349-16.569a1.963 1.963 0 0 0-1.531-3.2h-5.34L38.49 4.956l15.116 17.471h-5.418a1.963 1.963 0 0 0-1.531 3.2l13.428 16.55h-6.812a1.963 1.963 0 0 0-1.59 3.121L66.68 65.852h-7.185a1.963 1.963 0 0 0-1.531 3.2l12.74 15.862-28.033.08zm-1.963 18.159h-4.437V88.841h4.437v14.311z" fill="#00672F"/><path d="M76.34 85.64L63.599 69.78h6.95a1.963 1.963 0 0 0 1.374-3.377l-14.803-20.3h7.009a1.963 1.963 0 0 0 1.296-3.435L52.232 26.354h5.615a1.963 1.963 0 0 0 1.256-3.495L39.983.676a1.963 1.963 0 0 0-2.965 0L17.602 23.095a1.963 1.963 0 0 0 1.492 3.239h5.654L11.4 42.903a1.963 1.963 0 0 0 1.531 3.2h6.99L4.861 66.657a1.963 1.963 0 0 0 1.59 3.121h6.95L.66 85.641a1.963 1.963 0 0 0 1.51 3.2h30.175v16.196c0 1.084.879 1.963 1.963 1.963h8.363a1.963 1.963 0 0 0 1.963-1.963V88.841h30.173a1.963 1.963 0 0 0 1.532-3.2zm-35.631 17.512h-4.437V88.841h4.437v14.311zm1.963-18.159H6.275l12.74-15.862a1.963 1.963 0 0 0-1.53-3.2h-7.166l14.998-20.554a1.963 1.963 0 0 0-1.59-3.122h-6.831l13.349-16.569a1.963 1.963 0 0 0-1.531-3.2h-5.34L38.49 4.956l15.116 17.471h-5.418a1.963 1.963 0 0 0-1.531 3.2l13.428 16.55h-6.812a1.963 1.963 0 0 0-1.59 3.121L66.68 65.852h-7.185a1.963 1.963 0 0 0-1.531 3.2l12.74 15.862-28.033.08z" fill="#fff"/></g><defs><clipPath id="clip0"><path fill="#fff" d="M19.164 0H107v107H19.164z"/></clipPath><clipPath id="clip1"><path fill="#fff" d="M0 0h85v107H0z"/></clipPath></defs></svg>