<svg width="107" height="107" fill="none" xmlns="http://www.w3.org/2000/svg"><path d="M53.35 48.077a5.835 5.835 0 0 0-5.828 5.829 5.835 5.835 0 0 0 5.828 5.828 5.835 5.835 0 0 0 5.829-5.828 5.835 5.835 0 0 0-5.829-5.829zm0 8.482a2.657 2.657 0 0 1-2.654-2.653 2.657 2.657 0 0 1 2.654-2.654 2.657 2.657 0 0 1 2.654 2.654 2.657 2.657 0 0 1-2.654 2.653z" fill="#fff"/><path d="M53.35 40.25c-7.53 0-13.655 6.126-13.655 13.656S45.82 67.56 53.35 67.56c7.53 0 13.656-6.125 13.656-13.655 0-7.53-6.126-13.656-13.656-13.656zm0 24.136c-5.78 0-10.48-4.701-10.48-10.48 0-5.78 4.701-10.481 10.48-10.481 5.78 0 10.48 4.702 10.48 10.48 0 5.78-4.7 10.481-10.48 10.481z" fill="#fff"/><path d="M53.35 32.55c-11.775 0-21.356 9.58-21.356 21.356 0 11.775 9.58 21.355 21.356 21.355 11.776 0 21.356-9.58 21.356-21.355 0-11.776-9.58-21.356-21.356-21.356zm0 39.537c-10.025 0-18.18-8.156-18.18-18.181s8.155-18.18 18.18-18.18 18.181 8.155 18.181 18.18-8.156 18.18-18.18 18.18z" fill="#fff"/><path d="M53.35 24.91c-15.988 0-28.995 13.007-28.995 28.996 0 15.988 13.007 28.995 28.995 28.995 15.988 0 28.996-13.007 28.996-28.995 0-15.989-13.008-28.996-28.996-28.996zm0 54.817c-14.238 0-25.82-11.584-25.82-25.821 0-14.238 11.582-25.821 25.82-25.821s25.821 11.583 25.821 25.82c0 14.238-11.583 25.822-25.82 25.822z" fill="#fff"/><path d="M53.35 17.147c-20.269 0-36.759 16.49-36.759 36.759 0 20.27 16.49 36.76 36.76 36.76 20.268 0 36.758-16.49 36.758-36.76s-16.49-36.76-36.759-36.76zm0 70.343c-18.518 0-33.584-15.066-33.584-33.584 0-18.519 15.066-33.584 33.584-33.584 18.519 0 33.585 15.066 33.585 33.584 0 18.519-15.066 33.584-33.585 33.584z" fill="#fff"/><path d="M53.35 10.376c-24.002 0-43.53 19.527-43.53 43.53 0 24.002 19.528 43.53 43.53 43.53 24.003 0 43.53-19.528 43.53-43.53 0-24.003-19.527-43.53-43.53-43.53zm0 83.885c-22.252 0-40.355-18.103-40.355-40.355 0-22.252 18.103-40.356 40.355-40.356 22.252 0 40.355 18.104 40.355 40.356 0 22.251-18.103 40.355-40.355 40.355z" fill="#fff"/><path d="M105.765 56.18c-.377-.8-.845-1.796-.845-2.274 0-3.03-.265-6.07-.789-9.03-.133-.758.016-1.406.188-2.157.237-1.032.531-2.316.018-3.893-.232-.715-.466-1.478-.713-2.287-.892-2.912-1.902-6.213-3.327-8.686-.714-1.24-2.08-2.152-3.4-3.035-.887-.593-1.804-1.206-2.187-1.72-.397-.53-.851-1.862-1.252-3.037-.633-1.851-1.23-3.6-2.197-4.621a52.116 52.116 0 0 0-5.111-4.713c-1.628-1.312-3.421-1.401-5.003-1.48-1.16-.059-2.162-.11-3.046-.593a51.444 51.444 0 0 0-7.958-3.521c-.781-.27-1.822-1.007-2.83-1.721C65.8 2.337 64.232 1.226 62.6.915A51.996 51.996 0 0 0 52.88 0c-2.615 0-4.869 1.054-7.048 2.074-1.377.644-2.678 1.253-3.98 1.55-.952.216-2.17.15-3.46.08-1.835-.1-3.732-.205-5.405.472a51.545 51.545 0 0 0-6.935 3.433c-1.44.853-2.324 2.292-3.18 3.684-.59.962-1.15 1.87-1.778 2.375-.889.713-2.093 1.207-3.368 1.73-1.848.756-3.76 1.54-5.137 3.144a51.907 51.907 0 0 0-4.923 6.773c-1.2 1.969-1.605 4.526-1.996 7-.253 1.594-.492 3.1-.917 4.296a51.398 51.398 0 0 0-2.972 17.295c0 1.159-.384 2.545-.792 4.013-.574 2.07-1.168 4.211-.8 6.21A51.329 51.329 0 0 0 3.53 75.155c.646 1.501 2.047 2.462 3.402 3.392.881.605 1.793 1.23 2.142 1.814a51.784 51.784 0 0 0 6.011 8.118c.49.541 1.051 1.571 1.594 2.567.805 1.476 1.637 3.002 2.703 3.925a51.93 51.93 0 0 0 5.694 4.285c1.325.862 2.716.856 3.832.851.797-.002 1.486-.006 2.056.269.909.438 1.934 1.35 3.02 2.315 1.58 1.404 3.214 2.856 5.084 3.393 1.707.491 3.211.582 4.665.669.78.047 1.588.096 2.448.206.22.028.44.041.66.041 1.269 0 2.535-.43 3.766-.848.981-.333 1.995-.677 2.742-.677 1.254 0 2.624.343 4.075.706 2.084.522 4.239 1.062 6.368.64 2.22-.438 4.384-1.308 6.479-2.15.656-.263 1.275-.512 1.886-.744 1.437-.544 2.543-1.717 3.518-2.752.701-.744 1.364-1.446 2.002-1.788a51.766 51.766 0 0 0 6.882-4.424c.572-.436 1.618-.743 2.63-1.04 1.524-.445 3.1-.907 4.213-2.009a51.986 51.986 0 0 0 5.556-6.496c.874-1.21.994-2.773 1.1-4.152.07-.928.144-1.887.432-2.408a51.464 51.464 0 0 0 3.255-7.101c.254-.69.942-1.366 1.67-2.083 1.056-1.04 2.253-2.217 2.618-3.924a51.73 51.73 0 0 0 .873-5.534c.135-1.322-.514-2.701-1.142-4.036zm-2.016 3.713a48.695 48.695 0 0 1-.819 5.192c-.167.777-.931 1.53-1.741 2.326-.901.887-1.922 1.892-2.421 3.247a48.268 48.268 0 0 1-3.054 6.662c-.624 1.127-.724 2.437-.822 3.704-.077 1.008-.157 2.05-.507 2.536a48.806 48.806 0 0 1-5.217 6.099c-.542.537-1.726.883-2.87 1.218-1.29.378-2.623.768-3.662 1.56a48.603 48.603 0 0 1-6.459 4.152c-1.093.586-1.966 1.513-2.81 2.408-.778.824-1.581 1.676-2.334 1.961-.64.243-1.304.51-1.945.768-1.958.786-3.983 1.6-5.91 1.98-1.433.282-3.157-.148-4.982-.605-1.574-.394-3.201-.801-4.846-.801-1.27 0-2.537.43-3.762.846-1.103.374-2.242.762-3.003.664a37.935 37.935 0 0 0-2.66-.226c-1.4-.084-2.609-.157-3.98-.551-1.176-.338-2.536-1.547-3.851-2.715-1.2-1.067-2.442-2.17-3.75-2.802-1.126-.543-2.251-.585-3.191-.585l-.257.001c-.968.002-1.585-.01-2.09-.338a48.769 48.769 0 0 1-5.344-4.022c-.633-.548-1.356-1.875-1.994-3.046-.661-1.212-1.285-2.356-2.027-3.177a48.845 48.845 0 0 1-5.642-7.62c-.705-1.177-1.907-2.002-3.07-2.8-.983-.675-2-1.372-2.284-2.031a48.181 48.181 0 0 1-3.134-10.343c-.235-1.28.26-3.064.737-4.788.446-1.608.908-3.27.908-4.862a48.597 48.597 0 0 1 .957-9.626 48.167 48.167 0 0 1 1.83-6.604c.525-1.472.798-3.197 1.062-4.864.344-2.169.699-4.411 1.572-5.844a48.666 48.666 0 0 1 4.62-6.357c.88-1.025 2.363-1.632 3.932-2.275 1.429-.585 2.905-1.19 4.152-2.192 1.058-.848 1.789-2.038 2.496-3.188.653-1.063 1.329-2.161 2.094-2.615a48.365 48.365 0 0 1 6.506-3.22c1.017-.412 2.554-.328 4.04-.247 1.453.08 2.954.162 4.34-.154 1.633-.372 3.152-1.082 4.62-1.77 1.952-.912 3.794-1.774 5.704-1.774 3.068 0 6.138.288 9.124.859.954.181 2.293 1.13 3.473 1.968 1.19.843 2.42 1.716 3.632 2.133a48.27 48.27 0 0 1 7.466 3.303c1.522.834 3.058.911 4.413.98 1.454.072 2.385.149 3.17.782a48.857 48.857 0 0 1 4.798 4.424c.491.518 1.072 2.22 1.497 3.463.523 1.532 1.016 2.978 1.711 3.91.71.951 1.857 1.718 2.967 2.46.97.648 2.07 1.384 2.415 1.98 1.245 2.162 2.2 5.28 3.041 8.03.252.823.489 1.6.73 2.34.242.742.101 1.354-.093 2.201-.208.903-.466 2.027-.22 3.42.491 2.779.74 5.631.74 8.477 0 1.188.583 2.428 1.148 3.627.359.763.901 1.917.856 2.361z" fill="#fff"/></svg>