<svg width="107" height="107" fill="none" xmlns="http://www.w3.org/2000/svg"><path d="M49.933 96.3a46.33 46.33 0 1 1 46.083-41.21l3.548.387c.2-1.84.302-3.691.303-5.544C99.867 22.356 77.51 0 49.933 0 22.356 0 0 22.356 0 49.933c0 27.578 22.356 49.934 49.933 49.934 1.853 0 3.705-.102 5.546-.305l-.392-3.546a46.969 46.969 0 0 1-5.154.284z" fill="#fff"/><path d="M92.694 51.793c.025-.611.04-1.235.04-1.86 0-23.637-19.163-42.8-42.8-42.8-23.638 0-42.8 19.163-42.8 42.8 0 23.638 19.162 42.8 42.8 42.8.624 0 1.245-.013 1.861-.039l-.157-3.567c-.565.027-1.133.04-1.705.04C28.265 89.167 10.7 71.6 10.7 49.933 10.7 28.265 28.265 10.7 49.933 10.7c21.669 0 39.234 17.565 39.234 39.233 0 .57-.013 1.142-.038 1.707l3.565.153z" fill="#fff"/><path d="M48.15 14.267h3.567v3.566H48.15v-3.566zM23.453 25.973l2.523-2.52 2.52 2.522-2.522 2.522-2.52-2.524zM14.267 48.15h3.566v3.567h-3.566V48.15zm9.185 25.743l2.521-2.522 2.524 2.52-2.522 2.523-2.523-2.52zm24.698 8.14h3.567V85.6H48.15v-3.567zM82.033 48.15H85.6v3.567h-3.567V48.15zM71.37 25.976l2.52-2.524 2.524 2.522-2.522 2.523-2.522-2.521zM56.762 49.933a1.78 1.78 0 0 0-.523-1.26l-4.522-4.522V23.183H48.15v20.968l-4 3.999h-17.4v3.567h17.4l4.523 4.52a1.784 1.784 0 0 0 2.521 0l5.045-5.043a1.78 1.78 0 0 0 .523-1.26zm-6.829 2.522l-2.521-2.522 2.521-2.521 2.522 2.521-2.522 2.522zM80.25 53.5c-14.773 0-26.75 11.977-26.75 26.75S65.477 107 80.25 107 107 95.023 107 80.25c-.017-14.766-11.984-26.733-26.75-26.75zm0 49.933c-12.804 0-23.183-10.38-23.183-23.183 0-12.804 10.38-23.183 23.183-23.183 12.804 0 23.183 10.38 23.183 23.183-.014 12.798-10.385 23.169-23.183 23.183z" fill="#fff"/><path d="M75.637 85.869v2.51h9.445v2.425h-9.445v4.978H71.34v-4.978H67v-2.425h4.34V66h11.7c3.885 0 6.92.865 9.104 2.595 2.184 1.702 3.276 4.141 3.276 7.318 0 3.205-1.092 5.673-3.276 7.403-2.184 1.702-5.219 2.553-9.104 2.553h-7.403zm15.486-9.913c0-2.014-.695-3.56-2.085-4.638-1.39-1.078-3.389-1.617-5.998-1.617h-7.403v12.637h7.403c2.58 0 4.566-.554 5.956-1.66 1.418-1.134 2.127-2.709 2.127-4.722z" fill="#fff"/></svg>