<svg width="70" height="71" viewBox="0 0 70 71" fill="none" xmlns="http://www.w3.org/2000/svg">
<rect width="70" height="71" fill="#C02D33"/>
<g clip-path="url(#clip0)">
<path d="M55.4078 14.4525H14.6034C10.9609 14.4525 8 17.4134 8 21.0559V48.9441C8 52.5866 10.9609 55.5475 14.6034 55.5475H55.3967C59.0391 55.5475 62 52.5866 62 48.9441V21.067C62.0112 17.4246 59.0503 14.4525 55.4078 14.4525ZM58.9944 48.9441C58.9944 50.9218 57.3855 52.5307 55.4078 52.5307H14.6034C12.6257 52.5307 11.0168 50.9218 11.0168 48.9441V21.067C11.0168 19.0894 12.6257 17.4804 14.6034 17.4804H55.3967C57.3743 17.4804 58.9832 19.0894 58.9832 21.067V48.9441H58.9944Z" fill="white"/>
<path d="M42.0558 34.6536L55.2625 22.81C55.877 22.2514 55.9329 21.3017 55.3742 20.676C54.8156 20.0614 53.8658 20.0056 53.2402 20.5642L35.0279 36.9106L31.4748 33.7374C31.4636 33.7262 31.4524 33.7151 31.4524 33.7039C31.3742 33.6257 31.296 33.5586 31.2066 33.4916L16.7485 20.5531C16.1228 19.9944 15.1731 20.0503 14.6145 20.676C14.0558 21.3017 14.1117 22.2514 14.7374 22.81L28.1005 34.7542L14.7932 47.2123C14.1899 47.7821 14.1564 48.7318 14.7262 49.3463C15.0279 49.6592 15.4301 49.8268 15.8323 49.8268C16.201 49.8268 16.5698 49.6927 16.8603 49.4246L30.3686 36.7877L34.0334 40.0614C34.324 40.3184 34.6815 40.4413 35.039 40.4413C35.3966 40.4413 35.7653 40.3072 36.0446 40.0503L39.81 36.676L53.2402 49.4357C53.5307 49.7151 53.9105 49.8491 54.2793 49.8491C54.6815 49.8491 55.0726 49.6927 55.3742 49.3799C55.9441 48.7765 55.9217 47.8156 55.3184 47.2458L42.0558 34.6536Z" fill="white"/>
</g>
<defs>
<clipPath id="clip0">
<rect x="8" y="8" width="54" height="54" fill="white"/>
</clipPath>
</defs>
</svg>
