<svg width="70" height="71" viewBox="0 0 70 71" fill="none" xmlns="http://www.w3.org/2000/svg">
<rect width="70" height="71" fill="#00672F"/>
<path d="M57 34.9463C57 46.5147 47.55 55.8925 35.8908 55.8925C32.1895 55.8925 28.7122 54.9465 25.6869 53.2862L14 57L17.8103 45.7617C15.8882 42.6055 14.7812 38.9037 14.7812 34.9463C14.7812 23.3778 24.2321 14 35.8908 14C47.551 14 57 23.3778 57 34.9463ZM35.8908 17.3358C26.104 17.3358 18.1433 25.2359 18.1433 34.9463C18.1433 38.7995 19.3994 42.3681 21.524 45.271L19.3067 51.8113L26.127 49.6437C28.9291 51.4836 32.286 52.5567 35.8913 52.5567C45.6767 52.5567 53.6388 44.6576 53.6388 34.9472C53.6388 25.2369 45.6771 17.3358 35.8908 17.3358ZM46.5505 39.7704C46.4201 39.5568 46.0756 39.4278 45.5587 39.1712C45.0407 38.9147 42.4961 37.672 42.0231 37.5014C41.5487 37.3304 41.2028 37.2444 40.8583 37.758C40.5138 38.2721 39.5219 39.4278 39.2195 39.7704C38.9175 40.1139 38.6161 40.1569 38.0982 39.8999C37.5812 39.6433 35.9142 39.1005 33.9377 37.3519C32.3997 35.9912 31.361 34.3113 31.0591 33.7967C30.7576 33.2831 31.0275 33.0055 31.286 32.7499C31.5192 32.5196 31.8039 32.1503 32.0624 31.8507C32.3218 31.5507 32.4078 31.3371 32.5793 30.9941C32.7528 30.6515 32.6663 30.3519 32.5363 30.0944C32.4073 29.8379 31.3715 27.3114 30.9406 26.2832C30.5096 25.256 30.0791 25.427 29.7767 25.427C29.4752 25.427 29.1298 25.384 28.7848 25.384C28.4399 25.384 27.879 25.5125 27.4045 26.0261C26.9306 26.5402 25.5942 27.7825 25.5942 30.3085C25.5942 32.835 27.4475 35.2759 27.707 35.618C27.9654 35.9601 31.2855 41.3131 36.5459 43.369C41.8067 45.4239 41.8067 44.7383 42.7555 44.6523C43.7034 44.5668 45.8162 43.4106 46.249 42.2123C46.679 41.0121 46.679 39.9844 46.5505 39.7704Z" fill="white"/>
</svg>
