<svg width="70" height="71" viewBox="0 0 70 71" fill="none" xmlns="http://www.w3.org/2000/svg">
<rect width="70" height="71" fill="#FFC800"/>
<path d="M44.3624 14H25.6376C24.0776 14 22.8008 15.306 22.8008 16.9043V54.0944C22.8008 55.6928 24.0776 57 25.6376 57H44.3624C45.9224 57 47.1992 55.6953 47.1992 54.0957V16.9043C47.1992 15.306 45.9224 14 44.3624 14ZM32.0048 16.0935H37.9952C38.1848 16.0935 38.3384 16.2507 38.3384 16.4461C38.3384 16.6402 38.1848 16.7975 37.9952 16.7975H32.0048C31.8152 16.7975 31.6616 16.6402 31.6616 16.4461C31.6616 16.2507 31.8152 16.0935 32.0048 16.0935ZM35 55.5478C34.2164 55.5478 33.5816 54.8979 33.5816 54.0944C33.5816 53.2909 34.2164 52.6423 35 52.6423C35.7836 52.6423 36.4184 53.2909 36.4184 54.0944C36.4184 54.8979 35.7836 55.5478 35 55.5478ZM45.2252 51.625H24.7748V18.6059H45.2252V51.625Z" fill="white"/>
</svg>
