<svg width="22" height="22" viewBox="0 0 22 22" fill="none" xmlns="http://www.w3.org/2000/svg">
<path d="M8.27202 20.693L20.2145 9.65225C22.5952 7.45219 22.5952 3.85128 20.2145 1.65123C17.3596 -0.988844 13.4636 -0.0639215 11.6108 1.65123L1.08601 11.3809L1.79483 12.0364L12.2708 2.30675C13.7178 0.89692 17.0517 0.0842458 19.5594 2.30675C21.5344 4.12966 21.5344 7.17382 19.5594 8.99673L7.61697 20.0374C6.09666 21.4428 3.66711 21.4428 2.20057 20.0374C0.680265 18.6321 0.680265 16.3871 2.20057 15.0312L12.3685 5.5799C13.3316 4.6909 14.9496 4.6909 15.9127 5.5799C16.8757 6.4689 16.8757 7.96404 15.9127 8.85305L7.0548 17.0427L7.76362 17.6982L16.6215 9.51306C17.9903 8.2514 17.9903 6.19053 16.6215 4.92886C15.2527 3.6672 13.0285 3.6672 11.6597 4.92886L1.43798 14.3756C-1.09424 16.7149 0.250084 19.6513 1.43798 20.7379C3.0365 22.2824 6.32642 22.5697 8.27202 20.693Z" fill="#6A6A6A"/>
</svg>
