<svg width="37" height="37" viewBox="0 0 37 37" fill="none" xmlns="http://www.w3.org/2000/svg">
<g clip-path="url(#clip0)">
<path d="M36.0088 14.1486C36.7816 13.3757 36.7816 12.1227 36.0086 11.3497L34.9988 10.3399L32.5846 11.2844L33.4943 8.83535L28.4213 3.76221L24.5261 6.02461L26.5088 1.84974L24.8271 0.168015C24.0541 -0.605057 22.801 -0.605055 22.0282 0.167816L12.8615 9.33445L26.8421 23.3152L36.0088 14.1486Z" fill="black"/>
<path d="M0.762396 35.4061L0.770582 35.4143C1.73505 36.3788 2.96519 36.76 4.32803 36.5169C7.08265 36.0253 9.97096 33.0363 12.0541 28.5209C12.632 27.2683 13.4516 26.5633 14.5603 26.3655C16.688 25.9858 19.3819 27.5377 20.9844 29.1403C21.3201 29.476 21.8645 29.4759 22.2001 29.1402L23.866 27.4742L21.4048 25.0131C21.0851 24.6934 21.0851 24.1752 21.4048 23.8555C21.7245 23.5358 22.2427 23.5358 22.5623 23.8555L25.0235 26.3167L25.6403 25.6999C25.9762 25.364 25.9762 24.8198 25.6405 24.484L11.6924 10.5359C11.3569 10.2003 10.8126 10.2004 10.4767 10.5361L7.03632 13.9764C6.70075 14.3121 6.70065 14.8564 7.03622 15.1922C8.63877 16.7947 10.1907 19.4887 9.81101 21.6164C9.61332 22.7249 8.90825 23.5445 7.65564 24.1224C3.14021 26.2056 0.151266 29.0938 -0.340353 31.8484C-0.583366 33.2114 -0.20207 34.4416 0.762396 35.4061ZM2.33729 31.7214C2.92206 31.1366 3.87026 31.1366 4.45522 31.7214C5.0399 32.3063 5.0399 33.2545 4.45522 33.8393C3.87036 34.4242 2.92216 34.4242 2.33729 33.8393C1.75242 33.2545 1.75242 32.3063 2.33729 31.7214Z" fill="black"/>
<g clip-path="url(#clip1)">
<path d="M36.0088 14.1486C36.7816 13.3757 36.7816 12.1227 36.0086 11.3497L34.9988 10.3399L32.5846 11.2844L33.4943 8.83536L28.4213 3.76222L24.5261 6.02462L26.5088 1.84975L24.8271 0.168024C24.0541 -0.605048 22.801 -0.605046 22.0282 0.167825L12.8615 9.33446L26.8421 23.3152L36.0088 14.1486Z" fill="black"/>
<path d="M0.762379 35.4061L0.770565 35.4143C1.73503 36.3788 2.96517 36.76 4.32801 36.5169C7.08263 36.0253 9.97094 33.0363 12.0541 28.5209C12.632 27.2683 13.4516 26.5633 14.5603 26.3655C16.688 25.9858 19.3819 27.5377 20.9844 29.1403C21.3201 29.476 21.8645 29.4759 22.2001 29.1402L23.866 27.4742L21.4048 25.0131C21.0851 24.6934 21.0851 24.1752 21.4048 23.8555C21.7245 23.5358 22.2427 23.5358 22.5623 23.8555L25.0235 26.3167L25.6403 25.6999C25.9762 25.364 25.9762 24.8198 25.6405 24.484L11.6924 10.5359C11.3569 10.2003 10.8126 10.2004 10.4767 10.5361L7.0363 13.9764C6.70073 14.3121 6.70063 14.8564 7.0362 15.1922C8.63875 16.7947 10.1907 19.4887 9.81099 21.6164C9.6133 22.7249 8.90823 23.5445 7.65562 24.1224C3.14019 26.2056 0.151249 29.0938 -0.34037 31.8484C-0.583383 33.2114 -0.202087 34.4416 0.762379 35.4061ZM2.33727 31.7214C2.92204 31.1366 3.87024 31.1366 4.4552 31.7214C5.03988 32.3063 5.03988 33.2545 4.4552 33.8393C3.87034 34.4242 2.92214 34.4242 2.33727 33.8393C1.7524 33.2545 1.7524 32.3063 2.33727 31.7214Z" fill="black"/>
</g>
</g>
<defs>
<clipPath id="clip0">
<rect x="37" y="37" width="37" height="37" transform="rotate(-180 37 37)" fill="white"/>
</clipPath>
<clipPath id="clip1">
<rect width="37" height="37" fill="white"/>
</clipPath>
</defs>
</svg>
