<svg width="37" height="37" viewBox="0 0 37 37" fill="none" xmlns="http://www.w3.org/2000/svg">
<path d="M37 22.2863V19.4736H0V22.2863C0 23.4216 1.24503 24.6666 2.38036 24.6666H35.2694C36.4041 24.6666 37 23.4215 37 22.2863Z" fill="#0D0D0D"/>
<path d="M36.3828 18.1754L29.5975 12.3333H8.20428L1.18079 18.1754H36.3828ZM26.1013 12.6942C26.2597 12.6987 26.7699 13.1499 27.4339 13.9301C28.4913 15.1719 29.6209 16.8544 29.2158 16.8122C28.8172 16.77 27.4086 15.0908 26.6116 13.8866C26.1071 13.1245 25.9436 12.689 26.1013 12.6942ZM18.4812 13.8003C18.5501 13.1045 18.7104 12.7721 18.8604 12.8565C19.0116 12.9415 19.1764 13.464 19.2505 14.2534C19.3679 15.5107 19.2317 17.0557 18.8688 16.8207C18.511 16.5889 18.3735 14.8999 18.4812 13.8003ZM10.4373 13.9295C11.1014 13.1499 11.6116 12.6988 11.7699 12.6936C11.9277 12.689 11.7641 13.1239 11.2597 13.886C10.4626 15.0895 9.05403 16.7694 8.65543 16.8116C8.25044 16.8538 9.37987 15.1713 10.4373 13.9295Z" fill="#0D0D0D"/>
</svg>
