<svg width="0" height="0" class="hidden">
  <symbol viewBox="0 0 30 30" fill="none" xmlns="http://www.w3.org/2000/svg" id="i-catalog-13">
    <g clip-path="url(#clip0)" fill="#FFC800">
      <path d="M22.5 20a3.754 3.754 0 0 0-3.75-3.75h-2.5V10a1.25 1.25 0 0 0 1.04-.556l2.129-3.194H10.58l2.129 3.194a1.25 1.25 0 0 0 1.04.556v6.25h-2.5A3.754 3.754 0 0 0 7.5 20v7.5H3.75V30h5A1.25 1.25 0 0 0 10 28.75V20a1.252 1.252 0 0 1 1.25-1.25h2.5V30h2.5V18.75h2.5A1.252 1.252 0 0 1 20 20v8.75A1.25 1.25 0 0 0 21.25 30h5v-2.5H22.5V20zm6.25-20H1.25C.56 0 0 .56 0 1.25v2.5C0 4.44.56 5 1.25 5h27.5C29.44 5 30 4.44 30 3.75v-2.5C30 .56 29.44 0 28.75 0z"></path>
    </g>
    <defs>
      <clipPath id="clip0">
        <path fill="#fff" d="M0 0h30v30H0z"></path>
      </clipPath>
    </defs>
  </symbol>
  <symbol viewBox="0 0 38 38" fill="none" xmlns="http://www.w3.org/2000/svg" id="i-catalog-14">
    <g clip-path="url(#clip0)" fill="#FFC800">
      <path d="M3.95 22.918v13.283h4.33V38h2.562v-1.8h16.317V38h2.562v-1.8h4.329V22.918H3.95zm9.66 7.516a1.327 1.327 0 1 1-.001-2.653 1.327 1.327 0 0 1 0 2.653zm10.781 0a1.327 1.327 0 1 1 0-2.653 1.327 1.327 0 0 1 0 2.653zM31.902 4.16H30.62c-2.12 0-3.66-.938-5.291-1.931C23.613 1.184 21.667 0 19 0s-4.613 1.184-6.33 2.23c-1.631.992-3.172 1.93-5.291 1.93H6.098v16.196h25.804V4.16zm-19.829 6.157L18.15 4.24l1.812 1.811-6.076 6.076-1.812-1.811zM22.5 5.857l1.812 1.811-6.076 6.076-1.812-1.812L22.5 5.857zm-2.648 12.237l-1.812-1.812 6.076-6.076 1.811 1.812-6.075 6.076z"></path>
    </g>
    <defs>
      <clipPath id="clip0">
        <path fill="#fff" d="M0 0h38v38H0z"></path>
      </clipPath>
    </defs>
  </symbol>
  <symbol viewBox="0 0 38 19" fill="none" xmlns="http://www.w3.org/2000/svg" id="i-catalog-15">
    <path fill-rule="evenodd" clip-rule="evenodd" d="M.679 0h1.357c.374 0 .678.304.678.679V18.32a.679.679 0 0 1-.678.679H.679A.679.679 0 0 1 0 18.321V.68A.68.68 0 0 1 .679 0zM4.27 6.985a.679.679 0 0 1 .48-.2h2.036v5.43H4.07v-4.75a.68.68 0 0 1 .199-.48zm-.199 6.587h29.857v2.714H4.071v-2.714zm4.16-5.19L30.787.097c.438-.16.931-.113 1.372.131.441.245.794.667.98 1.174l.702 1.91-24.205 8.892-1.403-3.822zm29.09-2.953h-1.357a.679.679 0 0 0-.678.678v12.215c0 .374.304.678.678.678h1.358a.679.679 0 0 0 .678-.678V6.107a.679.679 0 0 0-.678-.678zM20.346 8.522l.48-.167a.254.254 0 0 1 .324.156l1.5 4.318a.254.254 0 0 1-.157.324l-.481.166a.254.254 0 0 1-.324-.156l-1.5-4.318a.254.254 0 0 1 .158-.323z"
      fill="#FFC800"></path>
  </symbol>
  <symbol viewBox="0 0 38 26" fill="none" xmlns="http://www.w3.org/2000/svg" id="i-catalog-16">
    <path d="M38 15.68v-1.465a.9.9 0 0 1-.528.743l-.692.397-.579.334-9.563 5.514a1.857 1.857 0 0 1-.24.114h-.03l-.17.059h-.067l-.11.025h-.936l-.202-.03h-.386l-.135-.05-.055-.025-.169-.085L1.803 8.245 1.38 8l-.845-.502-.067-.043-.064-.042-.05-.042L.3 7.329l-.047-.03-.076-.08-.03-.042-.041-.064-.026-.042-.025-.055v-.257 1.465H0v3.095a.422.422 0 0 0 .25.359.89.89 0 0 0 .143.067h.03l.109.034h.684l.05.042h.056c.06-.02.12-.045.177-.076l.042-.025.042-.034.106-.063.055-.06.025-.033.021-.05a.306.306 0 0 0 0-.043.3.3 0 0 0 0-.05V9.71l22.294 12.954.168.084.051.021.14.051h.097v1.934a.422.422 0 0 0 .249.359.89.89 0 0 0 .143.067l.11.034h.849c.06-.02.12-.045.177-.076l.042-.025.042-.034.047-.034.055-.059.025-.034.021-.05v-.043a.329.329 0 0 0 0-.05v-2.01c.083-.033.163-.07.24-.114l9.678-5.548v1.49a.422.422 0 0 0 .25.36.93.93 0 0 0 .143.067l.11.034h.819c.072-.023.141-.052.207-.09l.042-.024.042-.034.047-.038.054-.06.026-.037.02-.051a.33.33 0 0 0 0-.042.33.33 0 0 0 0-.05L38 15.68z"
      fill="#FFC800"></path>
    <path d="M5.008 8.65a.262.262 0 0 0 0 .494l.713.422a.942.942 0 0 0 .845 0l11.67-6.755a.262.262 0 0 0 0-.494l-.714-.422a.942.942 0 0 0-.844 0L5.008 8.65zM1.84 6.839a.262.262 0 0 0 0 .494l.714.422a.942.942 0 0 0 .845 0L15.069.999a.262.262 0 0 0 0-.494L14.355.1a.942.942 0 0 0-.844 0L1.84 6.84zm6.309 3.635a.262.262 0 0 0 0 .494l.718.43a.942.942 0 0 0 .844 0l11.675-6.755a.262.262 0 0 0 0-.494l-.718-.422a.941.941 0 0 0-.845 0L8.15 10.474zm3.145 1.828a.262.262 0 0 0 0 .494l.735.423a.937.937 0 0 0 .844 0l11.67-6.756a.262.262 0 0 0 0-.494l-.734-.422a.942.942 0 0 0-.845 0l-11.67 6.755zm3.163 1.841a.26.26 0 0 0-.127.399.262.262 0 0 0 .127.095l.718.422a.942.942 0 0 0 .844 0l11.67-6.755a.262.262 0 0 0 0-.494l-.717-.422a.937.937 0 0 0-.845 0l-11.67 6.755zm3.146 1.824a.262.262 0 0 0 0 .494l.717.422a.943.943 0 0 0 .845 0l11.657-6.751a.261.261 0 0 0 0-.494l-.717-.422a.938.938 0 0 0-.845 0l-11.657 6.751zm3.145 1.829a.262.262 0 0 0 0 .494l.718.422a.942.942 0 0 0 .844 0l11.67-6.756a.261.261 0 0 0 0-.494l-.717-.422a.942.942 0 0 0-.845 0l-11.67 6.756zm3.146 1.828a.262.262 0 0 0 0 .494l.718.422a.937.937 0 0 0 .844 0l11.67-6.756a.262.262 0 0 0 0-.494l-.718-.422a.941.941 0 0 0-.844 0l-11.67 6.756z"
      fill="#FFC800"></path>
  </symbol>
  <symbol viewBox="0 0 34 34" fill="none" xmlns="http://www.w3.org/2000/svg" id="i-catalog-17">
    <g clip-path="url(#clip0)" fill="#FFC800">
      <path d="M26.852 7.148c.637.246 1.218.62 1.703 1.106l.783.785V5.658c0-.538-.458-.996-.996-.996h-3.381l.785.782c.486.486.86 1.066 1.106 1.704zm2.486 21.062v-3.382l-.782.785a4.91 4.91 0 0 1-1.704 1.107 4.908 4.908 0 0 1-1.106 1.703l-.785.782h3.381c.538 0 .996-.458.996-.996zM5.577 25.613l-.783-.785v3.381c0 .538.458.996.996.996h3.382l-.786-.782a4.902 4.902 0 0 1-1.106-1.704 4.908 4.908 0 0 1-1.703-1.106zM7.28 7.148a4.908 4.908 0 0 1 1.106-1.704l.785-.782h-3.38c-.539 0-.997.458-.997.996v3.38l.783-.784A4.905 4.905 0 0 1 7.28 7.148zm.503 8.789h2.894l1.409-1.408V13.36L7.82 9.098c-.3.14-.588.318-.835.565l-.2.2v5.08a1 1 0 0 0 .997.995zm4.303 3.401l-1.409-1.408H7.783a.999.999 0 0 0-.996.996v5.08l.199.2c.247.246.534.425.835.564l4.265-4.264v-1.168zm4.98-13.899c.538-.479 1.235-.79 1.992-.79h3.088L17.764.231a.963.963 0 0 0-1.395 0l-4.383 4.416h3.088c.757 0 1.454.313 1.992.79zm9.284 10.498a.999.999 0 0 0 .996-.996v-5.08l-.2-.2a2.868 2.868 0 0 0-.834-.564l-4.265 4.264v1.167l1.409 1.41h2.894zm-7.291-1.992a.995.995 0 0 1-.704-.292l-1.288-1.287-1.289 1.287a.994.994 0 0 1-.704.292h-.996v.996a.995.995 0 0 1-.292.705L12.5 16.933l1.288 1.288a1 1 0 0 1 .291.705v.996h.997c.264 0 .517.105.704.292l1.288 1.288 1.288-1.288a.995.995 0 0 1 .704-.292h.996v-.996c0-.265.105-.518.292-.705l1.288-1.288-1.289-1.287a.996.996 0 0 1-.291-.705v-.996h-.996zm8.088 10.26l.199-.2v-5.08a.999.999 0 0 0-.996-.995h-2.895l-1.408 1.408v1.167l4.264 4.265c.302-.14.589-.318.836-.565zM18.063 7.65v2.894l1.408 1.41h1.167l4.265-4.266a2.87 2.87 0 0 0-.565-.835l-.2-.2h-5.08a.999.999 0 0 0-.995.997zm6.275 19.364a2.87 2.87 0 0 0 .565-.835l-4.265-4.265h-1.167l-1.409 1.409v2.894a1 1 0 0 0 .997.996h5.08l.199-.199zm5.014-12.073c0 .777-.313 1.475-.79 1.993.478.518.79 1.215.79 1.992v3.088l4.415-4.383a.963.963 0 0 0 0-1.395l-4.415-4.383v3.088zm-14.69-2.988l1.408-1.409V7.65a.999.999 0 0 0-.996-.996h-5.08l-.2.199a2.866 2.866 0 0 0-.564.835l4.264 4.265h1.168zm2.404 21.981c.26 0 .518-.1.697-.3l4.383-4.415h-3.088a2.935 2.935 0 0 1-1.992-.79 2.936 2.936 0 0 1-1.992.79h-3.088l4.383 4.416c.18.2.438.299.697.299zm-7.072-6.721h5.08a.999.999 0 0 0 .996-.996v-2.894l-1.408-1.409h-1.168L9.23 26.18c.14.301.318.588.565.835l.2.2zm-5.212-5.2v-3.087c0-.777.312-1.474.79-1.992a2.936 2.936 0 0 1-.79-1.993v-3.088L.365 16.236a.963.963 0 0 0 0 1.395l4.417 4.382z"></path>
    </g>
    <defs>
      <clipPath id="clip0">
        <path fill="#fff" d="M0 0h34v34H0z"></path>
      </clipPath>
    </defs>
  </symbol>
  <symbol viewBox="0 0 38 19" fill="none" xmlns="http://www.w3.org/2000/svg" id="i-catalog-18">
    <path d="M0 0v16.733h5.466V19H8.7v-2.267h20.6V19h3.234v-2.267H38V0H0zm19 9.448c-.925 0-2.917-.748-2.917-1.671S18.075 6.105 19 6.105c.925 0 2.812.749 2.812 1.672 0 .923-1.887 1.671-2.812 1.671z" fill="#FFC800"></path>
  </symbol>
  <symbol viewBox="0 0 38 38" fill="none" xmlns="http://www.w3.org/2000/svg" id="i-catalog-19">
    <path d="M13.608 24.916h11.069V28.7H13.608v-3.785zm0 4.676h11.069v6.283H13.608v-6.283zm21.744-8.71h-9.785v14.993h9.785a1.04 1.04 0 0 0 1.04-1.039V21.921a1.04 1.04 0 0 0-1.04-1.04zm-1.064 1.781H28.05a.445.445 0 0 1 0-.89h6.237a.445.445 0 0 1 0 .89zm-20.68-1.781h11.069v3.143H13.608v-3.143zM1.703 21.92v12.916a1.04 1.04 0 0 0 1.039 1.04h9.976V20.881H2.742a1.04 1.04 0 0 0-1.04 1.039zm2.696-.148h6.237a.446.446 0 0 1 0 .891H4.399a.445.445 0 0 1 0-.89zM16.908 7.947h4.131V9.91h-4.13V7.947zm-3.68-5.822h11.449v4.931H13.228V2.125zM25.567 9.91h10.73V2.125h-10.73V9.91zm3.785-1.65h4.025a.445.445 0 1 1 0 .891h-4.025a.445.445 0 1 1 0-.89zm-13.72 5.425h6.683L21.18 10.8h-4.415l-1.134 2.885zm-3.294-11.56H1.608V9.91h10.73V2.125zM9.03 9.15H5.005a.445.445 0 0 1 0-.89H9.03a.445.445 0 0 1 0 .89z"
      fill="#FFC800"></path>
  </symbol>
  <symbol viewBox="0 0 38 38" fill="none" xmlns="http://www.w3.org/2000/svg" id="i-catalog-20">
    <path fill-rule="evenodd" clip-rule="evenodd" d="M19 38c10.493 0 19-8.507 19-19S29.493 0 19 0 0 8.507 0 19s8.507 19 19 19zm2.65-18.27c.6.168 1.218.253 1.856.253.738 0 1.365-.112 1.88-.335.515-.223.9-.523 1.154-.9.261-.384.392-.807.392-1.268 0-.538-.142-.965-.427-1.28a2.458 2.458 0 0 0-1.003-.692 13.154 13.154 0 0 0-1.511-.438c-.592-.131-1.034-.262-1.327-.393-.284-.138-.426-.346-.426-.622 0-.277.123-.5.369-.67.253-.169.642-.253 1.165-.253.745 0 1.491.211 2.237.634l.577-1.418c-.37-.231-.8-.408-1.292-.531a6.208 6.208 0 0 0-1.51-.185c-.739 0-1.366.112-1.88.335-.508.223-.889.527-1.143.911-.253.377-.38.8-.38 1.269 0 .538.138.969.415 1.291.284.323.623.558 1.015.704.392.146.896.292 1.51.438.4.093.716.177.947.254.238.077.43.18.576.312.154.123.231.28.231.472 0 .262-.127.473-.38.635-.254.154-.647.23-1.177.23-.477 0-.954-.076-1.43-.23a4.302 4.302 0 0 1-1.234-.611l-.635 1.407c.362.277.838.503 1.43.68zm-10.964-4.084c.461.146.823.392 1.084.738.261.339.392.758.392 1.258 0 .707-.277 1.253-.83 1.637-.546.377-1.346.566-2.4.566H4.758V11.77h3.945c.984 0 1.738.188 2.26.565.531.377.797.888.797 1.534 0 .392-.097.742-.289 1.05-.184.307-.446.55-.784.726zm-4.072-2.468v1.903h1.857c.462 0 .812-.08 1.05-.242.238-.162.358-.4.358-.715 0-.316-.12-.55-.358-.704-.238-.161-.588-.242-1.05-.242H6.614zm2.18 5.26c.492 0 .862-.081 1.108-.243.253-.161.38-.411.38-.75 0-.669-.496-1.003-1.488-1.003h-2.18v1.995h2.18zm10.803-.093v1.5h-6.25V11.77h6.1v1.5h-4.244v1.752h3.749v1.454h-3.749v1.868h4.395zm9.94-5.052h-2.583v-1.522h7.036v1.522h-2.584v6.552h-1.868v-6.552zm-24.71 13.24a4.03 4.03 0 0 0 1.088.148c.432 0 .799-.065 1.1-.196.303-.13.528-.306.676-.527.153-.225.23-.473.23-.743 0-.315-.083-.565-.25-.75a1.44 1.44 0 0 0-.588-.405 7.725 7.725 0 0 0-.885-.257 4.288 4.288 0 0 1-.777-.23c-.166-.08-.25-.202-.25-.364 0-.162.073-.293.217-.392.148-.1.376-.149.682-.149.437 0 .874.124 1.31.372l.338-.831a2.613 2.613 0 0 0-.756-.31 3.633 3.633 0 0 0-.885-.109c-.433 0-.8.065-1.101.196a1.49 1.49 0 0 0-.67.534 1.3 1.3 0 0 0-.222.743c0 .315.08.567.243.756.167.19.365.327.595.412.23.086.524.171.885.257.234.054.418.104.553.149.14.045.253.106.338.182a.34.34 0 0 1 .135.277c0 .153-.074.277-.223.372-.148.09-.378.135-.689.135-.279 0-.558-.045-.837-.135a2.52 2.52 0 0 1-.723-.358l-.372.824c.212.162.491.295.838.398zm7.368.067v-.878H9.621v-1.095h2.196v-.85H9.62v-1.028h2.486v-.878H8.534V26.6h3.661zm.736-4.729h1.094v3.837h2.371v.892h-3.465v-4.73zm5.036 0h-1.094V26.6h3.465v-.892h-2.37v-3.837zm6.51 3.85v.879h-3.662v-4.73h3.573v.878h-2.486v1.027h2.196v.851h-2.195v1.095h2.573zm2.836-.438l.912 1.317H29.4l-1.06-1.52c.31-.135.55-.329.716-.581.171-.257.257-.56.257-.912 0-.351-.084-.655-.25-.912a1.618 1.618 0 0 0-.716-.595c-.307-.14-.67-.209-1.088-.209h-2.047V26.6h1.094v-1.317h1.007zm.635-2.304c.171.14.257.342.257.608 0 .261-.086.464-.257.608-.171.144-.421.216-.75.216h-.892v-1.648h.892c.329 0 .579.072.75.216zm3.65 3.702c-.373 0-.736-.05-1.087-.149a2.585 2.585 0 0 1-.838-.398l.372-.824c.202.148.443.268.722.358.28.09.559.135.838.135.31 0 .54-.045.69-.135.148-.095.222-.219.222-.372a.34.34 0 0 0-.135-.277.927.927 0 0 0-.338-.182 6.388 6.388 0 0 0-.554-.149 7.706 7.706 0 0 1-.885-.257 1.464 1.464 0 0 1-.594-.412c-.162-.189-.243-.441-.243-.756a1.3 1.3 0 0 1 .223-.743c.148-.226.371-.404.668-.534.302-.13.67-.196 1.102-.196.301 0 .596.036.884.108.289.072.54.176.757.31l-.338.832c-.437-.248-.873-.372-1.31-.372-.306 0-.534.05-.683.149a.455.455 0 0 0-.216.392c0 .162.084.283.25.364.171.077.43.154.777.23.36.086.655.171.885.257.23.085.426.22.588.405.167.185.25.435.25.75 0 .27-.077.518-.23.743-.148.22-.374.397-.675.527-.302.13-.67.196-1.102.196z"
      fill="#FFC800"></path>
  </symbol>
  <symbol viewBox="0 0 33 33" fill="none" xmlns="http://www.w3.org/2000/svg" id="i-catalog-1">
    <g clip-path="url(#clip0)" fill="#FFC800">
      <path d="M6.333 28.875l-2.208 1.472v1.278A1.375 1.375 0 0 0 5.5 33h22a1.375 1.375 0 0 0 1.375-1.375v-1.278l-2.208-1.472H6.333z"></path>
      <path d="M28.875 16.5H4.125A4.13 4.13 0 0 0 0 20.625v8.25a1.388 1.388 0 0 0 2.138 1.144L5.916 27.5h21.168l3.778 2.519A1.389 1.389 0 0 0 33 28.875v-8.25a4.13 4.13 0 0 0-4.125-4.125zm0-8.25a4.13 4.13 0 0 0-4.125-4.125H8.25A4.13 4.13 0 0 0 4.125 8.25v6.875h24.75V8.25zm-13.75 4.125a1.375 1.375 0 0 1-1.375 1.375h-5.5a1.375 1.375 0 0 1-1.375-1.375v-2.75A1.375 1.375 0 0 1 8.25 8.25h5.5a1.375 1.375 0 0 1 1.375 1.375v2.75zm11 0a1.375 1.375 0 0 1-1.375 1.375h-5.5a1.375 1.375 0 0 1-1.375-1.375v-2.75A1.375 1.375 0 0 1 19.25 8.25h5.5a1.375 1.375 0 0 1 1.375 1.375v2.75z"></path>
    </g>
    <defs>
      <clipPath id="clip0">
        <path fill="#fff" d="M0 0h33v33H0z"></path>
      </clipPath>
    </defs>
  </symbol>
  <symbol viewBox="0 0 38 38" fill="none" xmlns="http://www.w3.org/2000/svg" id="i-catalog-2">
    <path d="M38 22.889V20H0v2.889c0 1.166 1.279 2.444 2.445 2.444h33.778c1.165 0 1.777-1.278 1.777-2.444zm-.634-4.222l-6.969-6H8.426l-7.213 6h36.153zm-10.56-5.63c.163.005.687.468 1.37 1.27 1.085 1.275 2.245 3.003 1.83 2.96-.41-.044-1.857-1.768-2.675-3.005-.518-.783-.686-1.23-.524-1.225zm-7.825 1.136c.07-.714.235-1.056.389-.969.155.087.325.624.4 1.435.121 1.291-.019 2.878-.391 2.636-.368-.238-.509-1.972-.398-3.102zm-8.262.133c.682-.8 1.206-1.264 1.369-1.27.162-.004-.006.443-.524 1.225-.819 1.236-2.265 2.962-2.675 3.005-.416.043.744-1.685 1.83-2.96z"
      fill="#FFC800"></path>
  </symbol>
  <symbol viewBox="0 0 38 22" fill="none" xmlns="http://www.w3.org/2000/svg" id="i-catalog-3">
    <path fill-rule="evenodd" clip-rule="evenodd" d="M36.417 0H1.583c-.42 0-.822.166-1.12.46A1.565 1.565 0 0 0 0 1.571V22h3.167v-6.286h31.666V22H38V1.571c0-.416-.167-.816-.464-1.11A1.59 1.59 0 0 0 36.416 0zM3.167 12.571H19V9.43H3.167v3.142zm0-6.285H19V3.143H3.167v3.143zM27.62 9.164a1.592 1.592 0 0 0 2-.196 1.566 1.566 0 0 0-.514-2.563 1.595 1.595 0 0 0-1.726.341 1.568 1.568 0 0 0-.343 1.713c.12.287.323.532.583.705z"
      fill="#FFC800"></path>
  </symbol>
  <symbol viewBox="0 0 26 27" fill="none" xmlns="http://www.w3.org/2000/svg" id="i-catalog-4">
    <path d="M4 21h18V3H4v18zm13.099-10.5c.843 0 1.527.938 1.527 1.56 0 .621-.684 1.44-1.527 1.44-.844 0-1.528-.82-1.528-1.441 0-.62.684-1.559 1.528-1.559z" fill="#FFC800"></path>
    <path d="M26 27V0H0v27h3.9v-2.893h18.2V27H26zM3.9 22.178H2.6V1.93h20.8v20.249H3.9z" fill="#FFC800"></path>
  </symbol>
  <symbol viewBox="0 0 38 38" fill="none" xmlns="http://www.w3.org/2000/svg" id="i-catalog-5">
    <path d="M6.91 32.473h10.363v-4.146H6.909v4.146zm5.44-3.066a.864.864 0 1 1 0 1.728.864.864 0 0 1 0-1.729zm-5.44-3.843h10.363v-4.146H6.909v4.146zm5.44-3.067a.864.864 0 1 1 0 1.728.864.864 0 0 1 0-1.728zm8.377 9.976h10.364V4.836H20.727v27.637zm1.987-15.503a.864.864 0 1 1 0 1.728.864.864 0 0 1 0-1.728zM6.91 18.655h10.363V4.836H6.909v13.819zm8.204-7.212a.864.864 0 1 1-.001 1.728.864.864 0 0 1 0-1.728z"
      fill="#FFC800"></path>
    <path d="M3.454 33.855V38h2.073v-2.073h12.437V38h2.072v-2.073h12.437V38h2.072V2.073H3.455v31.782zm16.582-29.71h11.746v29.019H20.036V4.145zm-13.818 0h11.745v15.2H6.219v-15.2zm0 16.582h11.745v5.527H6.219v-5.527zm0 6.91h11.745v5.527H6.219v-5.528zM3.454 1.382h31.091L35.927 0H2.073l1.381 1.382z"
      fill="#FFC800"></path>
  </symbol>
  <symbol viewBox="0 0 38 38" fill="none" xmlns="http://www.w3.org/2000/svg" id="i-catalog-6">
    <g clip-path="url(#clip0)">
      <path d="M37.112 7.863H.888A.888.888 0 0 0 0 8.751v1.83c0 .49.398.889.888.889h1.169v16.139a1.867 1.867 0 0 0-.977 1.64c0 .49.397.887.888.887h1.957a.888.888 0 0 0 .882-.998 1.866 1.866 0 0 0-.974-1.528v-3.9h17.322v5.518c0 .49.397.888.888.888h12.698c.49 0 .888-.398.888-.888V11.47h1.483c.49 0 .888-.397.888-.888v-1.83a.888.888 0 0 0-.888-.888zM33.05 17.91v9.196h-9.118V17.91h9.118zm-9.118-2.63v-3.29h9.118v3.29h-9.118zm-20.099-1.8v-2.01h17.322v2.01H3.833z"
        fill="#FFC800"></path>
    </g>
    <defs>
      <clipPath id="clip0">
        <path fill="#fff" d="M0 0h38v38H0z"></path>
      </clipPath>
    </defs>
  </symbol>
  <symbol viewBox="0 0 27 39" fill="none" xmlns="http://www.w3.org/2000/svg" id="i-catalog-7">
    <path fill-rule="evenodd" clip-rule="evenodd" d="M2 2v17.483h.169v-6.506h2.168v6.506h1.085v-6.506H7.59v6.506h2.085l-2.007-5.019 2.013-.805 2.169 5.421-1.007.403h1.168V2H2zm10.011-2H1.018C.455 0 0 .455 0 1.017v36.899A1.084 1.084 0 0 0 1.084 39h3.253a1.084 1.084 0 0 0 1.085-1.084v-5.422h15.18v5.422A1.084 1.084 0 0 0 21.686 39h3.253a1.084 1.084 0 0 0 1.084-1.084V1.017C26.023.455 25.568 0 25.006 0H12.011zm2 2v17.483h4.422a2.169 2.169 0 0 1-2.169-2.169v-3.252a1.084 1.084 0 0 1 1.085-1.085h4.337a2.168 2.168 0 0 1 2.168 2.169v1.084a2.169 2.169 0 0 1-2.168 2.169h-.294a2.169 2.169 0 0 1-1.875 1.084h4.506V2H14.012zM2.486 21.97c.064-.065.135-.12.212-.166h9.784a1.085 1.085 0 0 1 .53.932 1.084 1.084 0 0 1 .529-.932h9.784a1.085 1.085 0 0 1 .53.932v6.505a1.084 1.084 0 0 1-1.085 1.085h-8.674a1.084 1.084 0 0 1-1.085-1.085 1.084 1.084 0 0 1-1.084 1.085H3.253a1.084 1.084 0 0 1-1.084-1.085v-6.505c0-.288.114-.564.317-.767zm19.967-7.59a1.084 1.084 0 0 0-.767-.319v3.253a1.084 1.084 0 0 0 1.084-1.084v-1.084c0-.288-.114-.564-.317-.767zm-19.2 14.862h8.674v-6.506H3.253v6.506zm4.337-4.338a1.085 1.085 0 1 1 0 2.17 1.085 1.085 0 0 1 0-2.17zm6.506-2.168v6.506h8.674v-6.506h-8.674zm4.337 2.168a1.085 1.085 0 1 1 0 2.17 1.085 1.085 0 0 1 0-2.17z"
      fill="#FFC800"></path>
  </symbol>
  <symbol viewBox="0 0 38 38" fill="none" xmlns="http://www.w3.org/2000/svg" id="i-catalog-8">
    <path d="M6.33 31.797h25.34v3.923H6.33v-3.923zm0-.894l12.164.003-.003-7.308c0-.815-.681-1.48-1.519-1.48H5.822c-.837 0-1.518.665-1.518 1.48v4.274a2.758 2.758 0 0 1 2.026 2.64v.391zm7.742-6.627a.66.66 0 1 1 0 1.32.66.66 0 0 1 0-1.32zm0 3.15a.66.66 0 1 1 0 1.321.66.66 0 0 1 0-1.32zm-5.346-3.15a.66.66 0 1 1 0 1.321.66.66 0 0 1 0-1.32zm0 3.15a.66.66 0 1 1 0 1.322.66.66 0 0 1 0-1.321zm-5.19 1.23c-1.05 0-1.903.833-1.903 1.856v6.617h3.806v-6.617c0-1.023-.853-1.856-1.903-1.856zm29.97-5.058c0-.815-.682-1.48-1.52-1.48H20.9a1.502 1.502 0 0 0-1.404.947c-.076.19-.113.391-.11.595l-.002 7.247 12.286.003v-.398a2.754 2.754 0 0 1 1.836-2.58v-4.334zm-9.734 5.15a.66.66 0 1 1 0-1.32.66.66 0 0 1 0 1.32zm0-3.15a.661.661 0 1 1 0-1.323.661.661 0 0 1 0 1.323zm5.345 3.15a.66.66 0 1 1 0-1.32.66.66 0 0 1 0 1.32zm0-3.15a.661.661 0 1 1 0-1.323.661.661 0 0 1 0 1.323zm5.347 3.058c-1.05 0-1.903.832-1.903 1.856v6.617h3.806v-6.617c0-1.023-.853-1.856-1.903-1.856zM6.808 7.118V1.316a.445.445 0 0 0-.89 0v5.802a.445.445 0 1 0 .89 0z"
      fill="#FFC800"></path>
    <path d="M9.508 10.708a3.145 3.145 0 1 0-6.289 0v.272h6.29v-.272zM5.618 9.21c-.325.23-.603.518-.82.851a.445.445 0 1 1-.746-.486 4.034 4.034 0 0 1 1.05-1.092.445.445 0 0 1 .516.727zm.829 3.049a.777.777 0 0 0 .66-.388H5.788a.778.778 0 0 0 .66.388zm4.955 5.776h8.395l-4.043-3.925-4.352 3.925zm9.453-.215l.22.215h5.953l-3.055-2.61-3.118 2.395zm-.61-4.106a1.04 1.04 0 1 0 0-2.079 1.04 1.04 0 0 0 0 2.079z"
      fill="#FFC800"></path>
    <path d="M30.76 18.035V7.437H8.723a4.032 4.032 0 0 1 1.675 3.27v.719a.445.445 0 0 1-.445.445H8.066a1.75 1.75 0 0 1-.827 1.07v5.094h2.833l5.394-4.866a.445.445 0 0 1 .609.011l4.134 4.014 3.508-2.695a.445.445 0 0 1 .56.014l4.123 3.522h2.36zm-10.516-3.43a1.93 1.93 0 1 1 0-3.86 1.93 1.93 0 0 1 0 3.86z"
      fill="#FFC800"></path>
  </symbol>
  <symbol viewBox="0 0 38 25" fill="none" xmlns="http://www.w3.org/2000/svg" id="i-catalog-9">
    <path d="M20.357 23.749a.679.679 0 0 0 .679.679h4.071a.679.679 0 0 0 .679-.679v-2.036h-5.429v2.036zm-17.642 0a.679.679 0 0 0 .679.679h4.071a.679.679 0 0 0 .679-.679v-2.036H2.715v2.036zm8.819-16.963H6.106a.679.679 0 0 0-.679.678v2.715c0 .374.304.678.679.678h5.428a.679.679 0 0 0 .679-.678V7.464a.679.679 0 0 0-.679-.678z"
      fill="#FFC800"></path>
    <path d="M4.072 10.178V7.464a2.036 2.036 0 0 1 2.036-2.036h5.428a2.036 2.036 0 0 1 2.036 2.036v2.714a2.013 2.013 0 0 1-.125.679h1.607a2.013 2.013 0 0 1-.125-.679V7.464a2.036 2.036 0 0 1 2.036-2.036h5.428a2.036 2.036 0 0 1 2.036 2.036v2.714a2.01 2.01 0 0 1-.125.679h1.482V2.036A2.036 2.036 0 0 0 23.75 0h-19a2.036 2.036 0 0 0-2.035 2.036v8.82h1.482a2.013 2.013 0 0 1-.125-.678zm22.392 2.035H2.036A2.036 2.036 0 0 0 0 14.25v3.393h28.5V14.25a2.036 2.036 0 0 0-2.036-2.036z"
      fill="#FFC800"></path>
    <path d="M22.392 6.786h-5.429a.679.679 0 0 0-.678.678v2.715c0 .374.303.678.678.678h5.429a.679.679 0 0 0 .678-.678V7.464a.679.679 0 0 0-.678-.678zM0 19.678a.678.678 0 0 0 .679.679H27.82a.678.678 0 0 0 .678-.679V19H0v.678zm32.571-2.036H38v-5.429h-5.43v5.429zm.679-3.393h1.357v1.357H33.25V14.25zm-.679 10.179H38V19h-5.43v5.428zm.679-3.393h1.357v1.357H33.25v-1.357zM37.4 1.358h-4.23l-.509 4.071h5.248L37.4 1.358zm-2.794 5.428h1.357v4.071h-1.357V6.786z"
      fill="#FFC800"></path>
  </symbol>
  <symbol viewBox="0 0 34 34" fill="none" xmlns="http://www.w3.org/2000/svg" id="i-catalog-10">
    <path d="M23.8 10.2H10.2v3.4h13.6v-3.4zm0-2.833a.567.567 0 0 0-.567-.567H10.767a.566.566 0 0 0-.567.567v1.7h13.6v-1.7zM13.6 28.333h.567v.567a.567.567 0 1 0 1.133 0v-1.133a.566.566 0 0 0-.567-.567H13.6a.566.566 0 1 0 0 1.133zm6.8-1.133h-1.133a.566.566 0 0 0-.567.567V28.9a.566.566 0 1 0 1.133 0v-.567h.567a.566.566 0 1 0 0-1.133zm8.5-14.733h-.567v3.966h.567v-3.966z"
      fill="#FFC800"></path>
    <path d="M24.933 16.433H27.2V11.9c0-.313.254-.567.567-.567h3.4c.312 0 .566.254.566.567v4.533H34v-6.8h-9.067v6.8z" fill="#FFC800"></path>
    <path d="M30.6 12.467h-.567v3.966h.567v-3.966zm-1.133 5.1h-4.534V20.4h-4.637c.063-.178.104-.367.104-.567 0-.937-.763-1.7-1.7-1.7h-1.133V17h5.666a.566.566 0 0 0 .567-.567v-1.7H10.2v1.7c0 .314.254.567.567.567h5.666v1.133H15.3c-.937 0-1.7.763-1.7 1.7 0 .2.04.39.105.567H9.067v-2.833H0v6.8h2.267v-4.534c0-.313.254-.566.566-.566h3.4c.313 0 .567.253.567.566v4.534h1.133V25.5H0v7.367c0 .313.254.566.567.566H27.2v-5.1a.567.567 0 1 1 1.133 0v5.1h.567v-5.1a.567.567 0 1 1 1.133 0v5.1h.567v-5.1a.566.566 0 1 1 1.133 0v5.1h1.7a.566.566 0 0 0 .567-.566V25.5h-7.933v-1.133H34v-6.8h-4.533zm-14.167 1.7h3.4a.567.567 0 0 1 0 1.133h-3.4a.567.567 0 0 1 0-1.133zM16.433 32.3H9.067v-6.233h7.366V32.3zm8.5 0h-7.366v-6.233h7.366V32.3zm0-7.933v.566h-3.4V23.8c0-.625-.508-1.133-1.133-1.133h-6.8c-.625 0-1.133.508-1.133 1.133v1.133h-3.4v-3.4h15.866v2.834zm8.5-23.8H25.5a.567.567 0 0 0-.567.566V8.5H34V1.133a.567.567 0 0 0-.567-.566z"
      fill="#FFC800"></path>
    <path d="M5.667 23.8H3.4v.567h2.267V23.8zm0-3.4H3.4v.567h2.267V20.4zm0 1.7H3.4v.567h2.267V22.1zM2.833 7.368a.566.566 0 1 1 0-1.134h3.4a.566.566 0 1 1 0 1.134V8.5h2.834V1.134A.566.566 0 0 0 8.5.568H.567A.566.566 0 0 0 0 1.134v7.367h2.833V7.368z"
      fill="#FFC800"></path>
    <path d="M5.1 7.367H3.967V8.5H5.1V7.367zm3.967 2.266H0v6.8h9.067v-6.8z" fill="#FFC800"></path>
  </symbol>
  <symbol viewBox="0 0 34 34" fill="none" xmlns="http://www.w3.org/2000/svg" id="i-catalog-11">
    <path d="M26.631 15.767h-8.634v2.97h8.634v-2.97zm-10.627 0H7.369v2.97h8.635v-2.97z" fill="#FFC800"></path>
    <path d="M29.753 9.106c-1.227 0-1.896-.491-2.743-1.113-.949-.696-2.024-1.485-3.87-1.485-1.138 0-1.846-.408-2.667-.881-.695-.402-1.462-.843-2.476-.986v-1.29h-1.993v1.29c-1.015.142-1.781.584-2.477.985-.82.473-1.529.882-2.666.882-1.846 0-2.922.789-3.87 1.485-.848.622-1.517 1.113-2.744 1.113h-.996v9.8c.395-.109.81-.169 1.24-.169h.885v-4.963h23.248v4.963h.886c.43 0 .845.06 1.24.17v-9.8h-.997zm4.081 18.156a2.194 2.194 0 0 0-1.668-1.325v-2.66h-.002a2.66 2.66 0 0 0-2.655-2.547H4.491a2.66 2.66 0 0 0-2.655 2.546h-.002v2.66A2.194 2.194 0 0 0 0 28.097a2.19 2.19 0 0 0 1.192 1.947v.606h1.992v-1.838h27.632v1.838h1.992v-.607a2.19 2.19 0 0 0 1.026-2.78zM17 26.819c-.59 0-1.483-.31-1.483-.775 0-.466.892-.775 1.483-.775.59 0 1.483.309 1.483.775s-.892.775-1.483.775z"
      fill="#FFC800"></path>
  </symbol>
  <symbol viewBox="0 0 38 38" fill="none" xmlns="http://www.w3.org/2000/svg" id="i-catalog-12">
    <path d="M27.778 25.628c-.213-1.21-1.26-1.768-2.246-1.768h-.354v-1.846l.32-1.868c.787-4.578 1.864-10.85 2.303-14.978.125-1.166-.176-2.104-.905-2.866C25.108.442 21.298.057 18.991 0c-2.302.057-6.113.442-7.9 2.298-.733.761-1.03 1.699-.906 2.866.499 4.683 1.856 12.327 2.623 16.924v1.767h-.356c-.99 0-2.04.56-2.25 1.767h-.036v.369c0 .026-.007.047-.007.073 0 .027.006.048.007.074V38h2.651v-9.721h.884v7.07h2.65v-7.07h5.303v7.07h2.651v-7.07h.884v9.72h2.651v-12.37h-.063zm-5.25-1.768h-7.07v-1.767h7.07v1.767z"
      fill="#FFC800"></path>
  </symbol>
</svg>