<svg width="34" height="34" fill="none" xmlns="http://www.w3.org/2000/svg"><path d="M23.8 10.2H10.2v3.4h13.6v-3.4zM23.8 7.3667a.5665.5665 0 00-.5667-.5667H10.7666a.5664.5664 0 00-.5666.5667v1.7h13.6v-1.7zM13.6 28.3333h.5666v.5666c0 .3134.2539.5667.5667.5667a.5665.5665 0 00.5666-.5667v-1.1333a.5664.5664 0 00-.5666-.5666H13.6a.5665.5665 0 00-.5667.5666c0 .3134.2539.5667.5667.5667zM20.3999 27.2h-1.1333a.5664.5664 0 00-.5666.5666v1.1333c0 .3134.2538.5667.5666.5667a.5665.5665 0 00.5666-.5667v-.5666h.5667a.5664.5664 0 00.5666-.5666.5665.5665 0 00-.5666-.5667zM28.9 12.4668h-.5666v3.9666H28.9v-3.9666z" fill="#FFC800"/><path d="M24.9333 16.4333H27.2v-4.5334a.5665.5665 0 01.5666-.5666h3.4a.5665.5665 0 01.5667.5666v4.5334H34v-6.8h-9.0667v6.8z" fill="#FFC800"/><path d="M30.6 12.4668h-.5667v3.9666H30.6v-3.9666zM29.4666 17.5667h-4.5333V20.4h-4.6376c.0635-.1779.1043-.3666.1043-.5666 0-.9373-.7627-1.7-1.7-1.7h-1.1334V17h5.6667a.5664.5664 0 00.5666-.5666v-1.7H10.2v1.7c0 .3134.2539.5666.5666.5666h5.6667v1.1334H15.3c-.9373 0-1.7.7627-1.7 1.7 0 .2.0408.3887.1049.5666H9.0667v-2.8333H0v6.8h2.2666v-4.5334a.5665.5665 0 01.5667-.5666h3.4a.5665.5665 0 01.5666.5666v4.5334h1.1334V25.5H0v7.3667c0 .3134.2539.5666.5666.5666H27.2v-5.1a.5665.5665 0 01.5666-.5666.5665.5665 0 01.5667.5666v5.1h.5666v-5.1a.5665.5665 0 01.5667-.5666.5664.5664 0 01.5666.5666v5.1h.5667v-5.1a.5664.5664 0 01.5666-.5666.5665.5665 0 01.5667.5666v5.1h1.7a.5664.5664 0 00.5666-.5666V25.5h-7.9332v-1.1333H34v-6.8h-4.5334zm-14.1666 1.7h3.4a.5672.5672 0 01.5666.5666.5672.5672 0 01-.5666.5667h-3.4a.5672.5672 0 01-.5666-.5667.5672.5672 0 01.5666-.5666zM16.4334 32.3H9.0666v-6.2333h7.3667V32.3h.0001zm8.5 0h-7.3668v-6.2333h7.3667V32.3h.0001zm0-7.9333v.5666h-3.4V23.8c0-.625-.5083-1.1333-1.1334-1.1333h-6.8c-.625 0-1.1334.5083-1.1334 1.1333v1.1334h-3.4V21.5334h15.8668v2.8333zM33.4334.5666H25.5a.5665.5665 0 00-.5667.5667V8.5H34V1.1334a.5666.5666 0 00-.5666-.5667z" fill="#FFC800"/><path d="M5.6667 23.8H3.4v.5667h2.2667V23.8zM5.6667 20.4001H3.4v.5667h2.2667v-.5667zM5.6667 22.1001H3.4v.5666h2.2667v-.5666zM2.8334 7.3676a.5665.5665 0 01-.5667-.5667.5665.5665 0 01.5667-.5666H6.2333a.5665.5665 0 01.5666.5666.5665.5665 0 01-.5666.5667v1.1333h2.8333V1.1343A.5665.5665 0 008.5.5676H.5666A.5664.5664 0 000 1.1343v7.3666h2.8334V7.3676z" fill="#FFC800"/><path d="M5.1 7.3667H3.9667v1.1334H5.1V7.3666zM9.0666 9.6333H0v6.8h9.0666v-6.8z" fill="#FFC800"/></svg>