<svg width="34" height="34" fill="none" xmlns="http://www.w3.org/2000/svg"><g clip-path="url(#clip0)" fill="#FFC800"><path d="M26.8522 7.1478a4.9022 4.9022 0 011.7032 1.1059l.7827.7849V5.6578c0-.538-.4581-.996-.9961-.996h-3.3811l.7852.7825a4.9063 4.9063 0 011.1061 1.7035zM29.3383 28.2093v-3.3811l-.7826.7853a4.9095 4.9095 0 01-1.7032 1.106 4.9075 4.9075 0 01-1.1061 1.7032l-.785.7827h3.3808c.538 0 .9961-.4581.9961-.9961zM5.577 25.6133l-.7827-.7849v3.3807c0 .538.4581.9961.9961.9961H9.172l-.7857-.7826a4.902 4.902 0 01-1.1058-1.7032 4.9077 4.9077 0 01-1.7035-1.1061zM7.2801 7.1478a4.9081 4.9081 0 011.1061-1.7035l.7852-.7826h-3.381c-.538 0-.996.4581-.996.9961v3.381l.7825-.7851a4.905 4.905 0 011.7032-1.1059zM7.7827 15.9373h2.8947l1.4085-1.4085v-1.1673L7.8211 9.0967c-.3009.1395-.588.318-.8353.565l-.1992.1994v5.0801c0 .5577.4581.9961.9961.9961zM12.0859 19.3384l-1.4085-1.4086H7.7827c-.538 0-.996.4381-.996.9961v5.0801l.1991.1992c.2473.2472.5344.4254.8353.5652l4.2648-4.2647v-1.1673zM17.0663 5.4386c.5377-.4781 1.235-.7901 1.9922-.7901h3.0879L17.7636.2325c-.3788-.3985-1.0161-.3985-1.3946 0l-4.3828 4.416h3.0879c.7569 0 1.4542.312 1.9922.79zM26.3499 15.9373c.538 0 .9961-.4384.9961-.9961v-5.08l-.1992-.1996c-.2472-.2469-.5341-.4254-.835-.565l-4.2648 4.2649v1.167l1.4085 1.4088h2.8944zM19.0589 13.9452a.9953.9953 0 01-.7043-.2918l-1.2879-1.2879-1.2882 1.2879a.9941.9941 0 01-.704.2918h-.9961v.9961a.9948.9948 0 01-.2921.7043l-1.2876 1.2879 1.2879 1.2879a.9957.9957 0 01.2918.7043v.9961h.9961a.9945.9945 0 01.704.2918l1.2882 1.2879 1.2879-1.2879a.9952.9952 0 01.7043-.2918h.9961v-.9961c0-.2646.105-.5175.2918-.7043l1.2879-1.2879-1.2882-1.2879a.9963.9963 0 01-.2915-.7043v-.9961h-.9961zM27.1468 24.2052l.1992-.1995v-5.0798c0-.558-.4581-.9961-.9961-.9961h-2.8944l-1.4085 1.4086v1.167l4.2645 4.2648c.3012-.1396.5881-.318.8353-.565zM18.0625 7.6499v2.8944l1.4085 1.4088h1.1673l4.2646-4.2648c-.1396-.301-.318-.588-.565-.8353l-.1995-.1992h-5.0798c-.558 0-.9961.4581-.9961.9961zM24.3379 27.0141c.247-.2472.4254-.5341.5652-.8353l-4.2648-4.2645H19.471l-1.4085 1.4085v2.8944c0 .538.4381.9961.9961.9961h5.0801l.1992-.1992zM29.3517 14.9414c0 .7769-.3123 1.4742-.7904 1.9922.4783.518.7904 1.2153.7904 1.9922v3.0879l4.4157-4.3828c.3985-.3785.3985-1.0161 0-1.3946l-4.4157-4.3828v3.0879zM14.6617 11.9531l1.4085-1.4086V7.6499c0-.538-.4383-.996-.996-.996H9.9941l-.1995.1991c-.247.2472-.4254.5341-.565.8353l4.2648 4.2648h1.1673zM17.0663 33.9337c.2589 0 .5178-.0996.697-.2991l4.3828-4.4158h-3.0876c-.7772 0-1.4744-.312-1.9922-.7901-.518.4781-1.2153.7901-1.9922.7901h-3.0879l4.3828 4.4158c.1793.1995.4382.2991.6973.2991zM9.994 27.2133h5.0802c.5577 0 .996-.4581.996-.9961v-2.8944l-1.4085-1.4085h-1.1673l-4.2648 4.2648c.1396.3009.318.5878.5653.8353l.1992.1989zM4.7815 22.0134v-3.0876c0-.7769.312-1.4742.7901-1.9922-.478-.518-.7901-1.2153-.7901-1.9922v-3.0879l-4.416 4.3828c-.3985.3785-.3985 1.0158 0 1.3943l4.416 4.3828z"/></g><defs><clipPath id="clip0"><path fill="#fff" d="M0 0h34v34H0z"/></clipPath></defs></svg>