<svg width="38" height="38" fill="none" xmlns="http://www.w3.org/2000/svg"><path d="M6.909 32.4728h10.3637v-4.1454H6.9091v4.1454zm5.441-3.0663c.4767 0 .8636.387.8636.8637a.8639.8639 0 01-.8636.8636.8639.8639 0 01-.8636-.8636c0-.4767.3869-.8637.8636-.8637zM6.909 25.5637h10.3637v-4.1455H6.9091v4.1455zm5.441-3.0663c.4767 0 .8636.3869.8636.8637a.8639.8639 0 01-.8636.8636.8639.8639 0 01-.8636-.8636c0-.4768.3869-.8637.8636-.8637zM20.7273 32.4728H31.091V4.8364H20.7273v27.6364zm1.9863-15.5027c.4768 0 .8637.3869.8637.8636a.864.864 0 01-.8637.8637c-.4767 0-.8636-.3869-.8636-.8637 0-.4767.387-.8636.8636-.8636zM6.909 18.6546h10.3637V4.8364H6.9091v13.8182zm8.2046-7.2118c.4767 0 .8636.387.8636.8637a.864.864 0 01-.8636.8636.864.864 0 01-.8636-.8636c0-.4767.3869-.8637.8636-.8637z" fill="#FFC800"/><path d="M3.4545 33.8545V38h2.0727v-2.0728h12.4364V38h2.0727v-2.0728h12.4364V38h2.0727V2.0727H3.4544v31.7818zm16.5818-29.709h11.7454v29.0181H20.0363V4.1454zm-13.8182 0h11.7454v15.1999H6.2181v-15.2zm0 16.5817h11.7454v5.5273H6.2181v-5.5273zm0 6.9091h11.7454v5.5273H6.2181v-5.5273zM3.4545 1.3818h31.0909L35.9272 0H2.0728l1.3817 1.3818z" fill="#FFC800"/></svg>