<svg width="27" height="39" fill="none" xmlns="http://www.w3.org/2000/svg"><path fill-rule="evenodd" clip-rule="evenodd" d="M2 2v17.4829h.1687v-6.5057h2.1685v6.5057h1.0843v-6.5057h2.1686v6.5057h2.085l-2.0075-5.0187 2.0135-.8054 2.1686 5.4215-1.0067.4026h1.1685V2H2zm10.0115-2H1.0165C.4551 0 0 .4551 0 1.0165v36.8993a1.0841 1.0841 0 001.0844 1.0843h3.2528a1.084 1.084 0 001.0843-1.0843v-5.4214h15.18v5.4214a1.0843 1.0843 0 001.0843 1.0843h3.2529a1.0843 1.0843 0 001.0843-1.0843V20.5672l-.0001-.0141V1.0165C26.0229.4551 25.5678 0 25.0064 0H12.0115zm2 2v17.4829h4.4215a2.1686 2.1686 0 01-2.1686-2.1685v-3.2529a1.0841 1.0841 0 011.0843-1.0843h4.3371a2.1684 2.1684 0 012.1686 2.1686v1.0843a2.1686 2.1686 0 01-2.1686 2.1686h-.2934a2.169 2.169 0 01-1.8752 1.0842h4.5057V2H14.0115zM2.4863 21.9691a1.086 1.086 0 01.2117-.1648h9.7842a1.085 1.085 0 01.5293.9315 1.0843 1.0843 0 01.5293-.9315h9.7843a1.085 1.085 0 01.5293.9315v6.5057a1.084 1.084 0 01-.3176.7667 1.084 1.084 0 01-.7667.3176h-8.6743a1.0841 1.0841 0 01-1.0843-1.0843 1.084 1.084 0 01-.3176.7667 1.084 1.084 0 01-.7667.3176H3.253a1.084 1.084 0 01-1.0843-1.0843v-6.5057c0-.2876.1142-.5634.3176-.7667zm19.9662-7.59a1.0843 1.0843 0 00-.7667-.3176v3.2529a1.0843 1.0843 0 001.0843-1.0843v-1.0843a1.084 1.084 0 00-.3176-.7667zM3.2528 29.2416h8.6743v-6.5057H3.2529v6.5057zM7.59 24.9045a1.0846 1.0846 0 011.0017.6693 1.0844 1.0844 0 01-1.4166 1.4167 1.084 1.084 0 01-.6694-1.0018A1.0845 1.0845 0 017.59 24.9045zm6.506-2.1686v6.5057h8.6743v-6.5057H14.096zm4.3372 2.1686a1.0847 1.0847 0 011.0017.6693 1.0847 1.0847 0 01-.7902 1.4784 1.0845 1.0845 0 01-1.2958-1.0635 1.0843 1.0843 0 011.0843-1.0842z" fill="#FFC800"/></svg>