<svg width="34" height="34" fill="none" xmlns="http://www.w3.org/2000/svg"><g clip-path="url(#clip0)" fill="#FFC800"><path d="M26.852 7.148c.637.246 1.218.62 1.703 1.106l.783.785V5.658c0-.538-.458-.996-.996-.996h-3.381l.785.782c.486.486.86 1.066 1.106 1.704zm2.486 21.062v-3.382l-.782.785a4.91 4.91 0 0 1-1.704 1.107 4.908 4.908 0 0 1-1.106 1.703l-.785.782h3.381c.538 0 .996-.458.996-.996zM5.577 25.613l-.783-.785v3.381c0 .538.458.996.996.996h3.382l-.786-.782a4.902 4.902 0 0 1-1.106-1.704 4.908 4.908 0 0 1-1.703-1.106zM7.28 7.148a4.908 4.908 0 0 1 1.106-1.704l.785-.782h-3.38c-.539 0-.997.458-.997.996v3.38l.783-.784A4.905 4.905 0 0 1 7.28 7.148zm.503 8.789h2.894l1.409-1.408V13.36L7.82 9.098c-.3.14-.588.318-.835.565l-.2.2v5.08a1 1 0 0 0 .997.995zm4.303 3.401l-1.409-1.408H7.783a.999.999 0 0 0-.996.996v5.08l.199.2c.247.246.534.425.835.564l4.265-4.264v-1.168zm4.98-13.899c.538-.479 1.235-.79 1.992-.79h3.088L17.764.231a.963.963 0 0 0-1.395 0l-4.383 4.416h3.088c.757 0 1.454.313 1.992.79zm9.284 10.498a.999.999 0 0 0 .996-.996v-5.08l-.2-.2a2.868 2.868 0 0 0-.834-.564l-4.265 4.264v1.167l1.409 1.41h2.894zm-7.291-1.992a.995.995 0 0 1-.704-.292l-1.288-1.287-1.289 1.287a.994.994 0 0 1-.704.292h-.996v.996a.995.995 0 0 1-.292.705L12.5 16.933l1.288 1.288a1 1 0 0 1 .291.705v.996h.997c.264 0 .517.105.704.292l1.288 1.288 1.288-1.288a.995.995 0 0 1 .704-.292h.996v-.996c0-.265.105-.518.292-.705l1.288-1.288-1.289-1.287a.996.996 0 0 1-.291-.705v-.996h-.996zm8.088 10.26l.199-.2v-5.08a.999.999 0 0 0-.996-.995h-2.895l-1.408 1.408v1.167l4.264 4.265c.302-.14.589-.318.836-.565zM18.063 7.65v2.894l1.408 1.41h1.167l4.265-4.266a2.87 2.87 0 0 0-.565-.835l-.2-.2h-5.08a.999.999 0 0 0-.995.997zm6.275 19.364a2.87 2.87 0 0 0 .565-.835l-4.265-4.265h-1.167l-1.409 1.409v2.894a1 1 0 0 0 .997.996h5.08l.199-.199zm5.014-12.073c0 .777-.313 1.475-.79 1.993.478.518.79 1.215.79 1.992v3.088l4.415-4.383a.963.963 0 0 0 0-1.395l-4.415-4.383v3.088zm-14.69-2.988l1.408-1.409V7.65a.999.999 0 0 0-.996-.996h-5.08l-.2.199a2.866 2.866 0 0 0-.564.835l4.264 4.265h1.168zm2.404 21.981c.26 0 .518-.1.697-.3l4.383-4.415h-3.088a2.935 2.935 0 0 1-1.992-.79 2.936 2.936 0 0 1-1.992.79h-3.088l4.383 4.416c.18.2.438.299.697.299zm-7.072-6.721h5.08a.999.999 0 0 0 .996-.996v-2.894l-1.408-1.409h-1.168L9.23 26.18c.14.301.318.588.565.835l.2.2zm-5.212-5.2v-3.087c0-.777.312-1.474.79-1.992a2.936 2.936 0 0 1-.79-1.993v-3.088L.365 16.236a.963.963 0 0 0 0 1.395l4.417 4.382z"/></g><defs><clipPath id="clip0"><path fill="#fff" d="M0 0h34v34H0z"/></clipPath></defs></svg>