<svg width="34" height="34" fill="none" xmlns="http://www.w3.org/2000/svg"><path d="M26.631 15.767h-8.634v2.97h8.634v-2.97zm-10.627 0H7.369v2.97h8.635v-2.97z" fill="#FFC800"/><path d="M29.753 9.106c-1.227 0-1.896-.491-2.743-1.113-.949-.696-2.024-1.485-3.87-1.485-1.138 0-1.846-.408-2.667-.881-.695-.402-1.462-.843-2.476-.986v-1.29h-1.993v1.29c-1.015.142-1.781.584-2.477.985-.82.473-1.529.882-2.666.882-1.846 0-2.922.789-3.87 1.485-.848.622-1.517 1.113-2.744 1.113h-.996v9.8c.395-.109.81-.169 1.24-.169h.885v-4.963h23.248v4.963h.886c.43 0 .845.06 1.24.17v-9.8h-.997zm4.081 18.156a2.194 2.194 0 0 0-1.668-1.325v-2.66h-.002a2.66 2.66 0 0 0-2.655-2.547H4.491a2.66 2.66 0 0 0-2.655 2.546h-.002v2.66A2.194 2.194 0 0 0 0 28.097a2.19 2.19 0 0 0 1.192 1.947v.606h1.992v-1.838h27.632v1.838h1.992v-.607a2.19 2.19 0 0 0 1.026-2.78zM17 26.819c-.59 0-1.483-.31-1.483-.775 0-.466.892-.775 1.483-.775.59 0 1.483.309 1.483.775s-.892.775-1.483.775z" fill="#FFC800"/></svg>