<svg width="38" height="38" fill="none" xmlns="http://www.w3.org/2000/svg"><g clip-path="url(#clip0)"><path d="M37.112 7.863H.888A.888.888 0 0 0 0 8.751v1.83c0 .49.398.889.888.889h1.169v16.139a1.867 1.867 0 0 0-.977 1.64c0 .49.397.887.888.887h1.957a.888.888 0 0 0 .882-.998 1.866 1.866 0 0 0-.974-1.528v-3.9h17.322v5.518c0 .49.397.888.888.888h12.698c.49 0 .888-.398.888-.888V11.47h1.483c.49 0 .888-.397.888-.888v-1.83a.888.888 0 0 0-.888-.888zM33.05 17.91v9.196h-9.118V17.91h9.118zm-9.118-2.63v-3.29h9.118v3.29h-9.118zm-20.099-1.8v-2.01h17.322v2.01H3.833z" fill="#FFC800"/></g><defs><clipPath id="clip0"><path fill="#fff" d="M0 0h38v38H0z"/></clipPath></defs></svg>