<svg width="38" height="22" fill="none" xmlns="http://www.w3.org/2000/svg"><path fill-rule="evenodd" clip-rule="evenodd" d="M36.417 0H1.583c-.42 0-.822.166-1.12.46A1.565 1.565 0 0 0 0 1.571V22h3.167v-6.286h31.666V22H38V1.571c0-.416-.167-.816-.464-1.11A1.59 1.59 0 0 0 36.416 0zM3.167 12.571H19V9.43H3.167v3.142zm0-6.285H19V3.143H3.167v3.143zM27.62 9.164a1.592 1.592 0 0 0 2-.196 1.566 1.566 0 0 0-.514-2.563 1.595 1.595 0 0 0-1.726.341 1.568 1.568 0 0 0-.343 1.713c.12.287.323.532.583.705z" fill="#FFC800"/></svg>