<svg width="38" height="19" fill="none" xmlns="http://www.w3.org/2000/svg"><path fill-rule="evenodd" clip-rule="evenodd" d="M.679 0h1.357c.374 0 .678.304.678.679V18.32a.679.679 0 0 1-.678.679H.679A.679.679 0 0 1 0 18.321V.68A.68.68 0 0 1 .679 0zM4.27 6.985a.679.679 0 0 1 .48-.2h2.036v5.43H4.07v-4.75a.68.68 0 0 1 .199-.48zm-.199 6.587h29.857v2.714H4.071v-2.714zm4.16-5.19L30.787.097c.438-.16.931-.113 1.372.131.441.245.794.667.98 1.174l.702 1.91-24.205 8.892-1.403-3.822zm29.09-2.953h-1.357a.679.679 0 0 0-.678.678v12.215c0 .374.304.678.678.678h1.358a.679.679 0 0 0 .678-.678V6.107a.679.679 0 0 0-.678-.678zM20.346 8.522l.48-.167a.254.254 0 0 1 .324.156l1.5 4.318a.254.254 0 0 1-.157.324l-.481.166a.254.254 0 0 1-.324-.156l-1.5-4.318a.254.254 0 0 1 .158-.323z" fill="#FFC800"/></svg>