<svg width="38" height="38" fill="none" xmlns="http://www.w3.org/2000/svg"><path d="M38 22.889V20H0v2.889c0 1.166 1.279 2.444 2.445 2.444h33.778c1.165 0 1.777-1.278 1.777-2.444zm-.634-4.222l-6.969-6H8.426l-7.213 6h36.153zm-10.56-5.63c.163.005.687.468 1.37 1.27 1.085 1.275 2.245 3.003 1.83 2.96-.41-.044-1.857-1.768-2.675-3.005-.518-.783-.686-1.23-.524-1.225zm-7.825 1.136c.07-.714.235-1.056.389-.969.155.087.325.624.4 1.435.121 1.291-.019 2.878-.391 2.636-.368-.238-.509-1.972-.398-3.102zm-8.262.133c.682-.8 1.206-1.264 1.369-1.27.162-.004-.006.443-.524 1.225-.819 1.236-2.265 2.962-2.675 3.005-.416.043.744-1.685 1.83-2.96z" fill="#FFC800"/></svg>