<svg width="38" height="38" fill="none" xmlns="http://www.w3.org/2000/svg"><path d="M6.91 32.473h10.363v-4.146H6.909v4.146zm5.44-3.066a.864.864 0 1 1 0 1.728.864.864 0 0 1 0-1.729zm-5.44-3.843h10.363v-4.146H6.909v4.146zm5.44-3.067a.864.864 0 1 1 0 1.728.864.864 0 0 1 0-1.728zm8.377 9.976h10.364V4.836H20.727v27.637zm1.987-15.503a.864.864 0 1 1 0 1.728.864.864 0 0 1 0-1.728zM6.91 18.655h10.363V4.836H6.909v13.819zm8.204-7.212a.864.864 0 1 1-.001 1.728.864.864 0 0 1 0-1.728z" fill="#FFC800"/><path d="M3.454 33.855V38h2.073v-2.073h12.437V38h2.072v-2.073h12.437V38h2.072V2.073H3.455v31.782zm16.582-29.71h11.746v29.019H20.036V4.145zm-13.818 0h11.745v15.2H6.219v-15.2zm0 16.582h11.745v5.527H6.219v-5.527zm0 6.91h11.745v5.527H6.219v-5.528zM3.454 1.382h31.091L35.927 0H2.073l1.381 1.382z" fill="#FFC800"/></svg>