<svg width="38" height="38" fill="none" xmlns="http://www.w3.org/2000/svg"><path d="M27.778 25.628c-.213-1.21-1.26-1.768-2.246-1.768h-.354v-1.846l.32-1.868c.787-4.578 1.864-10.85 2.303-14.978.125-1.166-.176-2.104-.905-2.866C25.108.442 21.298.057 18.991 0c-2.302.057-6.113.442-7.9 2.298-.733.761-1.03 1.699-.906 2.866.499 4.683 1.856 12.327 2.623 16.924v1.767h-.356c-.99 0-2.04.56-2.25 1.767h-.036v.369c0 .026-.007.047-.007.073 0 .027.006.048.007.074V38h2.651v-9.721h.884v7.07h2.65v-7.07h5.303v7.07h2.651v-7.07h.884v9.72h2.651v-12.37h-.063zm-5.25-1.768h-7.07v-1.767h7.07v1.767z" fill="#FFC800"/></svg>