<svg width="33" height="33" fill="none" xmlns="http://www.w3.org/2000/svg"><g clip-path="url(#clip0)" fill="#FFC800"><path d="M6.333 28.875l-2.208 1.472v1.278A1.375 1.375 0 0 0 5.5 33h22a1.375 1.375 0 0 0 1.375-1.375v-1.278l-2.208-1.472H6.333z"/><path d="M28.875 16.5H4.125A4.13 4.13 0 0 0 0 20.625v8.25a1.388 1.388 0 0 0 2.138 1.144L5.916 27.5h21.168l3.778 2.519A1.389 1.389 0 0 0 33 28.875v-8.25a4.13 4.13 0 0 0-4.125-4.125zm0-8.25a4.13 4.13 0 0 0-4.125-4.125H8.25A4.13 4.13 0 0 0 4.125 8.25v6.875h24.75V8.25zm-13.75 4.125a1.375 1.375 0 0 1-1.375 1.375h-5.5a1.375 1.375 0 0 1-1.375-1.375v-2.75A1.375 1.375 0 0 1 8.25 8.25h5.5a1.375 1.375 0 0 1 1.375 1.375v2.75zm11 0a1.375 1.375 0 0 1-1.375 1.375h-5.5a1.375 1.375 0 0 1-1.375-1.375v-2.75A1.375 1.375 0 0 1 19.25 8.25h5.5a1.375 1.375 0 0 1 1.375 1.375v2.75z"/></g><defs><clipPath id="clip0"><path fill="#fff" d="M0 0h33v33H0z"/></clipPath></defs></svg>