<svg width="38" height="38" viewBox="0 0 38 38" fill="none" xmlns="http://www.w3.org/2000/svg">
<path d="M6.90906 32.4728H17.2727V28.3274H6.90906V32.4728ZM12.35 29.4065C12.8267 29.4065 13.2136 29.7935 13.2136 30.2702C13.2136 30.747 12.8267 31.1338 12.35 31.1338C11.8733 31.1338 11.4864 30.747 11.4864 30.2702C11.4864 29.7935 11.8733 29.4065 12.35 29.4065Z" fill="#FFC800"/>
<path d="M6.90906 25.5637H17.2727V21.4182H6.90906V25.5637ZM12.35 22.4974C12.8267 22.4974 13.2136 22.8843 13.2136 23.3611C13.2136 23.8379 12.8267 24.2247 12.35 24.2247C11.8733 24.2247 11.4864 23.8379 11.4864 23.3611C11.4864 22.8843 11.8733 22.4974 12.35 22.4974Z" fill="#FFC800"/>
<path d="M20.7273 32.4728H31.091V4.83643H20.7273V32.4728ZM22.7136 16.9701C23.1904 16.9701 23.5773 17.357 23.5773 17.8337C23.5773 18.3105 23.1904 18.6974 22.7136 18.6974C22.2369 18.6974 21.85 18.3105 21.85 17.8337C21.85 17.357 22.237 16.9701 22.7136 16.9701Z" fill="#FFC800"/>
<path d="M6.90906 18.6546H17.2727V4.83643H6.90906V18.6546ZM15.1136 11.4428C15.5903 11.4428 15.9772 11.8298 15.9772 12.3065C15.9772 12.7832 15.5903 13.1701 15.1136 13.1701C14.6369 13.1701 14.25 12.7832 14.25 12.3065C14.25 11.8298 14.6369 11.4428 15.1136 11.4428Z" fill="#FFC800"/>
<path d="M3.45447 33.8545V35.9272V38H5.52723V35.9272H17.9636V38H20.0363V35.9272H32.4727V38H34.5454V35.9272V33.8545V2.07275H3.45447V33.8545ZM20.0363 4.14544H31.7817V33.1636H20.0363V4.14544ZM6.2181 4.14544H17.9635V19.3454H6.2181V4.14544ZM6.2181 20.7272H17.9635V26.2545H6.2181V20.7272ZM6.2181 27.6363H17.9635V33.1636H6.2181V27.6363Z" fill="#FFC800"/>
<path d="M3.4545 1.38182H34.5454L35.9272 0H2.07275L3.4545 1.38182Z" fill="#FFC800"/>
</svg>
