<svg width="38" height="38" fill="none" xmlns="http://www.w3.org/2000/svg"><path fill-rule="evenodd" clip-rule="evenodd" d="M19 38c10.493 0 19-8.507 19-19S29.493 0 19 0 0 8.507 0 19s8.507 19 19 19zm2.65-18.27c.6.168 1.218.253 1.856.253.738 0 1.365-.112 1.88-.335.515-.223.9-.523 1.154-.9.261-.384.392-.807.392-1.268 0-.538-.142-.965-.427-1.28a2.458 2.458 0 0 0-1.003-.692 13.154 13.154 0 0 0-1.511-.438c-.592-.131-1.034-.262-1.327-.393-.284-.138-.426-.346-.426-.622 0-.277.123-.5.369-.67.253-.169.642-.253 1.165-.253.745 0 1.491.211 2.237.634l.577-1.418c-.37-.231-.8-.408-1.292-.531a6.208 6.208 0 0 0-1.51-.185c-.739 0-1.366.112-1.88.335-.508.223-.889.527-1.143.911-.253.377-.38.8-.38 1.269 0 .538.138.969.415 1.291.284.323.623.558 1.015.704.392.146.896.292 1.51.438.4.093.716.177.947.254.238.077.43.18.576.312.154.123.231.28.231.472 0 .262-.127.473-.38.635-.254.154-.647.23-1.177.23-.477 0-.954-.076-1.43-.23a4.302 4.302 0 0 1-1.234-.611l-.635 1.407c.362.277.838.503 1.43.68zm-10.964-4.084c.461.146.823.392 1.084.738.261.339.392.758.392 1.258 0 .707-.277 1.253-.83 1.637-.546.377-1.346.566-2.4.566H4.758V11.77h3.945c.984 0 1.738.188 2.26.565.531.377.797.888.797 1.534 0 .392-.097.742-.289 1.05-.184.307-.446.55-.784.726zm-4.072-2.468v1.903h1.857c.462 0 .812-.08 1.05-.242.238-.162.358-.4.358-.715 0-.316-.12-.55-.358-.704-.238-.161-.588-.242-1.05-.242H6.614zm2.18 5.26c.492 0 .862-.081 1.108-.243.253-.161.38-.411.38-.75 0-.669-.496-1.003-1.488-1.003h-2.18v1.995h2.18zm10.803-.093v1.5h-6.25V11.77h6.1v1.5h-4.244v1.752h3.749v1.454h-3.749v1.868h4.395zm9.94-5.052h-2.583v-1.522h7.036v1.522h-2.584v6.552h-1.868v-6.552zm-24.71 13.24a4.03 4.03 0 0 0 1.088.148c.432 0 .799-.065 1.1-.196.303-.13.528-.306.676-.527.153-.225.23-.473.23-.743 0-.315-.083-.565-.25-.75a1.44 1.44 0 0 0-.588-.405 7.725 7.725 0 0 0-.885-.257 4.288 4.288 0 0 1-.777-.23c-.166-.08-.25-.202-.25-.364 0-.162.073-.293.217-.392.148-.1.376-.149.682-.149.437 0 .874.124 1.31.372l.338-.831a2.613 2.613 0 0 0-.756-.31 3.633 3.633 0 0 0-.885-.109c-.433 0-.8.065-1.101.196a1.49 1.49 0 0 0-.67.534 1.3 1.3 0 0 0-.222.743c0 .315.08.567.243.756.167.19.365.327.595.412.23.086.524.171.885.257.234.054.418.104.553.149.14.045.253.106.338.182a.34.34 0 0 1 .135.277c0 .153-.074.277-.223.372-.148.09-.378.135-.689.135-.279 0-.558-.045-.837-.135a2.52 2.52 0 0 1-.723-.358l-.372.824c.212.162.491.295.838.398zm7.368.067v-.878H9.621v-1.095h2.196v-.85H9.62v-1.028h2.486v-.878H8.534V26.6h3.661zm.736-4.729h1.094v3.837h2.371v.892h-3.465v-4.73zm5.036 0h-1.094V26.6h3.465v-.892h-2.37v-3.837zm6.51 3.85v.879h-3.662v-4.73h3.573v.878h-2.486v1.027h2.196v.851h-2.195v1.095h2.573zm2.836-.438l.912 1.317H29.4l-1.06-1.52c.31-.135.55-.329.716-.581.171-.257.257-.56.257-.912 0-.351-.084-.655-.25-.912a1.618 1.618 0 0 0-.716-.595c-.307-.14-.67-.209-1.088-.209h-2.047V26.6h1.094v-1.317h1.007zm.635-2.304c.171.14.257.342.257.608 0 .261-.086.464-.257.608-.171.144-.421.216-.75.216h-.892v-1.648h.892c.329 0 .579.072.75.216zm3.65 3.702c-.373 0-.736-.05-1.087-.149a2.585 2.585 0 0 1-.838-.398l.372-.824c.202.148.443.268.722.358.28.09.559.135.838.135.31 0 .54-.045.69-.135.148-.095.222-.219.222-.372a.34.34 0 0 0-.135-.277.927.927 0 0 0-.338-.182 6.388 6.388 0 0 0-.554-.149 7.706 7.706 0 0 1-.885-.257 1.464 1.464 0 0 1-.594-.412c-.162-.189-.243-.441-.243-.756a1.3 1.3 0 0 1 .223-.743c.148-.226.371-.404.668-.534.302-.13.67-.196 1.102-.196.301 0 .596.036.884.108.289.072.54.176.757.31l-.338.832c-.437-.248-.873-.372-1.31-.372-.306 0-.534.05-.683.149a.455.455 0 0 0-.216.392c0 .162.084.283.25.364.171.077.43.154.777.23.36.086.655.171.885.257.23.085.426.22.588.405.167.185.25.435.25.75 0 .27-.077.518-.23.743-.148.22-.374.397-.675.527-.302.13-.67.196-1.102.196z" fill="#FFC800"/></svg>