<svg width="33" height="33" fill="none" xmlns="http://www.w3.org/2000/svg"><g clip-path="url(#clip0)" fill="#FFC800"><path d="M6.3326 28.875L4.125 30.3468v1.2782A1.3751 1.3751 0 005.5 33h22a1.3753 1.3753 0 001.375-1.375v-1.2782l-2.2076-1.4718H6.3326z"/><path d="M28.875 16.5H4.125A4.13 4.13 0 000 20.625v8.25a1.3881 1.3881 0 00.7327 1.2 1.3885 1.3885 0 001.405-.056L5.9162 27.5h21.1674l3.7785 2.519a1.3887 1.3887 0 001.405.056 1.3881 1.3881 0 00.7328-1.2v-8.25a4.13 4.13 0 00-4.125-4.125zM28.875 8.25a4.1296 4.1296 0 00-4.125-4.125H8.25A4.1297 4.1297 0 004.125 8.25v6.875h24.75V8.25zm-13.75 4.125a1.3753 1.3753 0 01-1.375 1.375h-5.5a1.3752 1.3752 0 01-1.375-1.375v-2.75A1.375 1.375 0 018.25 8.25h5.5a1.3751 1.3751 0 011.375 1.375v2.75zm11 0a1.3753 1.3753 0 01-1.375 1.375h-5.5a1.3753 1.3753 0 01-1.375-1.375v-2.75A1.3752 1.3752 0 0119.25 8.25h5.5a1.3751 1.3751 0 011.375 1.375v2.75z"/></g><defs><clipPath id="clip0"><path fill="#fff" d="M0 0h33v33H0z"/></clipPath></defs></svg>