<svg width="34" height="34" fill="none" xmlns="http://www.w3.org/2000/svg"><path d="M23.8 10.2H10.2v3.4h13.6v-3.4zm0-2.833a.567.567 0 0 0-.567-.567H10.767a.566.566 0 0 0-.567.567v1.7h13.6v-1.7zM13.6 28.333h.567v.567c0 .313.253.567.566.567a.567.567 0 0 0 .567-.567v-1.133a.566.566 0 0 0-.567-.567H13.6a.567.567 0 0 0-.567.567c0 .313.254.566.567.566zm6.8-1.133h-1.133a.566.566 0 0 0-.567.567V28.9c0 .313.254.567.567.567a.567.567 0 0 0 .566-.567v-.567h.567a.566.566 0 0 0 .567-.566.567.567 0 0 0-.567-.567zm8.5-14.733h-.567v3.966h.567v-3.966z" fill="#FFC800"/><path d="M24.933 16.433H27.2V11.9a.567.567 0 0 1 .567-.567h3.4a.567.567 0 0 1 .566.567v4.533H34v-6.8h-9.067v6.8z" fill="#FFC800"/><path d="M30.6 12.467h-.567v3.966h.567v-3.966zm-1.133 5.1h-4.534V20.4h-4.637c.063-.178.104-.367.104-.567 0-.937-.763-1.7-1.7-1.7h-1.133V17h5.666a.566.566 0 0 0 .567-.567v-1.7H10.2v1.7c0 .314.254.567.567.567h5.666v1.133H15.3c-.937 0-1.7.763-1.7 1.7 0 .2.04.39.105.567H9.067v-2.833H0v6.8h2.267v-4.534a.567.567 0 0 1 .566-.566h3.4a.567.567 0 0 1 .567.566v4.534h1.133V25.5H0v7.367c0 .313.254.566.567.566H27.2v-5.1a.567.567 0 0 1 .567-.566.567.567 0 0 1 .566.566v5.1h.567v-5.1a.567.567 0 0 1 .567-.566.566.566 0 0 1 .566.566v5.1h.567v-5.1a.566.566 0 0 1 .567-.566.567.567 0 0 1 .566.566v5.1h1.7a.566.566 0 0 0 .567-.566V25.5h-7.933v-1.133H34v-6.8h-4.533zm-14.167 1.7h3.4a.567.567 0 0 1 .567.566.567.567 0 0 1-.567.567h-3.4a.567.567 0 0 1-.567-.567.567.567 0 0 1 .567-.566zM16.433 32.3H9.067v-6.233h7.366V32.3zm8.5 0h-7.366v-6.233h7.366V32.3zm0-7.933v.566h-3.4V23.8c0-.625-.508-1.133-1.133-1.133h-6.8c-.625 0-1.133.508-1.133 1.133v1.133h-3.4v-3.4h15.866v2.834zm8.5-23.8H25.5a.567.567 0 0 0-.567.566V8.5H34V1.133a.567.567 0 0 0-.567-.566z" fill="#FFC800"/><path d="M5.667 23.8H3.4v.567h2.267V23.8zm0-3.4H3.4v.567h2.267V20.4zm0 1.7H3.4v.567h2.267V22.1zM2.833 7.368a.567.567 0 0 1-.566-.567.567.567 0 0 1 .566-.567h3.4a.567.567 0 0 1 .567.567.567.567 0 0 1-.567.567V8.5h2.834V1.134A.567.567 0 0 0 8.5.568H.567A.566.566 0 0 0 0 1.134v7.367h2.833V7.368z" fill="#FFC800"/><path d="M5.1 7.367H3.967V8.5H5.1V7.367zm3.967 2.266H0v6.8h9.067v-6.8z" fill="#FFC800"/></svg>