<svg width="34" height="34" fill="none" xmlns="http://www.w3.org/2000/svg"><path d="M26.631 15.767h-8.635v2.97h8.635v-2.97zm-10.627 0H7.369v2.97h8.635v-2.97z" fill="#FFC800"/><path d="M29.753 9.106c-1.227 0-1.896-.491-2.743-1.113-.949-.696-2.024-1.485-3.87-1.485-1.138 0-1.847-.408-2.667-.881-.696-.402-1.462-.843-2.477-.986v-1.29h-1.992v1.29c-1.015.142-1.781.584-2.477.986-.82.473-1.529.881-2.666.881-1.847 0-2.922.789-3.87 1.485-.848.622-1.517 1.113-2.744 1.113h-.996v9.8a4.637 4.637 0 0 1 1.24-.169h.885v-4.963h23.248v4.963h.886c.43 0 .845.06 1.24.17v-9.8h-.997zm4.081 18.156a2.194 2.194 0 0 0-1.668-1.325v-2.66h-.002a2.66 2.66 0 0 0-2.654-2.547H4.49a2.66 2.66 0 0 0-2.653 2.546h-.003v2.66a2.194 2.194 0 0 0-1.668 1.326 2.173 2.173 0 0 0-.166.834 2.19 2.19 0 0 0 1.192 1.947v.606h1.992v-1.838h27.632v1.838h1.992v-.607A2.19 2.19 0 0 0 34 28.096a2.173 2.173 0 0 0-.166-.834zM17 26.819c-.59 0-1.483-.31-1.483-.775 0-.466.892-.775 1.483-.775s1.483.309 1.483.775-.892.775-1.483.775z" fill="#FFC800"/></svg>