<svg width="34" height="34" fill="none" xmlns="http://www.w3.org/2000/svg"><path d="M26.6313 15.7666h-8.6348v2.9708h8.6348v-2.9708zM16.0038 15.7666H7.3689v2.9708h8.6349v-2.9708z" fill="#FFC800"/><path d="M29.7532 9.1061c-1.2267 0-1.896-.4912-2.7434-1.113-.9486-.6961-2.0239-1.4851-3.8704-1.4851-1.1374 0-1.8459-.4085-2.666-.8815-.6959-.4012-1.462-.8426-2.4769-.9853V3.3508h-1.9926V4.641c-1.0151.1425-1.781.5843-2.4769.9855-.8202.473-1.5286.8815-2.666.8815-1.8465 0-2.9217.789-3.8704 1.4852-.8474.6218-1.5167 1.113-2.7434 1.113h-.9964v9.8004a4.637 4.637 0 011.2399-.1692h.8856v-4.9635h23.2478v4.9635h.8856c.4294 0 .8449.0597 1.2398.1692V9.1061h-.9963zM33.8344 27.2616c-.2851-.6887-.9119-1.201-1.668-1.3247v-2.6606h-.0028c-.0583-1.4139-1.2262-2.5462-2.6541-2.5462H4.4905c-1.4278 0-2.5957 1.1324-2.654 2.5462h-.0028v2.6606c-.7561.1236-1.383.636-1.668 1.3247a2.173 2.173 0 00-.1657.834c0 .8477.4849 1.5838 1.1915 1.9469v.6065h1.9927v-1.8377h27.6315v1.8377h1.9927v-.6065c.7066-.3631 1.1915-1.0992 1.1915-1.9469a2.173 2.173 0 00-.1655-.834zM17 26.8187c-.5906 0-1.4834-.3091-1.4834-.775 0-.4658.8928-.7749 1.4834-.7749s1.4834.309 1.4834.7749c.0001.4659-.8927.775-1.4834.775z" fill="#FFC800"/></svg>