<svg width="38" height="38" fill="none" xmlns="http://www.w3.org/2000/svg"><path d="M27.7776 25.6279c-.2131-1.2107-1.2593-1.7674-2.2456-1.7674h-.3535v-1.847c.099-.5806.2041-1.193.3199-1.8673.7865-4.5786 1.8637-10.8495 2.3029-14.9782.1246-1.1665-.1767-2.104-.9058-2.8659C25.1087.4418 21.299.0566 18.9925 0c-2.3021.0566-6.1136.4418-7.9004 2.2976-.7335.7618-1.0304 1.6994-.9058 2.866.4984 4.6836 1.8558 12.3278 2.6229 16.9241v1.7674h-.3562c-.9898 0-2.0396.5603-2.2491 1.7674h-.0371v.3685c0 .0256-.007.0468-.007.0733 0 .0265.0062.0477.007.0733v11.8622h2.6512V28.279h.8837v7.0698h2.6512V28.279h5.3023v7.0698h2.6512V28.279h.8837v9.7209h2.6512v-12.372h-.0637zm-5.2503-1.7674h-7.0697V22.093h7.0697v1.7675z" fill="#FFC800"/></svg>