<svg width="30" height="30" fill="none" xmlns="http://www.w3.org/2000/svg"><g clip-path="url(#clip0)" fill="#FFC800"><path d="M22.5 20.0001a3.7542 3.7542 0 00-3.75-3.75h-2.5v-6.25a1.2499 1.2499 0 001.04-.5565L19.4189 6.25h-8.8378L12.71 9.4436A1.2506 1.2506 0 0013.75 10v6.25h-2.5a3.7543 3.7543 0 00-3.75 3.75v7.5H3.75v2.5h5a1.25 1.25 0 001.25-1.25v-8.75a1.2518 1.2518 0 01.3665-.8835 1.2518 1.2518 0 01.8835-.3665h2.5v11.25h2.5v-11.25h2.5c.3314.0004.6491.1322.8835.3665.2343.2344.3661.5521.3665.8835v8.75a1.2501 1.2501 0 001.25 1.25h5v-2.5H22.5v-7.5zM28.75 0H1.25C.5596 0 0 .5596 0 1.25v2.5C0 4.4404.5596 5 1.25 5h27.5C29.4404 5 30 4.4404 30 3.75v-2.5C30 .5596 29.4404 0 28.75 0z"/></g><defs><clipPath id="clip0"><path fill="#fff" d="M0 0h30v30H0z"/></clipPath></defs></svg>