<svg width="38" height="38" fill="none" xmlns="http://www.w3.org/2000/svg"><g clip-path="url(#clip0)" fill="#FFC800"><path d="M3.95 22.918v13.283h4.33V38h2.562v-1.8h16.317V38h2.562v-1.8h4.329V22.918H3.95zm9.66 7.516a1.327 1.327 0 1 1-.001-2.653 1.327 1.327 0 0 1 0 2.653zm10.781 0a1.327 1.327 0 1 1 0-2.653 1.327 1.327 0 0 1 0 2.653zm7.51-26.275h-1.28c-2.12 0-3.66-.938-5.291-1.93C23.613 1.184 21.667 0 19 0s-4.613 1.184-6.33 2.229c-1.631.993-3.172 1.93-5.291 1.93H6.098v16.197h25.804V4.16zm-19.828 6.158l6.076-6.076 1.812 1.811-6.076 6.076-1.812-1.811zM22.5 5.857l1.812 1.811-6.076 6.076-1.812-1.811L22.5 5.857zm-2.648 12.237l-1.812-1.812 6.076-6.076 1.811 1.812-6.075 6.076z"/></g><defs><clipPath id="clip0"><path fill="#fff" d="M0 0h38v38H0z"/></clipPath></defs></svg>