<svg width="38" height="38" fill="none" xmlns="http://www.w3.org/2000/svg"><g clip-path="url(#clip0)" fill="#FFC800"><path d="M3.9504 22.9182v13.2825h4.3293v1.7994h2.5618v-1.7993h16.3171v1.7993h2.5619v-1.7993h4.3291V22.9182H3.9504zm9.6588 7.5162c-.7329 0-1.327-.594-1.327-1.3268 0-.7327.5942-1.3269 1.327-1.3269s1.327.594 1.327 1.3269-.5941 1.3268-1.327 1.3268zm10.7818 0c-.733 0-1.3271-.594-1.3271-1.3268 0-.7327.5942-1.3269 1.3271-1.3269.7328 0 1.327.594 1.327 1.3269s-.5941 1.3268-1.327 1.3268zM31.9019 4.159H30.621c-2.1192 0-3.6599-.9375-5.291-1.93C23.6128 1.1842 21.6666 0 19 0s-4.6128 1.1842-6.3299 2.229c-1.6312.9926-3.1718 1.9301-5.2911 1.9301H6.098v16.1973h25.8038V4.1591h.0001zM12.0734 10.317l6.076-6.076 1.8115 1.8114-6.076 6.076-1.8115-1.8114zm10.426-4.4604l1.8115 1.8115-6.076 6.076-1.8115-1.8115 6.076-6.076zm-2.6489 12.2373l-1.8115-1.8115 6.076-6.076 1.8114 1.8115-6.0759 6.076z"/></g><defs><clipPath id="clip0"><path fill="#fff" d="M0 0h38v38H0z"/></clipPath></defs></svg>