<svg width="38" height="19" fill="none" xmlns="http://www.w3.org/2000/svg"><path fill-rule="evenodd" clip-rule="evenodd" d="M.6786 0h1.3571a.6786.6786 0 01.6786.6786v17.6428A.6786.6786 0 012.0357 19H.6786A.6786.6786 0 010 18.3214V.6786A.6786.6786 0 01.6786 0zM4.27 6.9845a.6785.6785 0 01.4798-.1987h2.0358v5.4286H4.0713v-4.75c0-.18.0715-.3526.1987-.4799zm-.1987 6.5871h29.8571v2.7143H4.0713v-2.7143zm4.1603-5.1899L30.7859.0973c.4377-.1607.9314-.1136 1.3725.131.4411.2448.7935.667.9797 1.1737l.7019 1.911-24.2046 8.8905-1.4038-3.8218zm29.0899-2.953h-1.3571a.6786.6786 0 00-.6786.6786v12.2143c0 .3748.3038.6786.6786.6786h1.3571a.6786.6786 0 00.6786-.6786V6.1073a.6786.6786 0 00-.6786-.6786zM20.3457 8.522l.4807-.167a.2542.2542 0 01.3237.1564l1.4996 4.3178a.2542.2542 0 01-.157.3234l-.4808.1669a.2542.2542 0 01-.3237-.1564l-1.4996-4.3177a.2542.2542 0 01.1571-.3234z" fill="#FFC800"/></svg>