<svg width="38" height="26" fill="none" xmlns="http://www.w3.org/2000/svg"><path d="M38 15.6802v-1.4651a.8995.8995 0 01-.5278.7431l-.6924.3969-.5785.3336-9.5633 5.5142a1.8572 1.8572 0 01-.2407.114h-.0295l-.1689.0591h-.0676l-.1097.0253h-.9374l-.2026-.0295H24.4973l-.1351-.0507-.0549-.0253-.1689-.0845L1.8029 8.2449 1.3807 8l-.8445-.5024-.0675-.0423-.0634-.0422-.0506-.0422-.055-.0422-.0464-.0296-.076-.0802-.0295-.0422-.0422-.0634-.0254-.0422-.0253-.0549v-.0464V6.8684v-.0548-.055 1.4652H0v3.0949a.422.422 0 00.2491.3589.9153.9153 0 00.1436.0675h.0295l.1098.0338H1.216l.0507.0422h.0549a1.058 1.058 0 00.1773-.076l.0422-.0253.0422-.0338.1056-.0633.0549-.0591.0253-.0338.0211-.0507a.3064.3064 0 000-.0422.3001.3001 0 000-.0507V9.71l22.2934 12.9538.1688.0844.0507.0211.1393.0507h.0972v1.9338a.4215.4215 0 00.2491.3589.9158.9158 0 00.1435.0675l.1098.0338H25.8907c.0612-.02.1206-.0454.1773-.076l.0422-.0253.0422-.0338.0465-.0338.0549-.0591.0253-.0338.0211-.0506a.3317.3317 0 000-.0423.3287.3287 0 000-.0506v-2.0098a1.967 1.967 0 00.2407-.114l9.6773-5.548v1.4904a.422.422 0 00.2491.3589.9308.9308 0 00.1436.0676l.1098.0338H37.5398a1.068 1.068 0 00.2069-.0887l.0422-.0253.0422-.0338.0465-.038.0548-.0591.0254-.038.0211-.0507a.3301.3301 0 000-.0422.33.33 0 000-.0507L38 15.6802z" fill="#FFC800"/><path d="M5.0077 8.65a.2618.2618 0 000 .494l.7136.4223a.9416.9416 0 00.8444 0L18.236 2.8108a.2619.2619 0 000-.494l-.7135-.4223a.9417.9417 0 00-.8445 0L5.0077 8.6501zM1.8407 6.8388a.2618.2618 0 000 .494l.7136.4222a.9416.9416 0 00.8444 0L15.069.9994a.262.262 0 00.1269-.3983.262.262 0 00-.1269-.0957l-.7135-.4053a.9417.9417 0 00-.8445 0L1.8407 6.8388zM8.149 10.4739a.2622.2622 0 00-.1751.247.2618.2618 0 00.175.247l.7178.4307a.9421.9421 0 00.8445 0L21.3856 4.643a.262.262 0 00.1269-.3983.262.262 0 00-.1269-.0957l-.7178-.4222a.9414.9414 0 00-.8444 0L8.1489 10.474zM11.2942 12.3023a.2624.2624 0 00-.1269.0956.2625.2625 0 000 .3028.2624.2624 0 00.1269.0956l.7347.4222a.9366.9366 0 00.8444 0L24.5435 6.463a.262.262 0 00.1269-.3984.2619.2619 0 00-.1269-.0956l-.7346-.4223a.9417.9417 0 00-.8445 0l-11.6702 6.7556zM14.4569 14.1433a.2613.2613 0 00-.1268.3983.2617.2617 0 00.1268.0957l.7178.4222a.942.942 0 00.8444 0l11.6703-6.7556a.2616.2616 0 00.1268-.3983.2617.2617 0 00-.1268-.0957l-.7178-.4222a.9374.9374 0 00-.8445 0l-11.6702 6.7556zM17.6026 15.967a.262.262 0 00-.1269.3984.2612.2612 0 00.1269.0956l.7177.4223a.9426.9426 0 00.8445 0l11.6575-6.7514a.2612.2612 0 00.1751-.247.2615.2615 0 00-.1751-.247l-.7177-.4222a.9378.9378 0 00-.8445 0L17.6026 15.967zM20.7479 17.7955a.2615.2615 0 00-.1268.3983.2617.2617 0 00.1268.0957l.7178.4222a.9423.9423 0 00.8445 0l11.6702-6.7556a.2612.2612 0 00.1751-.247.262.262 0 00-.1751-.247l-.7178-.4222a.942.942 0 00-.8444 0l-11.6703 6.7556zM23.8937 19.6237a.2624.2624 0 00-.1269.0956.2625.2625 0 000 .3028.2618.2618 0 00.1269.0956l.7178.4222a.9366.9366 0 00.8444 0l11.6702-6.7555a.2618.2618 0 000-.494l-.7177-.4222a.9413.9413 0 00-.8445 0l-11.6702 6.7555z" fill="#FFC800"/></svg>