<svg width="38" height="26" fill="none" xmlns="http://www.w3.org/2000/svg"><path d="M38 15.68v-1.465a.9.9 0 0 1-.528.743l-.692.397-.579.334-9.563 5.514a1.857 1.857 0 0 1-.24.114h-.03l-.17.059h-.067l-.11.025h-.937l-.202-.03h-.385l-.135-.05-.055-.025-.169-.085L1.803 8.245 1.38 8l-.845-.502-.067-.043-.064-.042-.05-.042L.3 7.329l-.047-.03-.076-.08-.03-.042-.041-.064-.026-.042-.025-.055V6.76v1.465H0v3.095a.422.422 0 0 0 .25.359.915.915 0 0 0 .143.067h.03l.109.034h.684l.05.042h.056a1.058 1.058 0 0 0 .177-.076l.042-.025.042-.034.106-.063.055-.06.025-.033.021-.05a.306.306 0 0 0 0-.043.3.3 0 0 0 0-.05V9.71l22.294 12.954.168.084.051.021.14.051h.097v1.934a.421.421 0 0 0 .249.359.916.916 0 0 0 .143.067l.11.034h.849c.06-.02.12-.045.177-.076l.042-.025.042-.034.047-.034.055-.059.025-.034.021-.05a.332.332 0 0 0 0-.043.329.329 0 0 0 0-.05v-2.01a1.967 1.967 0 0 0 .24-.114l9.678-5.548v1.49a.422.422 0 0 0 .25.36.93.93 0 0 0 .143.067l.11.034h.819a1.068 1.068 0 0 0 .207-.09l.042-.024.042-.034.047-.038.054-.06.026-.037.02-.051a.33.33 0 0 0 0-.042.33.33 0 0 0 0-.05L38 15.68z" fill="#FFC800"/><path d="M5.008 8.65a.262.262 0 0 0 0 .494l.713.422a.942.942 0 0 0 .845 0l11.67-6.755a.262.262 0 0 0 0-.494l-.714-.422a.942.942 0 0 0-.844 0L5.008 8.65zM1.84 6.839a.262.262 0 0 0 0 .494l.713.422a.942.942 0 0 0 .845 0L15.069.999a.262.262 0 0 0 .127-.398.262.262 0 0 0-.127-.096L14.356.1a.942.942 0 0 0-.845 0L1.841 6.84zm6.308 3.635a.262.262 0 0 0-.175.247.262.262 0 0 0 .175.247l.718.43a.942.942 0 0 0 .844 0l11.675-6.755a.262.262 0 0 0 .127-.398.262.262 0 0 0-.127-.096l-.718-.422a.941.941 0 0 0-.845 0L8.15 10.474zm3.145 1.828a.262.262 0 0 0-.127.096.263.263 0 0 0 0 .303.262.262 0 0 0 .127.095l.735.422a.937.937 0 0 0 .844 0l11.67-6.755a.262.262 0 0 0 .127-.398.262.262 0 0 0-.127-.096l-.734-.422a.942.942 0 0 0-.845 0l-11.67 6.755zm3.163 1.841a.261.261 0 0 0-.127.399.262.262 0 0 0 .127.095l.718.423a.942.942 0 0 0 .844 0l11.67-6.756a.262.262 0 0 0 .127-.398.262.262 0 0 0-.127-.096l-.717-.422a.937.937 0 0 0-.845 0l-11.67 6.755zm3.146 1.824a.262.262 0 0 0-.127.398.261.261 0 0 0 .127.096l.717.422a.943.943 0 0 0 .845 0l11.657-6.751a.261.261 0 0 0 .175-.247.262.262 0 0 0-.175-.247l-.717-.422a.938.938 0 0 0-.845 0l-11.657 6.751zm3.145 1.829a.262.262 0 0 0-.127.398.262.262 0 0 0 .127.096l.718.422a.942.942 0 0 0 .844 0l11.67-6.756a.261.261 0 0 0 .176-.247.262.262 0 0 0-.176-.247l-.717-.422a.942.942 0 0 0-.845 0l-11.67 6.756zm3.146 1.828a.262.262 0 0 0-.127.095.263.263 0 0 0 0 .303.262.262 0 0 0 .127.096l.718.422a.937.937 0 0 0 .844 0l11.67-6.756a.262.262 0 0 0 0-.494l-.718-.422a.941.941 0 0 0-.844 0l-11.67 6.756z" fill="#FFC800"/></svg>