<svg width="38" height="38" fill="none" xmlns="http://www.w3.org/2000/svg"><path d="M13.608 24.916h11.069V28.7H13.608v-3.785zm0 4.676h11.069v6.283H13.608v-6.283zm21.744-8.71h-9.785v14.993h9.785a1.04 1.04 0 0 0 1.04-1.039V21.921a1.04 1.04 0 0 0-1.04-1.04zm-1.064 1.781H28.05a.446.446 0 0 1 0-.89h6.237a.446.446 0 0 1 0 .89zm-20.68-1.781h11.069v3.143H13.608v-3.143zM1.703 21.92v12.915a1.04 1.04 0 0 0 1.039 1.04h9.976V20.881H2.742a1.04 1.04 0 0 0-1.04 1.039zm2.696-.149h6.237a.446.446 0 0 1 .445.446.445.445 0 0 1-.445.445H4.399a.445.445 0 0 1 0-.89zm12.51-13.825h4.13V9.91h-4.13V7.947zm-3.68-5.822h11.448v4.931H13.228v-4.93zM25.566 9.91h10.73V2.125h-10.73V9.91zm3.785-1.65h4.025a.445.445 0 1 1 0 .891h-4.025a.445.445 0 1 1 0-.89zm-13.72 5.425h6.683L21.18 10.8h-4.415l-1.134 2.885zm-3.294-11.56H1.608V9.91h10.73V2.125zM9.03 9.15H5.005a.445.445 0 0 1 0-.89H9.03a.445.445 0 0 1 0 .89z" fill="#FFC800"/></svg>