<svg width="38" height="38" fill="none" xmlns="http://www.w3.org/2000/svg"><path d="M13.6084 24.9158h11.0685v3.7853H13.6084v-3.7853zM13.6084 29.5916h11.0685v6.2835H13.6084v-6.2835zM35.3525 20.8817h-9.7852v14.9935h9.7852a1.0402 1.0402 0 001.039-1.0391V21.9208a1.0402 1.0402 0 00-1.039-1.0391zm-1.0648 1.7813h-6.237a.4455.4455 0 010-.8907h6.237a.4455.4455 0 010 .8907zM13.6084 20.8817h11.0685v3.1434H13.6084v-3.1434zM1.7026 21.9208v12.9153a1.0402 1.0402 0 001.0391 1.0391h9.976V20.8817h-9.976a1.0402 1.0402 0 00-1.039 1.0391zm2.6964-.1485h6.237a.4456.4456 0 01.4453.4454.4451.4451 0 01-.4453.4453H4.399a.4454.4454 0 010-.8907zM16.9081 7.9471h4.1309v1.9625h-4.1309V7.9471zM13.2283 2.1248H24.677v4.9315H13.2283V2.1248zM25.5673 9.9098h10.7295v-7.785H25.5673v7.785zm3.7843-1.6493h4.0251a.4453.4453 0 110 .8906h-4.0251a.4453.4453 0 110-.8906zM15.6316 13.6855h6.6832l-1.1342-2.8852h-4.4147l-1.1343 2.8852zM12.3378 2.1248H1.6083v7.785h10.7295v-7.785zM9.0303 9.151h-4.025a.4453.4453 0 010-.8906h4.025a.4453.4453 0 010 .8906z" fill="#FFC800"/></svg>