<svg width="38" height="38" fill="none" xmlns="http://www.w3.org/2000/svg"><path d="M38 22.8887V20H0v2.8887c0 1.166 1.2787 2.4446 2.4447 2.4446h33.7779c1.1654 0 1.7774-1.2786 1.7774-2.4446zM37.3661 18.6667l-6.9687-6H8.426l-7.2134 6h36.1535zm-10.5594-5.6293c.1627.0046.6867.468 1.3687 1.2693 1.0859 1.2753 2.246 3.0033 1.8299 2.96-.4093-.0433-1.856-1.768-2.6746-3.0047-.518-.7826-.686-1.2299-.524-1.2246zm-7.826 1.136c.0707-.7147.2353-1.056.3893-.9693.1554.0872.3246.6239.4007 1.4347.1206 1.2913-.0193 2.8779-.392 2.6366-.3674-.238-.5087-1.9727-.398-3.102zm-8.2614.1327c.682-.8007 1.206-1.264 1.3687-1.2694.162-.0046-.006.442-.524 1.2247-.8187 1.236-2.2653 2.9613-2.6747 3.0046-.416.0434.744-1.6846 1.83-2.9599z" fill="#FFC800"/></svg>