<svg width="38" height="38" fill="none" xmlns="http://www.w3.org/2000/svg"><path fill-rule="evenodd" clip-rule="evenodd" d="M19 38c10.4934 0 19-8.5066 19-19S29.4934 0 19 0 0 8.5066 0 19s8.5066 19 19 19zm2.6494-18.2709c.5998.1692 1.2187.2538 1.8569.2538.7382 0 1.3649-.1115 1.8801-.3345.5151-.223.8996-.5229 1.1534-.8996.2614-.3845.3921-.8074.3921-1.2688 0-.5382-.1422-.965-.4267-1.2802-.2769-.3153-.6113-.546-1.0035-.6921-.3921-.1461-.8958-.2921-1.5109-.4382-.5921-.1308-1.0342-.2615-1.3264-.3922-.2845-.1384-.4268-.346-.4268-.6228 0-.2768.123-.4998.3691-.669.2538-.1692.6421-.2537 1.1649-.2537.7459 0 1.4917.2114 2.2376.6343l.5767-1.4186c-.3691-.2307-.7997-.4076-1.2918-.5306a6.2075 6.2075 0 00-1.5109-.1845c-.7382 0-1.3649.1115-1.8801.3344-.5075.223-.8881.5268-1.1418.9112-.2538.3768-.3806.7997-.3806 1.2687 0 .5383.1384.9689.4152 1.2918.2845.323.6228.5575 1.015.7036.3921.1461.8958.2922 1.5109.4383.3998.0923.7151.1768.9458.2537.2384.0769.4306.1807.5767.3115.1538.123.2307.2806.2307.4728 0 .2615-.1269.4729-.3807.6344-.2537.1538-.6459.2307-1.1764.2307-.4768 0-.9535-.0769-1.4302-.2307-.4768-.1538-.8881-.3575-1.2341-.6113l-.6344 1.4071c.3614.2769.8381.5037 1.4302.6805zm-10.9635-4.0829c.4614.146.8228.3921 1.0842.7381.2614.3383.3921.7574.3921 1.2572 0 .7074-.2768 1.2534-.8304 1.6378-.5459.3768-1.3456.5652-2.399.5652H4.7575v-8.0737H8.702c.9842 0 1.7377.1884 2.2606.5651.5306.3768.7959.8881.7959 1.534 0 .3922-.0962.742-.2884 1.0496-.1845.3076-.446.5498-.7843.7267zm-4.0715-2.4683v1.9031h1.857c.4614 0 .8112-.0807 1.0496-.2422.2383-.1615.3575-.3999.3575-.7151 0-.3153-.1192-.5498-.3575-.7036-.2384-.1615-.5882-.2422-1.0496-.2422h-1.857zm2.18 5.2594c.492 0 .8612-.0807 1.1072-.2422.2537-.1614.3806-.4113.3806-.7497 0-.6689-.496-1.0034-1.4878-1.0034h-2.18v1.9953h2.18zm10.8031-.0922v1.4994h-6.2513v-8.0737h6.1014v1.4994h-4.2445v1.7531h3.7485v1.4533h-3.7485v1.8685h4.3944zm9.9403-5.0519h-2.5836v-1.5224h7.0356v1.5224h-2.5836v6.5513h-1.8684v-6.5513zM4.8269 26.5324a3.9866 3.9866 0 001.0877.1486c.4323 0 .7994-.0653 1.1011-.1959.3018-.1306.527-.3063.6756-.5269.1531-.2252.2297-.4729.2297-.7432 0-.3152-.0833-.5652-.25-.7498a1.4394 1.4394 0 00-.5877-.4054c-.2297-.0855-.5247-.1711-.885-.2567-.3468-.0765-.6057-.1531-.7769-.2297-.1666-.081-.25-.2026-.25-.3648 0-.1621.0721-.2927.2163-.3918.1486-.0991.376-.1486.6823-.1486.4368 0 .8737.1239 1.3106.3716l.3377-.831c-.2161-.1351-.4684-.2387-.7566-.3107a3.633 3.633 0 00-.885-.1081c-.4323 0-.7994.0653-1.1011.1959-.2973.1306-.5202.3085-.6688.5337-.1486.2207-.223.4684-.223.7431 0 .3153.0811.5675.2432.7566.1667.1892.3648.3265.5945.4121.2297.0856.5247.1711.885.2567.2342.0541.4188.1036.554.1486.1396.0451.2522.1059.3377.1824.0901.0721.1352.1644.1352.277 0 .1531-.0744.277-.223.3716-.1486.09-.3783.1351-.689.1351-.2793 0-.5585-.0451-.8377-.1351-.2793-.0901-.5202-.2094-.7229-.3581l-.3715.8242c.2116.1621.4909.295.8377.3986zm7.3683.0675v-.8782H9.6213v-1.0944h2.1956v-.8512H9.6213v-1.0268h2.4861v-.8783H8.5337v4.7289h3.6615zm.7357-4.7289h1.0944v3.8372h2.3712v.8917h-3.4656V21.871zm5.0363 0h-1.0944v4.7289h3.4656v-.8917h-2.3712V21.871zm6.5091 3.8507v.8782h-3.6615V21.871h3.5737v.8783h-2.486v1.0268h2.1955v.8512h-2.1955v1.0944h2.5738zm2.8367-.4391l.912 1.3173h1.1754l-1.0606-1.52c.3108-.1351.5495-.3287.7161-.5809.1711-.2568.2567-.5608.2567-.912 0-.3513-.0833-.6553-.2499-.912-.1667-.2568-.4054-.4549-.7161-.5945-.3063-.1396-.6688-.2095-1.0877-.2095H25.212v4.7289h1.0944v-1.3173h1.0066zm.635-2.3036c.1711.1396.2567.3422.2567.608 0 .2612-.0856.4638-.2567.608-.1711.1441-.4211.2161-.7499.2161h-.8917v-1.6483h.8917c.3288 0 .5788.072.7499.2162zm3.6504 3.702a3.9871 3.9871 0 01-1.0877-.1486c-.3468-.1036-.626-.2365-.8377-.3986l.3716-.8242c.2027.1487.4436.268.7228.3581.2793.09.5585.1351.8377.1351.3108 0 .5405-.0451.6891-.1351.1486-.0946.2229-.2185.2229-.3716 0-.1126-.045-.2049-.1351-.277-.0856-.0765-.1981-.1373-.3378-.1824-.1351-.045-.3197-.0945-.5539-.1486-.3603-.0856-.6553-.1711-.885-.2567-.2297-.0856-.4278-.2229-.5945-.4121-.1621-.1891-.2432-.4413-.2432-.7566 0-.2747.0743-.5224.2229-.7431.1487-.2252.3716-.4031.6688-.5337.3018-.1306.6688-.1959 1.1012-.1959.3018 0 .5967.036.885.1081.2882.072.5404.1756.7566.3107l-.3378.831c-.4368-.2477-.8737-.3716-1.3106-.3716-.3062 0-.5336.0495-.6823.1486-.1441.0991-.2161.2297-.2161.3918 0 .1622.0833.2838.2499.3648.1712.0766.4301.1532.7769.2297.3603.0856.6553.1712.885.2567a1.439 1.439 0 01.5877.4054c.1667.1846.25.4346.25.7498 0 .2703-.0766.518-.2297.7432-.1486.2206-.3738.3963-.6756.5269-.3017.1306-.6688.1959-1.1011.1959z" fill="#FFC800"/></svg>