<svg width="38" height="22" fill="none" xmlns="http://www.w3.org/2000/svg"><path fill-rule="evenodd" clip-rule="evenodd" d="M36.417 0H1.583c-.42 0-.822.166-1.12.46A1.565 1.565 0 0 0 0 1.571V22h3.167v-6.286h31.666V22H38V1.571c0-.416-.167-.816-.464-1.11A1.59 1.59 0 0 0 36.416 0zM3.167 12.571H19V9.43H3.167v3.142zm0-6.285H19V3.143H3.167v3.143zM27.62 9.164a1.592 1.592 0 0 0 .88.265c.42 0 .823-.166 1.12-.46a1.566 1.566 0 0 0 .463-1.112c0-.31-.093-.614-.267-.873a1.581 1.581 0 0 0-.71-.579 1.595 1.595 0 0 0-.915-.09 1.587 1.587 0 0 0-.81.43 1.568 1.568 0 0 0-.434.806 1.56 1.56 0 0 0 .09.907c.12.288.323.533.583.706z" fill="#FFC800"/></svg>