<svg width="38" height="22" fill="none" xmlns="http://www.w3.org/2000/svg"><path fill-rule="evenodd" clip-rule="evenodd" d="M36.4167 0H1.5833C1.1634 0 .7607.1656.4637.4603A1.5655 1.5655 0 000 1.5714V22h3.1667v-6.2857h31.6666V22H38V1.5714c0-.4167-.1668-.8164-.4637-1.1111A1.5896 1.5896 0 0036.4167 0zm-33.25 12.5714H19V9.4286H3.1667v3.1428zm0-6.2857H19V3.143H3.1667v3.1428zm24.4536 2.878a1.592 1.592 0 00.8797.2649c.4199 0 .8227-.1656 1.1196-.4603a1.5656 1.5656 0 00.4637-1.1112c0-.3108-.0928-.6146-.2668-.873a1.581 1.581 0 00-.7106-.5788 1.5946 1.5946 0 00-.9148-.0894 1.587 1.587 0 00-.8107.43 1.568 1.568 0 00-.4333.8047 1.5607 1.5607 0 00.0901.9079c.1198.2871.3228.5326.5831.7052z" fill="#FFC800"/></svg>