<svg width="38" height="38" fill="none" xmlns="http://www.w3.org/2000/svg"><path d="M6.909 32.473h10.364v-4.146H6.909v4.146zm5.441-3.066c.477 0 .864.387.864.863a.864.864 0 0 1-.864.864.864.864 0 0 1-.864-.864c0-.476.387-.863.864-.863zm-5.441-3.843h10.364v-4.146H6.909v4.146zm5.441-3.067c.477 0 .864.387.864.864a.864.864 0 0 1-.864.864.864.864 0 0 1-.864-.864c0-.477.387-.864.864-.864zm8.377 9.976h10.364V4.836H20.727v27.637zm1.987-15.503c.476 0 .863.387.863.864a.864.864 0 0 1-.863.863.864.864 0 0 1 0-1.727zM6.909 18.655h10.364V4.836H6.909v13.819zm8.205-7.212c.476 0 .863.387.863.863a.864.864 0 0 1-.863.864.864.864 0 0 1-.864-.864c0-.476.387-.863.864-.863z" fill="#FFC800"/><path d="M3.454 33.855V38h2.073v-2.073h12.437V38h2.072v-2.073h12.437V38h2.072V2.073H3.455v31.781zm16.582-29.71h11.746v29.019H20.036V4.145zm-13.818 0h11.746v15.2H6.218v-15.2zm0 16.582h11.746v5.528H6.218v-5.528zm0 6.91h11.746v5.527H6.218v-5.528zM3.454 1.381h31.091L35.927 0H2.073l1.382 1.382z" fill="#FFC800"/></svg>