<svg width="38" height="38" fill="none" xmlns="http://www.w3.org/2000/svg"><g clip-path="url(#clip0)"><path d="M37.1119 7.8633H.8881A.888.888 0 000 8.7513v1.8301a.888.888 0 00.888.8881h1.1688V27.6087c-.5813.3162-.9769.9327-.9769 1.6396a.888.888 0 00.8881.8881h1.9538c.0012.0002.0027 0 .0036 0a.888.888 0 00.8813-.9984c-.0385-.6602-.4229-1.2282-.9735-1.528v-3.9h17.3217v5.5181a.888.888 0 00.8881.8881h12.6982a.888.888 0 00.8881-.8881V11.4695h1.4828a.888.888 0 00.8881-.8881v-1.83a.8884.8884 0 00-.8883-.8881zm-4.0621 10.0454v9.1965h-9.1177v-9.1965h9.1177zm-9.1177-2.629v-3.2916h9.1177v3.2916h-9.1177zM3.833 13.4801v-2.0106h17.3217v2.0106H3.833z" fill="#FFC800"/></g><defs><clipPath id="clip0"><path fill="#fff" d="M0 0h38v38H0z"/></clipPath></defs></svg>