<svg width="27" height="39" fill="none" xmlns="http://www.w3.org/2000/svg"><path fill-rule="evenodd" clip-rule="evenodd" d="M2 2v17.483h.169v-6.506h2.168v6.506h1.084v-6.506h2.17v6.506h2.084l-2.007-5.019 2.013-.805 2.169 5.421-1.007.403h1.169V2H2zm10.011-2H1.018C.455 0 0 .455 0 1.016v36.9A1.084 1.084 0 0 0 1.084 39h3.253a1.084 1.084 0 0 0 1.085-1.084v-5.422h15.18v5.422A1.084 1.084 0 0 0 21.686 39h3.253a1.084 1.084 0 0 0 1.084-1.084v-36.9c0-.56-.455-1.016-1.017-1.016H12.011zm2 2v17.483h4.422a2.169 2.169 0 0 1-2.169-2.169v-3.253a1.084 1.084 0 0 1 1.085-1.084h4.337a2.168 2.168 0 0 1 2.168 2.169v1.084a2.169 2.169 0 0 1-2.168 2.169h-.294a2.169 2.169 0 0 1-1.875 1.084h4.506V2H14.012zM2.486 21.97a1.086 1.086 0 0 1 .212-.166h9.784a1.085 1.085 0 0 1 .53.932 1.084 1.084 0 0 1 .529-.932h9.784a1.085 1.085 0 0 1 .53.932v6.506a1.084 1.084 0 0 1-.318.766 1.084 1.084 0 0 1-.767.318h-8.674a1.084 1.084 0 0 1-1.085-1.084 1.084 1.084 0 0 1-.317.766 1.084 1.084 0 0 1-.767.318H3.253a1.084 1.084 0 0 1-1.084-1.084v-6.506c0-.288.114-.564.317-.767zm19.966-7.59a1.084 1.084 0 0 0-.766-.318v3.252a1.084 1.084 0 0 0 1.084-1.084v-1.084a1.084 1.084 0 0 0-.318-.767zm-19.2 14.862h8.675v-6.506H3.253v6.506zm4.338-4.338a1.085 1.085 0 0 1 1.002.67 1.084 1.084 0 0 1-1.417 1.416 1.084 1.084 0 0 1-.67-1.001 1.085 1.085 0 0 1 1.085-1.085zm6.506-2.168v6.506h8.674v-6.506h-8.674zm4.337 2.168a1.085 1.085 0 0 1 1.002.67 1.085 1.085 0 0 1-.79 1.478 1.085 1.085 0 0 1-1.296-1.063 1.084 1.084 0 0 1 1.084-1.085z" fill="#FFC800"/></svg>