<svg width="38" height="38" fill="none" xmlns="http://www.w3.org/2000/svg"><path d="M6.33 31.7971h25.34v3.9226H6.33v-3.9226zM6.3299 30.903l12.1638.0034-.0028-7.308c0-.8158-.6813-1.4795-1.5188-1.4795H5.8228c-.8375 0-1.5188.6637-1.5188 1.4794v4.2736A2.7584 2.7584 0 016.33 30.5122l-.0002.3908zm7.7419-6.6266a.6602.6602 0 01.6103.4077.6605.6605 0 11-1.2708.2528.6609.6609 0 01.1937-.4668.6609.6609 0 01.4668-.1937zm0 3.1505a.6602.6602 0 01.6103.4077.6606.6606 0 11-1.2708.2528.6613.6613 0 01.6605-.6605zm-5.3454-3.1505a.6603.6603 0 01.6478.7894.6607.6607 0 01-.9006.4814.6608.6608 0 01-.4078-.6103.6616.6616 0 01.6604-.6605h.0001zm0 3.1505a.6603.6603 0 01.6478.7894.6607.6607 0 01-.9006.4814.6608.6608 0 01-.4078-.6103.6612.6612 0 01.6604-.6605h.0001zM3.5362 28.6558c-1.0499 0-1.9034.8328-1.9034 1.8563v6.6168h3.8065v-6.6168c0-1.0235-.8538-1.8563-1.9032-1.8563zM33.5056 23.5983c0-.8157-.6814-1.4794-1.5189-1.4794H20.9002a1.502 1.502 0 00-1.0731.4409 1.534 1.534 0 00-.4412 1.0998l-.0015 7.2471 12.2854.0034v-.3978a2.754 2.754 0 011.8358-2.5803v-4.3337zm-9.7336 5.15a.6602.6602 0 01-.6103-.4078.6603.6603 0 01.4814-.9006.6605.6605 0 01.7894.6479.6614.6614 0 01-.6605.6605zm0-3.1505a.661.661 0 01-.6103-.4078.6603.6603 0 01.4814-.9006.6605.6605 0 01.5958 1.1148.6617.6617 0 01-.4669.1939v-.0003zm5.3453 3.1505a.6605.6605 0 11.6605-.6605.6613.6613 0 01-.6602.6605h-.0003zm0-3.1505a.661.661 0 01-.6479-.7894.6607.6607 0 011.1971-.2381.6602.6602 0 01-.0822.8338.6612.6612 0 01-.4667.194l-.0003-.0003zM34.4639 28.6558c-1.0494 0-1.9032.8325-1.9032 1.856v6.6168h3.8065v-6.6165c0-1.0235-.8535-1.8563-1.9033-1.8563zM6.8085 7.1177V1.3164a.4453.4453 0 00-.8907 0v5.8013a.4453.4453 0 10.8907 0z" fill="#FFC800"/><path d="M9.5083 10.7078a3.1446 3.1446 0 10-6.2892 0v.2727h6.2892v-.2727zM5.6176 9.2106a3.1467 3.1467 0 00-.8196.8519.4446.4446 0 01-.2813.1924.4457.4457 0 01-.335-.0628.444.444 0 01-.1925-.2813.4455.4455 0 01.0628-.335 4.0342 4.0342 0 011.0505-1.0917.4453.4453 0 01.515.7265zM6.4474 12.2587a.7783.7783 0 00.6595-.3876H5.788a.7782.7782 0 00.6595.3876zM11.402 18.0346h8.3952l-4.0437-3.9247-4.3515 3.9247zM20.8551 17.8205l.2205.2141h5.9523l-3.0552-2.6098-3.1176 2.3957zM20.2446 13.7136c.5739 0 1.0391-.4652 1.0391-1.039 0-.5739-.4652-1.0391-1.0391-1.0391-.5738 0-1.039.4652-1.039 1.0391 0 .5738.4652 1.039 1.039 1.039z" fill="#FFC800"/><path d="M30.76 18.0345V7.4375H8.723a4.0317 4.0317 0 011.6754 3.2703v.718a.4454.4454 0 01-.4453.4453H8.0655a1.75 1.75 0 01-.8261 1.0701v5.0933h2.8325l5.3942-4.8652a.4453.4453 0 01.6086.0112l4.1348 4.0131 3.5071-2.6949a.4453.4453 0 01.5607.0144l4.1223 3.5214H30.76zm-10.5159-3.4302a1.9299 1.9299 0 01-1.8926-2.3062 1.9291 1.9291 0 011.5161-1.5161 1.93 1.93 0 012.3061 1.8926 1.9315 1.9315 0 01-1.9296 1.9297z" fill="#FFC800"/></svg>