<svg width="38" height="38" fill="none" xmlns="http://www.w3.org/2000/svg"><path d="M6.33 31.797h25.34v3.923H6.33v-3.923zm0-.894l12.164.003-.003-7.308c0-.815-.681-1.48-1.519-1.48H5.822c-.837 0-1.518.665-1.518 1.48v4.274a2.758 2.758 0 0 1 2.026 2.64v.391zm7.742-6.627a.66.66 0 0 1 .61.408.66.66 0 1 1-1.27.253.66.66 0 0 1 .193-.467.66.66 0 0 1 .467-.194zm0 3.15a.66.66 0 0 1 .61.409.66.66 0 1 1-1.27.252.661.661 0 0 1 .66-.66zm-5.346-3.15a.66.66 0 0 1 .648.79.66.66 0 0 1-.9.481.66.66 0 0 1-.408-.61.662.662 0 0 1 .66-.66zm0 3.15a.66.66 0 0 1 .648.79.66.66 0 0 1-.9.482.66.66 0 0 1-.408-.61.661.661 0 0 1 .66-.661zm-5.19 1.23c-1.05 0-1.903.833-1.903 1.856v6.617h3.806v-6.617c0-1.023-.853-1.856-1.903-1.856zm29.97-5.058c0-.815-.682-1.48-1.52-1.48H20.9a1.502 1.502 0 0 0-1.073.442 1.534 1.534 0 0 0-.441 1.1l-.002 7.247 12.286.003v-.398a2.754 2.754 0 0 1 1.836-2.58v-4.334zm-9.734 5.15a.66.66 0 0 1-.61-.408.66.66 0 0 1 .481-.9.66.66 0 0 1 .79.648.661.661 0 0 1-.661.66zm0-3.15a.661.661 0 0 1-.61-.408.66.66 0 0 1 .481-.9.66.66 0 0 1 .596 1.114.662.662 0 0 1-.467.194zm5.345 3.15a.66.66 0 1 1 .66-.66.661.661 0 0 1-.66.66zm0-3.15a.661.661 0 0 1-.648-.79.66.66 0 0 1 1.197-.238.66.66 0 0 1-.082.834.661.661 0 0 1-.466.194zm5.347 3.058c-1.05 0-1.903.832-1.903 1.856v6.617h3.806v-6.617c0-1.023-.853-1.856-1.903-1.856zM6.809 7.118V1.316a.445.445 0 0 0-.891 0v5.802a.445.445 0 1 0 .89 0z" fill="#FFC800"/><path d="M9.508 10.708a3.145 3.145 0 1 0-6.289 0v.273h6.29v-.273zM5.618 9.21a3.147 3.147 0 0 0-.82.851.445.445 0 0 1-.281.193.446.446 0 0 1-.335-.063.444.444 0 0 1-.193-.281.446.446 0 0 1 .063-.335 4.034 4.034 0 0 1 1.05-1.092.445.445 0 0 1 .516.727zm.83 3.048a.778.778 0 0 0 .659-.388H5.788a.778.778 0 0 0 .66.388zm4.954 5.776h8.395l-4.044-3.925-4.351 3.925zm9.453-.215l.22.215h5.953l-3.055-2.61-3.118 2.395zm-.61-4.106a1.04 1.04 0 1 0 0-2.079 1.04 1.04 0 0 0 0 2.079z" fill="#FFC800"/><path d="M30.76 18.035V7.437H8.723a4.032 4.032 0 0 1 1.675 3.27v.719a.445.445 0 0 1-.445.445H8.066a1.75 1.75 0 0 1-.827 1.07v5.093h2.833l5.394-4.865a.445.445 0 0 1 .609.012l4.135 4.013 3.507-2.695a.445.445 0 0 1 .56.014l4.123 3.522h2.36zm-10.516-3.43a1.93 1.93 0 0 1-1.892-2.307 1.93 1.93 0 0 1 1.516-1.516 1.93 1.93 0 0 1 2.306 1.893 1.931 1.931 0 0 1-1.93 1.93z" fill="#FFC800"/></svg>