<svg width="38" height="25" fill="none" xmlns="http://www.w3.org/2000/svg"><path d="M20.3573 23.749c0 .18.0715.3526.1987.4799a.679.679 0 00.4799.1987h4.0713a.6786.6786 0 00.6786-.6786v-2.0356h-5.4285v2.0356zM2.715 23.749a.6788.6788 0 00.6786.6786H7.465a.6788.6788 0 00.6785-.6786v-2.0356H2.7151v2.0356zM11.5341 6.7859H6.1057a.6786.6786 0 00-.6786.6786v2.7142c0 .3747.3038.6785.6786.6785h5.4284a.6786.6786 0 00.6786-.6785V7.4645a.6786.6786 0 00-.6786-.6786z" fill="#FFC800"/><path d="M4.0722 10.1783V7.4641a2.0357 2.0357 0 012.0357-2.0357h5.4284a2.0358 2.0358 0 012.0357 2.0357v2.7142a2.0132 2.0132 0 01-.1249.6786h1.6069a2.0132 2.0132 0 01-.1249-.6786V7.4641a2.0359 2.0359 0 012.0357-2.0357h5.4284a2.0358 2.0358 0 012.0357 2.0357v2.7142a2.0108 2.0108 0 01-.1249.6786h1.482V2.0357A2.0359 2.0359 0 0023.7503 0H4.7508A2.0357 2.0357 0 002.715 2.0357v8.8212h1.482a2.0127 2.0127 0 01-.1249-.6786zM26.4637 12.2134H2.0357A2.0359 2.0359 0 000 14.249v3.3928h28.4994V14.249a2.0357 2.0357 0 00-2.0357-2.0356z" fill="#FFC800"/><path d="M22.3917 6.7859h-5.4285a.6785.6785 0 00-.6785.6786v2.7142c0 .3747.3038.6785.6785.6785h5.4285a.6785.6785 0 00.6785-.6785V7.4645a.6785.6785 0 00-.6785-.6786zM0 19.6783a.6784.6784 0 00.6786.6786h27.1422c.18 0 .3526-.0715.4798-.1988a.6782.6782 0 00.1988-.4798v-.6785H0v.6785zM32.5713 17.6418h5.4284v-5.4284h-5.4284v5.4284zm.6785-3.3928h1.3572v1.3572h-1.3572V14.249zM32.5714 24.4282h5.4285v-5.4284h-5.4285v5.4284zm.6786-3.3928h1.3571v1.3571H33.25v-1.3571zM37.4001 1.3577h-4.2302L32.661 5.429h5.248l-.5089-4.0713zM34.6062 6.7859h1.3571v4.0713h-1.3571V6.7859z" fill="#FFC800"/></svg>