<svg width="38" height="25" fill="none" xmlns="http://www.w3.org/2000/svg"><path d="M20.357 23.749c0 .18.072.353.199.48a.679.679 0 0 0 .48.199h4.071a.679.679 0 0 0 .679-.679v-2.036h-5.429v2.036zm-17.642 0a.679.679 0 0 0 .679.679h4.071a.679.679 0 0 0 .678-.679v-2.036H2.715v2.036zm8.82-16.963h-5.43a.679.679 0 0 0-.678.679v2.714c0 .374.304.678.679.678h5.428a.679.679 0 0 0 .679-.678V7.464a.679.679 0 0 0-.679-.678z" fill="#FFC800"/><path d="M4.072 10.178V7.464a2.036 2.036 0 0 1 2.036-2.036h5.428a2.036 2.036 0 0 1 2.036 2.036v2.714a2.013 2.013 0 0 1-.125.679h1.607a2.013 2.013 0 0 1-.125-.679V7.464a2.036 2.036 0 0 1 2.036-2.036h5.428a2.036 2.036 0 0 1 2.036 2.036v2.714a2.01 2.01 0 0 1-.125.679h1.482V2.036A2.036 2.036 0 0 0 23.75 0h-19a2.036 2.036 0 0 0-2.035 2.036v8.82h1.482a2.013 2.013 0 0 1-.125-.678zm22.392 2.035H2.036A2.036 2.036 0 0 0 0 14.25v3.393h28.5V14.25a2.036 2.036 0 0 0-2.036-2.036z" fill="#FFC800"/><path d="M22.392 6.786h-5.429a.678.678 0 0 0-.678.679v2.714c0 .374.304.678.678.678h5.429a.678.678 0 0 0 .678-.678V7.464a.678.678 0 0 0-.678-.678zM0 19.678a.678.678 0 0 0 .679.679H27.82c.18 0 .352-.072.48-.199a.678.678 0 0 0 .198-.48V19H0v.678zm32.571-2.036H38v-5.429h-5.43v5.429zm.679-3.393h1.357v1.357H33.25V14.25zm-.679 10.18H38v-5.43h-5.43v5.43zm.679-3.394h1.357v1.357H33.25v-1.357zM37.4 1.358h-4.23l-.509 4.071h5.248L37.4 1.358zm-2.794 5.428h1.357v4.071h-1.357V6.786z" fill="#FFC800"/></svg>